<?xml version="1.0" encoding="UTF-8"?>
<!DOCTYPE svg PUBLIC "-//W3C//DTD SVG 1.1//EN" "http://www.w3.org/Graphics/SVG/1.1/DTD/svg11.dtd">
<!-- Creator: CorelDRAW X8 -->
<svg xmlns="http://www.w3.org/2000/svg" xml:space="preserve" width="91.4398mm" height="91.4398mm" version="1.1" style="shape-rendering:geometricPrecision; text-rendering:geometricPrecision; image-rendering:optimizeQuality; fill-rule:evenodd; clip-rule:evenodd"
viewBox="0 0 9144 9144"
 xmlns:xlink="http://www.w3.org/1999/xlink">
 <defs>
  <style type="text/css">
   <![CDATA[
    .fil10 {fill:none;fill-rule:nonzero}
    .fil6 {fill:#390075;fill-rule:nonzero}
    .fil23 {fill:#628CC2;fill-rule:nonzero}
    .fil16 {fill:#6B184E;fill-rule:nonzero}
    .fil24 {fill:#6DAFD5;fill-rule:nonzero}
    .fil1 {fill:#74C9E3;fill-rule:nonzero}
    .fil0 {fill:#83FBFF;fill-rule:nonzero}
    .fil11 {fill:#9742CE;fill-rule:nonzero}
    .fil25 {fill:#997CB8;fill-rule:nonzero}
    .fil15 {fill:#9C80BA;fill-rule:nonzero}
    .fil26 {fill:#B199C5;fill-rule:nonzero}
    .fil19 {fill:#BA587D;fill-rule:nonzero}
    .fil22 {fill:#BE9AB2;fill-rule:nonzero}
    .fil13 {fill:#C1FDFF;fill-rule:nonzero}
    .fil17 {fill:#C34D25;fill-rule:nonzero}
    .fil3 {fill:#C3B2D5;fill-rule:nonzero}
    .fil12 {fill:#CBA1E7;fill-rule:nonzero}
    .fil21 {fill:#DAC5D3;fill-rule:nonzero}
    .fil9 {fill:#F22579;fill-rule:nonzero}
    .fil18 {fill:#F27E80;fill-rule:nonzero}
    .fil7 {fill:#FF4D96;fill-rule:nonzero}
    .fil20 {fill:#FF67A0;fill-rule:nonzero}
    .fil4 {fill:#FF6F03;fill-rule:nonzero}
    .fil14 {fill:#FFA6CB;fill-rule:nonzero}
    .fil8 {fill:#FFAACD;fill-rule:nonzero}
    .fil5 {fill:#FFD4B3;fill-rule:nonzero}
    .fil2 {fill:white;fill-rule:nonzero}
   ]]>
  </style>
 </defs>
 <g id="Camada_x0020_1">
  <metadata id="CorelCorpID_0Corel-Layer"/>
  <polygon class="fil0" points="0,9144 9144,9144 9144,0 0,0 "/>
  <path class="fil1" d="M4938 7967c-1241,0 -2246,-155 -2246,-345 0,-75 158,-145 426,-202 -11,16 -18,31 -23,44 -21,58 -12,125 24,183 64,103 288,125 464,125 63,0 119,-3 160,-6 236,-16 303,-231 367,-439 3,-9 6,-17 8,-26 227,-14 471,-22 726,-23 2,13 5,26 7,40 38,200 100,394 293,407 32,2 93,5 164,5 53,0 112,-1 169,-6 126,-11 246,-38 283,-99 12,-21 21,-43 26,-66 17,-85 -25,-177 -164,-222 2,-10 3,-21 5,-32 117,105 257,192 412,255 182,74 375,111 569,111 185,0 372,-34 551,-101 17,17 26,34 26,52 0,190 -1006,345 -2247,345z"/>
  <path class="fil2" d="M7804 6877c-18,55 -41,109 -69,161 -110,204 -301,383 -585,491 -761,291 -1561,-83 -1800,-680l-19 -505c31,-7 61,-14 89,-21 68,155 176,349 338,520 121,127 272,242 459,317 473,190 860,18 1027,-233 91,-136 117,-296 58,-433 -142,-328 -394,-270 -428,-487 -42,-259 313,-363 621,-143 307,220 429,638 309,1013z"/>
  <path class="fil3" d="M6604 7591c-384,0 -730,-155 -966,-387 12,-142 10,-292 -2,-440 48,60 102,120 164,176 94,196 272,420 605,505 113,28 226,42 336,42 365,0 703,-151 933,-424 -115,188 -300,337 -539,428 -180,69 -359,100 -531,100z"/>
  <path class="fil4" d="M7735 7038c-16,1 -33,1 -49,1 -160,0 -311,-40 -442,-112 91,-136 117,-296 58,-433 -142,-328 -394,-270 -428,-487 -42,-259 313,-363 621,-143 352,253 461,765 240,1174z"/>
  <path class="fil5" d="M7789 6395c-58,-154 -158,-291 -294,-388 -116,-83 -239,-120 -344,-120 -103,0 -190,35 -239,97 -8,-85 39,-134 80,-159 40,-25 95,-40 160,-40 94,0 207,32 319,112 165,119 276,297 318,498z"/>
  <path class="fil6" d="M6608 7671c-194,0 -387,-37 -569,-111 -340,-138 -605,-391 -727,-696 -8,-21 2,-44 23,-53 21,-8 45,2 53,23 222,555 977,951 1747,657 377,-144 620,-432 666,-789 41,-321 -85,-629 -330,-805 -190,-136 -381,-133 -479,-72 -44,27 -93,80 -78,176 13,85 65,117 142,165 91,57 204,128 283,312 79,182 25,400 -140,569 -187,192 -547,332 -997,151 -375,-151 -606,-455 -733,-684 -138,-247 -187,-456 -189,-465 -5,-22 9,-44 31,-49 22,-5 44,9 49,31 2,8 197,819 872,1091 413,166 740,40 909,-133 141,-144 188,-328 123,-479 -69,-160 -166,-221 -251,-274 -83,-52 -161,-101 -180,-222 -17,-108 25,-203 116,-259 124,-77 348,-83 570,76 269,193 409,531 363,881 -50,389 -312,700 -718,855 -180,69 -369,104 -556,104z"/>
  <path class="fil7" d="M4025 5563c0,0 -132,816 -787,1248 -334,221 -612,195 -865,169 -285,-29 -538,-59 -804,262l0 0 -275 -71c0,0 186,-431 720,-522 247,-42 400,-20 525,3 147,26 257,52 439,-24 241,-101 587,-456 530,-804l517 -261z"/>
  <path class="fil8" d="M1396 7098c85,-126 278,-339 627,-399 98,-17 181,-23 252,-23 113,0 199,16 279,30 66,12 128,23 194,23 73,0 152,-13 249,-54 151,-62 323,-205 438,-382 5,11 10,22 15,32 -111,186 -292,338 -437,398 -89,37 -161,50 -229,50 -70,0 -135,-14 -209,-27 -74,-13 -157,-26 -264,-26 -74,0 -160,6 -261,23 -300,51 -490,210 -599,339 -18,8 -36,13 -55,16z"/>
  <path class="fil9" d="M4025 5563c0,0 -132,816 -787,1248 -334,221 -612,195 -865,169 -285,-29 -538,-59 -805,262l-274 -71c0,0 14,-31 43,-77 55,14 121,-4 163,-46 243,-244 478,-217 739,-191 254,27 532,53 866,-168 442,-292 646,-758 732,-1031l188 -95z"/>
  <path class="fil6" d="M1569 7293c-5,0 -9,0 -13,-1l-275 -71c-14,-4 -26,-14 -33,-28 -6,-13 -7,-29 -1,-42 8,-19 204,-458 759,-553 271,-46 435,-16 566,7 132,24 228,42 386,-24 238,-99 551,-440 500,-749 -5,-27 14,-54 42,-58 28,-5 54,14 59,42 59,362 -287,745 -562,859 -185,78 -305,56 -443,31 -130,-23 -277,-50 -531,-7 -390,67 -585,326 -653,439l180 47c274,-313 540,-286 820,-257 254,26 517,54 840,-159 629,-416 764,-1207 765,-1215 4,-27 31,-47 59,-42 27,5 46,31 42,59 -2,8 -36,213 -152,474 -108,242 -309,579 -658,809 -353,233 -647,203 -906,176 -283,-29 -505,-52 -752,245 -10,12 -24,18 -39,18z"/>
  <line class="fil10" x1="3028" y1="5848" x2="3028" y2= "5848" />
  <line class="fil10" x1="3028" y1="5848" x2="3028" y2= "5848" />
  <path class="fil11" d="M5218 4112c111,92 220,179 327,260 14,-16 28,-32 42,-48 1,-1 1,-2 2,-3 14,-16 28,-33 41,-49 50,-59 98,-119 145,-180 1,-1 2,-3 4,-5l23 -30c7,-9 14,-18 21,-27 11,-15 22,-29 33,-44 8,-11 17,-22 25,-33 4,-5 7,-10 11,-15 7,-9 14,-19 21,-28 6,-9 13,-18 19,-27 6,-9 12,-17 18,-25 5,-7 9,-13 14,-19 8,-12 16,-24 24,-35 2,-3 4,-5 6,-8 10,-14 19,-28 29,-42 1,-1 2,-3 3,-5 11,-15 21,-30 31,-45 11,-16 22,-32 33,-49 22,-32 43,-65 64,-97 8,-14 17,-27 25,-41 22,-34 43,-69 64,-103 9,-15 18,-30 26,-45 10,-17 20,-34 30,-51 53,-90 101,-180 146,-268 6,-11 11,-22 17,-33 5,-11 11,-21 16,-32 32,-66 62,-130 90,-194 -69,-140 -152,-273 -246,-397 -219,528 -597,1141 -1104,1718z"/>
  <path class="fil11" d="M5604 4416c363,269 695,465 945,560 96,-187 169,-388 214,-599 -531,93 -937,68 -1159,39z"/>
  <path class="fil11" d="M5545 4372c20,15 39,29 59,44 222,29 628,54 1159,-39 29,-133 47,-271 53,-411 -475,89 -840,117 -1041,126 -47,61 -95,121 -145,180 -13,16 -27,33 -41,49 -1,1 -1,2 -2,3 -14,16 -28,32 -42,48z"/>
  <path class="fil11" d="M5775 4092c201,-9 566,-37 1041,-126 1,-34 2,-68 2,-102 0,-107 -7,-212 -20,-315 -165,55 -418,122 -741,155 -10,15 -20,30 -31,45 -1,2 -2,4 -3,5 -10,14 -19,28 -29,42 -2,3 -4,5 -6,8 -8,11 -16,23 -24,35 -5,6 -9,12 -14,19 -6,8 -12,16 -18,25 -6,9 -13,18 -19,27 -7,9 -14,19 -21,28 -4,5 -7,10 -11,15 -8,11 -17,22 -25,33 -11,15 -22,29 -33,44 -7,9 -14,18 -21,27l-23 30c-2,2 -3,4 -4,5z"/>
  <path class="fil11" d="M6057 3704c323,-33 576,-100 741,-155 -18,-132 -45,-261 -83,-385 -90,44 -223,98 -416,154 -10,17 -20,34 -30,51 -8,15 -17,30 -26,45 -21,34 -42,69 -64,103 -8,14 -17,27 -25,41 -21,32 -42,65 -64,97 -11,17 -22,33 -33,49z"/>
  <path class="fil11" d="M6299 3318c193,-56 326,-110 416,-154 -39,-129 -88,-254 -147,-373 -28,64 -58,128 -90,194 -5,11 -11,21 -16,32 -6,11 -11,22 -17,33 -45,88 -93,178 -146,268z"/>
  <path class="fil11" d="M4878 3813c113,105 227,204 340,299 507,-577 885,-1190 1104,-1718 -91,-118 -192,-228 -303,-328 -194,497 -598,1137 -1141,1747z"/>
  <path class="fil11" d="M4527 3473c115,118 233,232 351,340 543,-610 947,-1250 1141,-1747 -100,-91 -208,-173 -322,-246 -172,417 -601,1039 -1170,1653z"/>
  <path class="fil11" d="M4261 3190c87,97 176,191 266,283 569,-614 998,-1236 1170,-1653 -101,-65 -208,-122 -319,-172 -31,64 -66,132 -106,204 -54,94 -115,195 -185,299 -62,94 -130,191 -203,291 -82,110 -170,223 -264,337 -112,136 -232,274 -359,411z"/>
  <path class="fil11" d="M3231 1737c28,55 57,110 88,165 947,-343 1690,-145 1953,-50 40,-72 75,-140 106,-204 -301,-133 -634,-208 -984,-208 -422,0 -818,108 -1163,297z"/>
  <path class="fil11" d="M3319 1902c50,89 103,178 158,267 732,-260 1383,-93 1610,-18 70,-104 131,-205 185,-299 -263,-95 -1006,-293 -1953,50z"/>
  <path class="fil11" d="M3477 2169c60,94 122,187 188,280l0 0c587,-225 1033,-89 1219,-7 73,-100 141,-197 203,-291 -227,-75 -878,-242 -1610,18z"/>
  <path class="fil11" d="M3665 2449c75,107 154,213 236,316 274,-70 559,-24 719,14 94,-114 182,-227 264,-337 -186,-82 -632,-218 -1219,7z"/>
  <path class="fil11" d="M3901 2765c115,146 236,288 360,425 127,-137 247,-275 359,-411 -160,-38 -445,-84 -719,-14z"/>
  <path class="fil11" d="M2589 2247c249,565 620,1096 1042,1564 86,96 175,190 266,281 119,119 240,233 362,341 117,103 234,200 351,292 115,91 230,176 344,256 416,290 814,502 1138,613 99,-97 189,-202 270,-314 -266,-82 -651,-304 -1076,-623 -108,-81 -219,-169 -331,-262 -113,-94 -228,-194 -342,-299 -119,-110 -238,-225 -356,-344 -90,-92 -178,-186 -266,-282 -425,-471 -809,-996 -1070,-1531 -120,92 -232,195 -332,308z"/>
  <path class="fil11" d="M2314 2619c248,548 588,1046 973,1484 85,97 173,192 262,283 118,119 238,233 360,342 115,102 232,199 349,291 116,91 234,177 350,258 391,268 777,475 1123,610 130,-86 251,-184 361,-293 -324,-111 -722,-323 -1138,-613 -114,-80 -229,-165 -344,-256 -117,-92 -234,-189 -351,-292 -122,-108 -243,-222 -362,-341 -91,-91 -180,-185 -266,-281 -422,-468 -793,-999 -1042,-1564 -103,114 -196,239 -275,372z"/>
  <path class="fil11" d="M2095 3094l0 0c30,61 62,121 95,180 72,131 149,259 230,384l0 0c80,121 163,239 250,353 90,120 184,235 281,347 85,97 172,192 261,283 115,119 233,232 352,340 114,102 229,199 345,291 117,93 235,181 353,263 12,8 23,16 35,24 133,92 266,176 396,253l0 0c206,121 407,223 598,305 155,-62 302,-139 440,-230 -346,-135 -732,-342 -1123,-610 -116,-81 -234,-167 -350,-258 -117,-92 -234,-189 -349,-291 -122,-109 -242,-223 -360,-342 -89,-91 -177,-186 -262,-283 -385,-438 -725,-936 -973,-1484 -89,149 -163,308 -219,475z"/>
  <path class="fil11" d="M2935 5800c129,98 268,183 416,253 14,-7 29,-13 43,-20 6,-2 11,-5 17,-7 13,-7 26,-13 39,-19 17,-8 33,-16 49,-23 0,-1 1,-1 1,-1 17,-8 33,-16 49,-24 13,-7 26,-13 39,-20 6,-3 11,-5 16,-8 15,-7 28,-15 43,-22l0 0c16,-9 32,-17 48,-26l0 0c13,-7 26,-14 39,-21 3,-2 6,-3 9,-5 1,-1 3,-2 4,-2 10,-6 20,-11 29,-17 11,-5 21,-11 31,-17 10,-5 20,-11 30,-17 6,-4 13,-7 20,-11 17,-10 33,-20 50,-30 2,-1 4,-2 7,-4 0,0 1,-1 2,-1 12,-7 23,-14 35,-21 23,-14 46,-29 69,-43 1,0 1,-1 2,-1 8,-5 16,-10 24,-15 5,-4 11,-7 16,-10 12,-8 25,-16 37,-24l0 0c2,-1 3,-2 5,-3 12,-8 24,-16 36,-24 2,-1 4,-2 5,-3 7,-4 13,-8 19,-13 1,-1 3,-2 5,-3 8,-5 16,-11 24,-16 2,-1 3,-2 5,-3 7,-5 14,-10 21,-15 14,-9 29,-19 43,-29 -118,-82 -236,-170 -353,-263 -305,205 -630,385 -974,528z"/>
  <path class="fil11" d="M4693 5812c19,139 42,312 61,450 187,-28 366,-77 537,-145 -191,-82 -392,-184 -598,-305z"/>
  <path class="fil11" d="M4297 5559l29 728c22,1 45,1 68,1 122,0 242,-9 360,-26l0 0c-19,-138 -42,-311 -61,-450l0 0c-130,-77 -263,-161 -396,-253z"/>
  <path class="fil11" d="M3858 6229c151,34 307,54 468,58l-29 -728c-12,-8 -23,-16 -35,-24 -14,10 -29,20 -43,29 -7,5 -14,10 -21,15 -2,1 -3,2 -5,3 -8,5 -16,11 -24,16 -2,1 -4,2 -5,3 -6,5 -12,9 -19,13 -1,1 -3,2 -5,3 -12,8 -24,16 -36,24 -2,1 -3,2 -5,3l0 0c-12,8 -25,16 -37,24 -5,3 -11,6 -16,10 -8,5 -16,10 -24,15 -1,0 -1,1 -2,1 -23,14 -46,29 -69,43 -12,7 -23,14 -35,21 -1,0 -2,1 -2,1l-56 470z"/>
  <path class="fil11" d="M3351 6053c160,76 330,136 507,176l56 -470c-3,2 -5,3 -7,4 -17,10 -33,20 -50,30 -7,4 -14,7 -20,11 -10,6 -20,12 -30,17 -10,6 -20,12 -31,17 -9,6 -19,11 -29,17 -1,0 -3,1 -4,2 -3,2 -6,3 -9,5 -13,7 -26,14 -39,21l0 0c-16,9 -32,17 -48,26l0 0c-15,7 -28,15 -43,22 -5,3 -10,5 -16,8 -13,7 -26,13 -39,20 -16,8 -32,16 -49,24 0,0 -1,0 -1,1 -16,7 -32,15 -49,23 -13,6 -26,12 -39,19 -6,2 -11,5 -17,7 -14,7 -29,13 -43,20z"/>
  <path class="fil11" d="M2343 5157c78,124 167,240 266,347 331,-136 652,-316 955,-523 -119,-108 -237,-221 -352,-340 -282,201 -574,378 -869,516z"/>
  <path class="fil11" d="M3564 4981c-303,207 -624,387 -955,523 99,108 208,207 325,296l1 0c344,-143 669,-323 974,-528 -116,-92 -231,-189 -345,-291z"/>
  <path class="fil11" d="M2171 4833c49,113 107,221 172,324 295,-138 587,-315 869,-516 -89,-91 -176,-186 -261,-283 -86,61 -172,120 -260,177 -87,56 -175,110 -264,161l0 0c-68,39 -135,76 -203,111 -18,9 -35,17 -53,26z"/>
  <path class="fil11" d="M2691 4535c88,-57 174,-116 260,-177 -97,-112 -191,-227 -281,-347 -5,188 8,381 21,524z"/>
  <path class="fil11" d="M1970 3864c0,345 72,673 201,969 18,-9 35,-17 53,-26 -77,-195 -206,-684 -34,-1533 -33,-59 -65,-119 -95,-180 -81,242 -125,501 -125,770z"/>
  <path class="fil11" d="M2921 1939c261,535 645,1060 1070,1531 88,96 176,190 266,282 118,119 237,234 356,344 114,105 229,205 342,299 112,93 223,181 331,262 425,319 810,541 1076,623 69,-97 132,-198 187,-304 -250,-95 -582,-291 -945,-560 -20,-15 -39,-29 -59,-44 -107,-81 -216,-168 -327,-260 -113,-95 -227,-194 -340,-299 -118,-108 -236,-222 -351,-340 -90,-92 -179,-186 -266,-283 -124,-137 -245,-279 -360,-425 -82,-103 -161,-209 -236,-316l0 0c-66,-93 -128,-186 -188,-280 -55,-89 -108,-178 -158,-267 -31,-55 -60,-110 -88,-165 -109,59 -212,127 -310,202z"/>
  <path class="fil11" d="M2427 4696c89,-51 177,-105 264,-161 -13,-143 -26,-336 -21,-524 -87,-114 -170,-232 -250,-353 -30,224 -58,598 7,1038z"/>
  <path class="fil11" d="M2224 4807c68,-35 135,-72 203,-111l0 0c-65,-440 -37,-814 -7,-1038l0 0c-81,-125 -158,-253 -230,-384 -172,849 -43,1338 34,1533z"/>
  <path class="fil7" d="M1970 3864c0,345 72,672 201,969 49,113 107,221 172,324 78,124 167,240 266,347 99,108 208,207 325,296l1 0c129,97 268,182 416,253 160,76 330,136 507,176 151,34 307,54 468,58 22,1 45,1 68,1 122,0 242,-9 360,-26l0 0c187,-28 366,-77 537,-145 155,-62 302,-139 440,-230 130,-86 251,-184 361,-293 99,-97 189,-202 270,-314 69,-96 132,-198 187,-304 96,-187 169,-388 214,-599 29,-133 47,-271 53,-411 1,-34 2,-68 2,-102 0,-106 -7,-212 -20,-315 -18,-132 -45,-261 -83,-385 -39,-129 -88,-254 -147,-373 -69,-140 -152,-273 -247,-396 -20,-28 -42,-54 -63,-81 -66,-79 -138,-154 -213,-225 -9,-7 -17,-15 -26,-23 -100,-91 -208,-173 -322,-246 -2,-1 -5,-3 -7,-4 -99,-63 -204,-120 -312,-168 -301,-133 -634,-208 -984,-208 -388,0 -754,91 -1079,253 -28,14 -56,29 -84,44 -109,60 -212,127 -310,202 -120,92 -232,195 -332,308 -103,114 -196,239 -275,372 -89,149 -163,308 -219,475 -41,121 -72,246 -93,375 -21,129 -32,261 -32,395z"/>
  <path class="fil6" d="M4394 1382c-388,0 -760,87 -1105,259 -30,15 -59,30 -86,45 -111,60 -217,130 -317,207 -123,94 -238,200 -341,315 -106,118 -200,246 -281,381 -92,154 -168,317 -224,486 -42,125 -74,254 -95,384 -22,134 -33,270 -33,405 0,345 69,679 206,993 50,114 109,225 176,331 79,126 171,246 272,355 102,111 214,213 333,303 1,1 2,2 3,2 132,100 275,186 424,257 165,80 340,140 519,180 156,36 317,56 479,60 22,1 45,1 70,1 123,0 247,-9 368,-27 2,0 3,0 4,0 187,-28 371,-78 546,-148 158,-63 310,-142 451,-236 132,-87 257,-188 370,-300 101,-99 194,-207 276,-321 72,-100 136,-205 191,-312 100,-194 174,-400 220,-612 30,-139 48,-281 54,-422 1,-36 2,-70 2,-104 0,-108 -7,-216 -21,-322 -17,-134 -46,-267 -84,-395 -39,-131 -90,-259 -151,-382 -70,-142 -155,-279 -252,-406 -21,-27 -43,-55 -66,-82 -67,-81 -140,-158 -217,-230 -9,-8 -17,-16 -27,-24 -103,-93 -214,-178 -330,-252l-1 -1c-2,-1 -5,-3 -7,-4 -101,-65 -209,-122 -319,-171 -318,-141 -657,-213 -1007,-213zm0 58c350,0 683,75 984,208 108,48 213,105 312,168 2,1 5,3 7,4 114,73 222,155 322,246 9,8 17,16 26,23 75,71 147,146 213,225 21,27 43,53 63,81 95,123 178,256 247,396 59,119 108,244 147,373 38,124 65,253 83,385 13,103 20,209 20,315 0,34 -1,68 -2,102 -6,140 -24,278 -53,411 -45,211 -118,412 -214,599 -55,106 -118,208 -187,304 -81,112 -171,217 -270,314 -110,109 -231,207 -361,293 -138,91 -285,168 -440,230 -171,68 -350,117 -537,145l0 0c-118,17 -238,26 -360,26 -23,0 -46,0 -68,-1 -161,-4 -317,-24 -468,-58 -177,-40 -347,-100 -507,-176 -148,-71 -287,-156 -416,-253l-1 0c-117,-89 -226,-188 -325,-296 -99,-107 -188,-223 -266,-347 -65,-103 -123,-211 -172,-324 -129,-297 -201,-624 -201,-969 0,-134 11,-266 32,-395 21,-129 52,-254 93,-375 56,-167 130,-326 219,-475 79,-133 172,-258 275,-372 100,-113 212,-216 332,-308 98,-75 201,-142 310,-202 28,-15 56,-30 84,-44 325,-162 691,-253 1079,-253z"/>
  <path class="fil12" d="M3267 1718l0 0c2,-2 5,-3 7,-4 14,-7 27,-14 41,-21 -16,8 -32,16 -48,25z"/>
  <path class="fil13" d="M4960 1507c-5,-2 -11,-3 -17,-4 -177,-41 -360,-63 -549,-63l0 0c193,0 381,23 561,66 2,0 4,0 5,1z"/>
  <path class="fil12" d="M5299 1615c-115,-46 -234,-84 -356,-112 6,1 12,2 17,4 88,21 174,46 257,77 28,10 55,20 82,31z"/>
  <path class="fil14" d="M2209 2922c-1,0 -3,0 -4,-1 31,-72 66,-144 105,-213 2,5 4,9 7,14 -39,65 -75,131 -108,200zm159 -283c0,0 0,0 0,-1 0,0 0,0 -1,0 0,-1 0,-2 -1,-3 0,0 0,0 0,0 0,-1 -1,-2 -1,-3 0,0 0,0 0,0 -1,-1 -1,-2 -1,-3 0,0 -1,0 -1,0 -1,-2 -2,-5 -3,-7 64,-106 137,-206 217,-300 5,9 9,18 13,28 -81,91 -155,187 -222,289zm283 -354c-5,-10 -10,-20 -14,-31 83,-90 174,-175 270,-252 6,13 12,25 18,37 0,0 0,0 0,0 -97,75 -189,157 -274,246zm341 -295c-6,-13 -13,-26 -19,-39 77,-57 158,-110 241,-158 7,15 15,29 23,44 -1,0 -1,0 -2,0 -84,47 -165,98 -243,153zm317 -191c-14,-27 -28,-54 -42,-81l0 0c16,-9 32,-17 48,-25l0 0c325,-162 691,-253 1079,-253 189,0 372,22 549,63 122,28 241,66 356,112 14,5 27,11 41,17 -13,26 -26,54 -41,82 -278,-112 -582,-173 -901,-173 -387,0 -754,91 -1079,253 -3,1 -6,3 -10,5z"/>
  <path class="fil13" d="M6798 3553c0,0 0,0 0,0 0,0 0,0 0,0zm0 -1c0,-1 0,-2 0,-3 -4,-28 -8,-55 -13,-83 2,13 4,25 6,37 2,15 5,31 7,46 0,1 0,2 0,3z"/>
  <path class="fil12" d="M6549 2753c-37,-71 -78,-141 -121,-208 38,58 73,118 106,180 5,9 10,19 15,28z"/>
  <path class="fil14" d="M6817 3803c-4,-52 -9,-103 -15,-153 -17,-132 -45,-261 -83,-386 -38,-129 -88,-253 -147,-372 -69,-141 -152,-274 -246,-397 -1,-1 -1,-1 -2,-2 9,-20 18,-40 26,-60 27,36 53,74 78,112 43,67 84,137 121,208 6,13 13,26 19,38 29,60 57,121 81,183 25,62 47,125 66,190 9,30 18,60 25,90 18,70 34,141 45,212 5,28 9,55 13,83 0,1 0,2 0,3 0,0 0,0 0,1 0,0 0,0 0,0 11,82 17,166 19,250zm-551 -1383c-1,-2 -3,-3 -4,-5 -66,-80 -137,-155 -213,-225 -8,-8 -17,-16 -25,-23 0,-1 -1,-1 -1,-1 4,-10 8,-20 12,-29 87,82 167,170 240,264 -3,6 -6,13 -9,19zm-308 -311c-81,-68 -167,-131 -257,-188 -1,-1 -1,-2 -2,-2 5,-13 11,-26 17,-38 89,60 174,125 255,197 -4,10 -9,21 -13,31zm-330 -233c-79,-47 -161,-90 -246,-127 -2,-1 -5,-2 -7,-3 8,-15 15,-30 22,-44 85,40 169,85 249,134 -6,13 -12,26 -18,40z"/>
  <path class="fil15" d="M6791 3503c-2,-12 -4,-24 -6,-37 -11,-71 -27,-142 -45,-212 21,82 39,165 51,249zm-142 -529c-24,-62 -52,-123 -81,-183 -6,-12 -13,-25 -19,-38 -5,-9 -10,-19 -15,-28 12,22 23,44 34,66 29,60 57,121 81,183zm-3382 -1256l0 0c2,-2 5,-3 7,-4 -2,1 -5,2 -7,4zm1950 -134c-83,-31 -169,-56 -257,-77 -1,-1 -3,-1 -5,-1 90,21 177,47 262,78z"/>
  <path class="fil9" d="M2206 3889c0,311 65,606 182,874 44,102 96,199 155,292 71,112 151,217 240,313 89,98 188,187 294,267l0 0c117,89 242,165 375,229 145,69 298,122 458,158 137,31 278,49 423,53 20,1 40,1 61,1 110,0 219,-8 325,-24l0 0c168,-25 331,-69 484,-131 140,-55 273,-125 397,-207 118,-78 227,-166 327,-264 88,-88 170,-183 243,-284 62,-87 119,-179 168,-275 87,-168 153,-349 194,-539 26,-121 42,-245 47,-372 2,-30 2,-61 2,-91 0,-97 -6,-192 -18,-285 -7,-54 -16,-108 -27,-162 -1,6 -3,12 -4,17 -41,191 -107,372 -194,540 -49,96 -106,188 -168,275 -73,101 -155,196 -243,283 -100,98 -209,186 -327,264 -124,82 -257,152 -397,208 -153,61 -316,106 -484,131l0 0c-106,15 -215,24 -325,24 -21,0 -41,-1 -61,-1 -145,-4 -286,-22 -423,-53 -160,-36 -313,-90 -458,-159 -133,-63 -258,-140 -375,-228l0 0c-106,-80 -205,-170 -294,-267 -89,-97 -169,-202 -240,-313 -59,-93 -111,-191 -155,-292 -59,-136 -105,-280 -136,-428 -30,144 -46,293 -46,446z"/>
  <path class="fil6" d="M5277 4107c87,73 175,143 262,209 6,-6 11,-12 16,-19l3 -3c14,-16 27,-32 40,-48 49,-58 98,-119 145,-179l27 -35c7,-9 13,-18 20,-27 11,-14 22,-29 33,-43 9,-11 17,-22 25,-33 4,-6 7,-10 11,-15 5,-7 10,-13 14,-20l7 -8c6,-9 13,-18 19,-27l7 -10c4,-5 7,-10 11,-15 5,-6 9,-13 13,-19 9,-12 17,-23 25,-35 2,-2 4,-5 5,-7 10,-15 20,-28 29,-42 1,-2 2,-3 3,-4l1 -1c10,-15 20,-30 30,-45 11,-16 22,-32 33,-48 24,-36 44,-68 63,-97l26 -41c21,-34 42,-68 63,-102 9,-15 17,-30 26,-44 10,-17 20,-34 30,-51 52,-90 101,-180 145,-266 5,-11 11,-22 16,-33l3 -5c4,-9 9,-18 13,-27 29,-59 57,-118 82,-175 -56,-110 -120,-215 -192,-316 -232,538 -604,1113 -1054,1631zm274 321l-30 -23c-109,-82 -219,-170 -329,-262l-32 -27 27 -31c476,-542 866,-1147 1097,-1706l27 -66 43 57c96,125 181,261 251,403l8 17 -7 18c-28,63 -59,129 -91,195 -5,9 -9,18 -14,27l-3 6c-5,11 -11,22 -16,33 -45,88 -95,179 -147,270 -10,17 -20,34 -30,51 -9,15 -18,30 -27,45 -21,34 -42,69 -64,104l-26 41c-19,29 -40,61 -64,98 -11,16 -22,33 -33,49 -10,15 -20,30 -31,45 -1,2 -2,4 -3,6 -10,13 -20,27 -29,41 -2,3 -4,6 -6,9 -8,11 -16,23 -25,35 -4,6 -9,12 -14,19 -3,5 -7,10 -10,15l-7 10c-7,9 -14,18 -20,27l-7 9c-4,6 -9,13 -14,20 -4,4 -8,9 -11,15 -8,10 -17,22 -25,33 -11,15 -22,29 -34,44 -6,9 -13,18 -20,27l-28 36c-47,60 -96,121 -146,180 -13,17 -27,33 -40,49l-3 3c-14,16 -28,33 -42,49l-25 29z"/>
  <path class="fil6" d="M5752 4473c293,207 563,364 777,451 79,-158 139,-325 181,-496 -397,64 -723,64 -958,45zm816 554l-34 -13c-254,-97 -593,-298 -955,-566l-127 -94 157 21c241,32 636,52 1147,-38l60 -10 -13 59c-45,211 -119,416 -218,608l-17 33z"/>
  <path class="fil6" d="M5619 4376c238,31 619,49 1110,-34 22,-107 36,-217 43,-327 -429,78 -763,107 -976,117 -44,56 -89,112 -135,166 -13,17 -27,33 -40,49l-3 3c-4,5 -9,10 -13,15 5,4 10,8 14,11zm418 108c-177,0 -325,-13 -439,-28l-10 -1 -9 -6c-17,-13 -34,-26 -51,-39l-42 -32 28 -33c14,-16 28,-32 41,-48l3 -3c14,-16 27,-32 40,-48 49,-58 98,-119 145,-179l11 -15 19 0c217,-10 574,-40 1035,-127l51 -9 -2 51c-6,141 -24,282 -54,419l-5 27 -28 5c-280,49 -527,66 -733,66z"/>
  <path class="fil6" d="M6060 3772c-1,2 -2,4 -3,6 -10,13 -20,27 -29,41 -2,3 -4,6 -6,9 -8,11 -16,23 -25,35 -4,6 -9,12 -14,19 -3,5 -7,10 -10,15l-7 10c-7,9 -14,18 -20,27l-7 9c-4,6 -9,13 -14,20 -4,4 -8,9 -11,15 -8,10 -17,22 -25,33 -9,12 -18,24 -27,36 214,-13 525,-44 914,-116 1,-22 1,-45 1,-67 0,-87 -5,-174 -14,-261 -157,50 -391,109 -682,140 -7,10 -14,19 -21,29zm-372 365l82 -105c7,-9 13,-18 20,-27 11,-14 22,-29 33,-43 9,-11 17,-22 25,-33 4,-6 7,-10 11,-15 5,-7 10,-13 14,-20l7 -8c6,-9 13,-18 19,-27l7 -10c4,-5 7,-10 11,-15 5,-6 9,-13 13,-19 9,-12 17,-23 25,-35 2,-2 4,-5 5,-7 10,-15 20,-28 29,-42 1,-2 2,-3 3,-4l1 -1c10,-15 20,-30 30,-45l11 -16 19 -2c325,-33 577,-101 732,-153l47 -15 6 49c14,106 21,213 21,320 0,34 -1,68 -2,103l-2 33 -32 6c-466,87 -826,118 -1046,127l-89 4z"/>
  <path class="fil6" d="M6326 3353c-7,12 -14,25 -21,37 -9,15 -18,30 -27,45 -21,34 -42,69 -64,104l-26 41c-14,22 -30,47 -48,73 262,-32 471,-87 612,-132 -14,-101 -35,-202 -63,-300 -101,46 -222,90 -363,132zm-352 401l49 -73c11,-16 22,-32 33,-48 24,-36 44,-68 63,-97l26 -41c21,-34 42,-68 63,-102 9,-15 17,-30 26,-44 10,-17 20,-34 30,-51l8 -14 16 -5c163,-48 301,-99 409,-152l43 -21 14 46c39,128 67,259 84,392l4 33 -32 11c-158,53 -416,123 -749,157l-87 9z"/>
  <path class="fil6" d="M6569 2889c-17,38 -36,76 -54,114 -5,9 -9,18 -14,27l-3 6c-5,11 -11,22 -16,33 -30,59 -63,119 -96,180 106,-35 200,-70 279,-107 -27,-86 -59,-170 -96,-253zm-357 498l52 -89c52,-90 101,-180 145,-266 5,-11 11,-22 16,-33l3 -5c4,-9 9,-18 13,-27 32,-65 62,-130 89,-192l36 -81 39 79c60,122 110,249 149,379l10 34 -31 15c-112,54 -254,107 -422,157l-99 29z"/>
  <path class="fil6" d="M4935 3810c91,83 185,165 279,245 458,-527 833,-1112 1061,-1654 -73,-94 -153,-182 -240,-264 -211,511 -608,1116 -1100,1673zm288 359l-31 -26c-115,-96 -230,-197 -342,-300l-30 -27 27 -30c516,-579 929,-1211 1134,-1735l22 -55 44 40c112,101 216,214 307,334l14 18 -9 22c-234,567 -628,1181 -1110,1729l-26 30z"/>
  <path class="fil6" d="M4583 3472c95,96 193,191 292,282 494,-560 891,-1167 1096,-1676 -81,-72 -166,-137 -255,-197 -190,430 -618,1032 -1133,1591zm297 399l-30 -28c-120,-110 -238,-225 -353,-341l-27 -28 27 -29c539,-581 984,-1209 1162,-1641l19 -45 41 27c116,73 226,157 328,250l21 19 -10 26c-209,532 -628,1173 -1150,1759l-28 31z"/>
  <path class="fil6" d="M4316 3191c67,74 138,148 210,223 513,-558 937,-1156 1120,-1578 -80,-49 -164,-94 -249,-134 -26,53 -56,110 -90,170 -54,96 -116,197 -186,302 -62,95 -131,193 -204,292 -83,111 -172,226 -266,340 -105,128 -218,257 -335,385zm211 341l-30 -30c-92,-95 -182,-190 -267,-284l-25 -28 26 -27c125,-136 245,-273 357,-410 93,-112 181,-225 263,-336 72,-97 140,-195 202,-288 68,-103 130,-203 183,-297 40,-72 75,-139 105,-201l17 -36 36 16c112,50 222,108 325,175l29 18 -13 32c-182,439 -633,1077 -1178,1665l-30 31z"/>
  <path class="fil6" d="M3286 1754c17,33 34,65 52,98 903,-317 1617,-151 1915,-50 25,-47 48,-91 69,-133 -294,-125 -606,-188 -928,-188 -386,0 -769,94 -1108,273zm14 198l-17 -30c-30,-55 -60,-111 -89,-166l-18 -36 35 -19c361,-197 769,-302 1183,-302 348,0 685,71 1000,212l38 17 -17 38c-31,63 -67,133 -108,206l-17 30 -32 -12c-270,-97 -996,-286 -1925,50l-33 12z"/>
  <path class="fil6" d="M3378 1924c37,65 76,130 117,195 695,-237 1312,-99 1575,-16 52,-79 99,-155 141,-229 -294,-97 -974,-247 -1833,50zm82 294l-17 -28c-57,-89 -110,-179 -160,-268l-23 -42 45 -17c954,-345 1703,-150 1980,-50l46 17 -24 42c-54,96 -116,197 -186,302l-17 26 -30 -10c-238,-79 -870,-236 -1583,17l-31 11z"/>
  <path class="fil6" d="M3540 2190c44,69 91,139 140,209 563,-205 1000,-85 1190,-8 54,-73 105,-146 153,-217 -263,-80 -837,-198 -1483,16zm1357 302l-30 -13c-163,-72 -605,-215 -1188,8l-7 3 -29 0 -12 -18c-67,-94 -130,-189 -188,-282l-28 -43 49 -17c736,-262 1390,-99 1636,-17l51 16 -30 45c-62,95 -131,193 -204,292l-20 26z"/>
  <path class="fil6" d="M4209 2688c157,0 299,24 395,46 75,-92 147,-184 215,-275 -186,-71 -581,-169 -1090,10 60,83 123,167 188,250 98,-22 198,-31 292,-31zm426 137l-25 -6c-146,-35 -430,-83 -699,-14l-25 7 -17 -21c-83,-106 -163,-213 -238,-319l-30 -43 49 -18c611,-234 1078,-83 1250,-7l47 21 -30 41c-83,111 -172,226 -266,340l-16 19z"/>
  <path class="fil6" d="M3974 2791c91,113 187,227 287,338 98,-107 194,-216 284,-324 -142,-29 -357,-55 -571,-14zm286 460l-30 -33c-126,-140 -248,-284 -361,-427l-39 -50 61 -15c286,-74 585,-23 738,14l64 15 -42 50c-113,138 -234,277 -360,413l-31 33z"/>
  <path class="fil6" d="M2637 2254c232,518 576,1033 1024,1529 84,94 173,188 265,280 116,116 237,230 361,339 113,100 230,198 348,291 114,90 229,175 342,254 393,274 784,486 1105,600 76,-77 148,-160 213,-246 -269,-95 -633,-310 -1034,-611 -109,-83 -221,-171 -332,-263 -115,-96 -231,-197 -344,-301 -123,-113 -243,-229 -357,-345 -92,-94 -182,-190 -267,-284 -455,-503 -810,-1006 -1054,-1495 -96,77 -187,162 -270,252zm3466 3387l-24 -8c-332,-114 -740,-334 -1148,-619 -115,-80 -232,-166 -347,-256 -119,-94 -237,-193 -352,-294 -125,-111 -247,-226 -364,-343 -93,-93 -183,-188 -268,-283 -460,-511 -813,-1041 -1049,-1575l-10 -24 17 -20c103,-114 216,-219 338,-313l40 -30 22 45c242,496 600,1008 1064,1521 84,94 173,188 265,281 113,116 232,231 353,342 113,103 227,204 342,299 109,91 220,179 328,260 415,312 803,537 1064,617l54 16 -33 47c-82,113 -174,221 -274,319l-18 18z"/>
  <path class="fil6" d="M2360 2622c232,506 554,995 957,1454 83,94 171,189 262,281 114,117 235,231 357,340 112,100 229,197 347,290 114,89 231,175 349,256 368,254 746,460 1094,598 102,-69 199,-147 290,-231 -320,-119 -703,-328 -1085,-596 -115,-80 -232,-166 -347,-256 -119,-94 -237,-193 -352,-294 -125,-111 -247,-226 -364,-343 -93,-93 -183,-188 -268,-283 -444,-492 -787,-1002 -1023,-1516 -80,94 -153,194 -217,300zm3376 3310l-20 -7c-359,-140 -750,-352 -1131,-615 -119,-82 -237,-169 -352,-259 -120,-93 -238,-192 -352,-293 -123,-110 -245,-225 -361,-343 -91,-94 -180,-189 -264,-285 -414,-471 -743,-973 -979,-1494l-9 -20 11 -18c80,-134 174,-262 279,-379l43 -47 25 58c232,526 580,1049 1035,1553 84,94 173,188 265,280 116,116 237,230 361,339 113,100 230,198 348,291 114,90 229,175 342,254 403,281 803,497 1129,608l62 22 -47 46c-113,111 -236,211 -368,298l-17 11z"/>
  <path class="fil6" d="M4734 5789c190,110 377,205 557,284 122,-50 239,-109 351,-178 -338,-139 -702,-340 -1057,-585 -119,-82 -237,-169 -352,-259 -120,-93 -238,-192 -352,-293 -123,-110 -245,-225 -361,-343 -91,-94 -180,-189 -264,-285 -395,-449 -713,-927 -946,-1422 -68,122 -126,251 -171,383 27,54 56,109 87,164 70,128 147,256 229,380l6 11c75,114 156,229 241,341 88,115 182,231 280,344 83,96 170,190 259,282 112,115 230,228 351,337 110,100 226,197 342,290 114,91 233,178 351,261l8 6c9,6 18,12 27,18 131,90 263,175 394,252l20 12zm556 372l-15 -6c-195,-84 -398,-187 -602,-308l-21 -12c-126,-74 -253,-156 -378,-242 -9,-6 -19,-13 -28,-19l-8 -6c-120,-83 -239,-172 -355,-264 -117,-94 -234,-192 -346,-293 -122,-110 -242,-225 -355,-341 -89,-93 -178,-189 -262,-285 -99,-115 -194,-232 -283,-349 -88,-117 -173,-236 -251,-356l-7 -10c-80,-123 -156,-250 -225,-376 -34,-61 -66,-122 -96,-182l-4 -8 0 -17 2 -6c56,-168 131,-331 223,-483l40 -67 32 71c233,513 558,1009 966,1474 83,94 171,189 262,281 114,117 235,231 357,340 112,100 229,197 347,290 114,89 231,175 349,256 375,259 761,468 1114,605l73 29 -66 44c-140,93 -291,172 -447,234l-16 6z"/>
  <path class="fil16" d="M4700 5937c12,92 25,191 38,280l1 10c119,-20 237,-50 351,-90 -128,-58 -258,-125 -390,-200zm-31 383l-13 -92c-15,-116 -34,-251 -49,-363l-11 -83 73 42c186,109 369,203 545,279l91 39 -92 36c-161,65 -331,111 -503,136l-41 6z"/>
  <path class="fil16" d="M4365 6247c9,0 19,0 29,0 105,0 210,-7 314,-20l-1 -5c-16,-122 -36,-264 -52,-385 -104,-62 -209,-128 -314,-198l24 608zm29 82c-25,0 -48,0 -69,-1l-38 -1 -34 -848 67 46c131,90 263,175 394,252l20 12 0 20c17,124 37,274 54,402l7 51 0 35 -35 5c-121,18 -244,27 -366,27z"/>
  <path class="fil16" d="M3903 6197c124,26 252,42 380,48l-26 -657c-5,3 -10,7 -15,10 -7,5 -14,10 -21,14 -2,2 -4,3 -6,4 -7,5 -15,11 -24,16l-5 4c-5,4 -12,8 -18,12 -2,1 -3,2 -5,3 -8,5 -15,10 -23,15l0 19 -29 0c-9,5 -18,11 -27,17 -5,4 -10,7 -16,10 -8,5 -16,11 -24,16l-1 0c-24,15 -47,29 -71,44 -7,4 -13,8 -20,12l-49 413zm466 132l-44 -1c-161,-4 -321,-24 -476,-59l-36 -8 62 -527 18 -10c1,-1 2,-1 3,-2 11,-7 23,-14 34,-20 23,-14 46,-28 68,-43l3 -1c7,-5 15,-10 23,-15 5,-3 11,-6 16,-10 6,-4 12,-8 18,-12l0 0 20 -12c0,0 0,0 1,-1l1 -1 1 0 1 -1c0,0 1,-1 2,-1l3 -2c10,-7 20,-13 30,-20 2,-1 4,-2 6,-4 6,-4 12,-7 18,-11l5 -4c8,-5 16,-11 24,-16 2,-1 3,-2 4,-3l1 -1c7,-4 14,-9 21,-13 14,-10 28,-20 42,-30l24 -16 31 22c9,6 18,12 27,18l17 12 32 792z"/>
  <path class="fil16" d="M3449 6053c121,52 246,94 374,125l40 -342c-2,2 -4,3 -6,4 -10,6 -20,11 -30,17l-6 3c-8,5 -16,9 -25,14l-43 24c-11,6 -22,12 -33,18l-8 8 -7 0c-12,7 -25,14 -38,20l-8 6 -2 0c-11,6 -23,11 -34,17l-16 8c-13,7 -26,14 -40,20 -16,9 -32,17 -49,25l-1 0c-16,8 -33,16 -49,24 -6,3 -13,6 -19,9zm444 226l-44 -10c-178,-40 -352,-101 -516,-179l-80 -38 81 -36c14,-7 29,-13 43,-20l28 -13c9,-4 18,-9 28,-13 16,-8 31,-15 47,-23 1,0 2,-1 3,-1 16,-8 32,-16 48,-24 13,-6 26,-13 39,-20l16 -8c14,-7 28,-14 42,-21l9 -5c11,-6 22,-12 33,-18l0 0 6 -3c2,-1 4,-3 7,-4l1 -1c10,-5 20,-10 30,-16l42 -23c9,-5 17,-10 25,-14l6 -3c9,-6 19,-11 29,-17 7,-4 14,-8 20,-12 17,-9 33,-19 50,-29l2 -1c0,0 1,-1 2,-2l74 -43 -71 597z"/>
  <path class="fil6" d="M2403 5174c65,99 137,193 217,281 292,-122 587,-283 878,-479 -100,-91 -198,-186 -291,-281 -272,192 -543,353 -804,479zm195 379l-20 -21c-100,-109 -191,-228 -270,-353l-24 -39 42 -20c279,-131 569,-304 862,-512l29 -20 24 25c112,115 230,228 351,337l38 35 -43 29c-318,219 -642,396 -963,528l-26 11z"/>
  <path class="fil16" d="M2679 5519c81,84 169,163 261,234 305,-128 607,-291 900,-484 -95,-76 -188,-156 -279,-236 -292,197 -589,361 -882,486zm264 322l-22 0 -11 -9c-119,-89 -231,-190 -332,-300l-39 -44 54 -22c315,-129 634,-304 948,-519l27 -18 24 21c110,100 226,197 342,290l44 35 -46 31c-318,214 -649,393 -982,532l-7 3z"/>
  <path class="fil6" d="M2225 4852c39,87 84,171 133,252 258,-123 523,-280 791,-469 -70,-72 -138,-147 -204,-222 -78,55 -156,107 -231,156 -82,53 -165,104 -246,151l0 0 -21 12c-69,40 -138,77 -204,111 -6,3 -12,6 -18,9zm103 357l-20 -30c-66,-105 -125,-216 -174,-329l-16 -36 35 -17c17,-9 35,-18 52,-27 61,-31 123,-65 187,-101l14 -8c87,-50 175,-104 263,-161 85,-54 172,-114 258,-176l31 -21 24 28c83,96 170,190 259,282l33 34 -38 28c-297,211 -592,386 -876,519l-32 15z"/>
  <path class="fil16" d="M2710 4131c2,120 9,237 16,332 55,-36 110,-74 165,-113 -62,-72 -123,-146 -181,-219zm-53 475l-6 -68c-13,-133 -27,-333 -22,-528l2 -117 71 94c88,115 182,231 280,344l30 34 -37 26c-88,63 -176,123 -261,178l-57 37z"/>
  <path class="fil6" d="M2104 3202c-62,214 -93,437 -93,662 0,225 31,445 91,657 -50,-271 -68,-677 45,-1240 -15,-27 -29,-53 -43,-79zm47 1687l-17 -39c-136,-312 -205,-643 -205,-986 0,-268 43,-531 127,-783l31 -93 44 88c30,58 62,119 95,179l7 13 -3 14c-173,853 -35,1340 32,1509l14 35 -33 17c-18,9 -36,18 -53,27l-39 19z"/>
  <path class="fil16" d="M3028 5899c-28,0 -51,-22 -51,-51 0,-28 23,-51 51,-51l0 0c29,0 52,23 52,51 0,29 -23,51 -52,51z"/>
  <path class="fil6" d="M2973 1951c241,487 594,988 1049,1491 84,94 173,188 265,281 113,116 232,231 353,342 113,103 227,204 342,299 109,91 220,179 328,260 400,301 775,521 1036,608 53,-76 101,-154 145,-235 -249,-102 -570,-296 -912,-549 -17,-12 -34,-25 -51,-38l-7 -5c-109,-82 -219,-170 -329,-262 -115,-96 -230,-197 -342,-300 -120,-110 -238,-225 -353,-341 -92,-95 -182,-190 -267,-284 -126,-140 -248,-284 -361,-427 -78,-100 -154,-201 -226,-301l0 0 -12 -18c-67,-94 -130,-189 -188,-282 -57,-89 -110,-179 -160,-268 -23,-43 -47,-86 -69,-129 -83,48 -164,101 -241,158zm3405 3377l-28 -9c-274,-84 -661,-308 -1089,-629 -109,-83 -221,-171 -332,-263 -115,-96 -231,-197 -344,-301 -123,-113 -243,-229 -357,-345 -92,-94 -182,-190 -267,-284 -469,-519 -832,-1037 -1077,-1540l-14 -30 26 -20c99,-77 205,-146 315,-206l37 -20 19 37c28,55 58,110 88,164 48,87 101,177 157,265 55,87 114,176 177,265l9 13c74,105 153,211 235,315 112,142 233,284 358,423 84,93 173,188 265,281 113,116 231,230 349,339 111,102 225,202 339,297 109,91 219,178 326,259l7 6c17,13 34,25 51,38 356,263 688,460 935,554l43 17 -21 40c-55,107 -119,211 -190,310l-17 24z"/>
  <path class="fil16" d="M3028 5899c-28,0 -51,-22 -51,-51 0,-28 23,-51 51,-51l0 0c29,0 52,23 52,51 0,29 -23,51 -52,51z"/>
  <path class="fil16" d="M2448 3773c-23,217 -33,516 11,857 63,-37 126,-76 189,-116 -11,-130 -23,-311 -20,-489 -62,-83 -123,-168 -180,-252zm-53 988l-9 -59c-64,-438 -39,-813 -6,-1050l15 -108 60 91c77,118 160,236 247,352l9 11 0 14c-5,191 9,387 21,519l2 24 -20 14c-89,58 -179,112 -267,163l-52 29z"/>
  <path class="fil6" d="M3017 5809c106,75 218,142 334,199 9,-4 17,-8 26,-12l28 -13c9,-4 18,-9 28,-13 16,-8 31,-15 47,-23 1,0 2,-1 3,-1 16,-8 32,-16 48,-24 13,-6 26,-13 39,-20l16 -8c14,-7 28,-14 42,-21l9 -5c11,-6 22,-12 33,-18l0 0 6 -3c2,-1 4,-3 7,-4l1 -1c10,-5 20,-10 30,-16l42 -23c9,-5 17,-10 25,-14l6 -3c9,-6 19,-11 29,-17 7,-4 14,-8 20,-12 17,-9 33,-19 50,-29l2 -1c0,0 1,-1 2,-2l3 -1c1,-1 2,-1 3,-2 11,-7 23,-14 34,-20 23,-14 46,-28 68,-43l2 -1c8,-5 16,-10 24,-15 5,-3 11,-6 16,-10 6,-4 12,-8 18,-12l0 0 20 -12c0,0 0,0 1,-1l1 -1 1 0 1 -1c0,0 1,-1 2,-1l3 -2c10,-7 20,-13 30,-20 2,-1 4,-2 6,-4 6,-4 12,-7 18,-11l5 -4c8,-5 16,-11 24,-16 2,-1 3,-2 4,-3l1 -1c5,-3 10,-6 15,-10 -96,-68 -191,-139 -283,-211 -289,192 -588,356 -890,486zm333 289l-17 -8c-149,-71 -291,-158 -423,-258l-57 -43 66 -27c328,-136 653,-313 967,-524l25 -17 23 19c114,91 233,178 351,261l49 34 -49 34c-14,9 -29,19 -43,29 -7,5 -14,10 -21,14 -2,2 -4,3 -6,4 -7,5 -15,11 -24,16l-5 4c-5,4 -12,8 -18,12 -2,1 -3,2 -5,3 -8,5 -15,10 -23,15l0 19 -29 0c-9,5 -18,11 -27,17 -5,4 -10,7 -16,10 -8,5 -16,11 -24,16l-1 0c-24,15 -47,29 -71,44 -11,7 -23,14 -35,21l-5 3c-1,1 -3,2 -5,3 -16,10 -33,20 -50,29 -6,4 -13,8 -20,12 -10,6 -20,11 -30,17l-6 3c-8,5 -16,9 -25,14l-43 24c-11,6 -22,12 -33,18l-8 8 -7 0c-12,7 -25,14 -38,20l-8 6 -2 0c-11,6 -23,11 -34,17l-16 8c-13,7 -26,14 -40,20 -16,9 -32,17 -49,25l-1 0c-16,8 -33,16 -49,24 -9,4 -19,9 -28,13l-28 13c-15,7 -30,14 -45,20l-17 8z"/>
  <path class="fil6" d="M2209 3392c-129,725 -29,1166 37,1357 45,-24 90,-49 136,-75 -58,-417 -35,-774 -4,-1007 -59,-90 -116,-182 -169,-275zm-7 1472l-16 -42c-87,-219 -207,-713 -36,-1556l22 -109 54 98c70,128 147,256 229,380l6 10 0 18c-32,232 -57,599 6,1027l1 6 0 24 -21 12c-69,40 -138,77 -204,111l-41 21z"/>
  <path class="fil14" d="M3158 2870c-63,-109 -114,-223 -144,-337 -5,-19 11,-33 26,-33 9,0 17,4 22,12 50,79 123,191 211,319 -8,3 -16,5 -24,8 -27,9 -54,18 -81,28 -3,1 -7,2 -10,3z"/>
  <path class="fil14" d="M2733 3083c-6,-4 -12,-7 -18,-10 -22,-53 -40,-106 -54,-159 -5,-19 10,-33 26,-33 8,0 16,4 22,13 25,40 56,88 93,143 -24,14 -47,30 -69,46z"/>
  <path class="fil14" d="M5461 3494c-13,0 -25,-16 -15,-30 197,-276 450,-724 577,-954 3,-7 9,-10 15,-10 12,0 23,10 18,24 -161,504 -424,814 -582,964 -4,4 -8,6 -13,6z"/>
  <path class="fil14" d="M5108 3162c-14,0 -25,-16 -15,-30 204,-272 467,-713 600,-940 3,-7 9,-10 15,-10 12,0 23,11 18,25 -174,500 -445,803 -606,950 -4,3 -8,5 -12,5z"/>
  <path class="fil2" d="M4444 6782c-471,184 -286,915 -703,943 -109,7 -510,25 -588,-100 -26,-42 -39,-97 -19,-149 19,-50 67,-97 161,-128 -82,-392 12,-691 179,-899 75,-94 166,-169 261,-227l709 560z"/>
  <path class="fil3" d="M3585 7690c-188,0 -359,-25 -397,-86 -9,-16 -29,-54 -21,-96 13,8 28,15 47,18 4,1 9,1 14,1 27,0 53,-14 107,-63 0,66 39,90 70,100 18,5 33,8 48,8 40,0 74,-21 136,-63 8,27 28,52 58,52 4,0 8,-1 12,-1 100,-21 181,-72 227,-171 44,-95 65,-200 75,-285 11,-89 -32,-177 -108,-223 -114,-69 -280,-197 -362,-387 11,-14 23,-28 34,-42 87,124 204,229 364,332 88,56 199,97 323,121 -92,115 -138,262 -180,398 -71,229 -123,370 -294,381 -51,4 -103,6 -153,6z"/>
  <path class="fil6" d="M3583 7772c-176,0 -400,-22 -464,-125 -36,-58 -45,-125 -24,-183 15,-43 55,-101 153,-142 -48,-259 -25,-494 70,-699 83,-179 220,-330 396,-436 19,-11 45,-5 56,14 12,20 6,45 -14,56 -173,104 -560,417 -421,1082l8 36 -35 12c-73,24 -120,60 -136,105 -18,49 5,94 16,112 49,77 311,96 550,80 171,-11 223,-152 294,-381 67,-215 142,-459 398,-559 21,-8 44,2 53,23 8,21 -3,45 -24,53 -218,86 -284,300 -349,507 -64,208 -131,423 -367,439 -41,3 -97,6 -160,6z"/>
  <path class="fil2" d="M4048 5142l-42 503 -20 249 -3 34c-157,39 -304,40 -432,24 -64,-8 -124,-21 -178,-35 -172,-47 -279,-113 -279,-113 0,0 -59,45 -169,64 -351,58 -479,-356 -409,-439 44,-54 94,-25 94,-25 0,0 -9,-125 59,-247 4,-8 9,-16 14,-24 52,-80 139,-154 285,-188 119,-27 254,-25 386,-8 24,3 47,7 71,11 327,57 623,194 623,194z"/>
  <path class="fil6" d="M3088 5758c8,0 15,2 22,6 2,1 181,109 441,142 132,17 263,11 388,-16l1 -5 59 -723c-78,-34 -324,-133 -586,-179 -173,-30 -321,-31 -441,-3 -126,29 -218,93 -273,192 -60,109 -53,222 -53,223 1,16 -6,31 -19,39 -14,8 -29,8 -42,0 -6,-3 -24,-8 -43,16 -17,19 -14,114 41,209 42,74 142,194 330,163 97,-16 150,-56 150,-56 8,-6 17,-8 25,-8zm611 240c-52,0 -105,-4 -158,-11 -226,-28 -393,-109 -451,-141 -29,17 -85,44 -164,57 -173,29 -324,-45 -414,-203 -66,-116 -81,-246 -33,-303 27,-33 58,-45 86,-47 3,-51 17,-135 63,-218 66,-120 176,-198 326,-232 130,-30 289,-29 473,3 328,56 620,191 633,196 15,8 25,24 23,41l-65 786c-1,18 -14,32 -31,37 -93,23 -190,35 -288,35z"/>
  <path class="fil2" d="M5330 6585c-320,338 -1052,401 -1413,170 -337,-217 -478,-442 -544,-838 -17,-103 -29,-217 -38,-345 -4,-55 -8,-113 -11,-174 -9,-181 3,-333 30,-461 184,-869 1095,-593 1174,-93 19,122 72,220 145,304 42,49 90,93 142,135 160,129 352,233 482,379 51,57 92,120 119,194 91,254 75,560 -86,729z"/>
  <path class="fil4" d="M4437 5942c-250,-184 -573,-172 -721,29 -148,200 -66,513 184,697 250,185 573,172 721,-28 148,-201 66,-513 -184,-698z"/>
  <path class="fil3" d="M4470 6846c-211,0 -404,-46 -536,-131 -100,-64 -183,-129 -250,-199 21,15 44,30 67,45 22,14 45,27 70,39 24,24 51,47 79,68 119,88 253,131 378,131 121,0 233,-41 311,-121 72,-8 143,-19 210,-32 0,0 0,0 0,0l0 0c0,0 0,0 0,0l-125 186c-15,2 -30,4 -45,6 -54,5 -107,8 -159,8z"/>
  <path class="fil17" d="M4278 6799c-125,0 -259,-43 -378,-131 -28,-21 -55,-44 -79,-68 142,67 323,93 509,93 86,0 174,-6 259,-15 -78,80 -190,121 -311,121z"/>
  <path class="fil6" d="M3924 4411c-18,0 -36,0 -53,2 -349,36 -540,402 -511,977 38,742 126,1038 574,1325 165,106 425,152 695,123 280,-31 523,-135 666,-286 139,-146 170,-429 77,-687 -66,-184 -232,-300 -408,-424 -215,-150 -437,-306 -482,-596 -37,-239 -296,-434 -558,-434zm547 2517c-227,0 -436,-51 -582,-144 -474,-304 -572,-629 -611,-1390 -17,-336 35,-601 154,-787 130,-204 306,-262 430,-275 326,-34 654,200 701,500 40,256 238,395 448,542 179,126 363,255 438,463 87,242 92,575 -94,771 -157,165 -418,279 -717,311 -56,6 -112,9 -167,9z"/>
  <path class="fil2" d="M5868 5742c-238,24 -398,-180 -398,-180 0,0 -78,24 -173,100 -4,4 -9,8 -14,11 -23,20 -48,44 -73,71l-438 -261 -124 -74 -182 -108c0,0 50,-41 131,-100l0 0c23,-17 48,-34 76,-53 106,-72 243,-156 390,-223 31,-15 63,-28 95,-40 160,-62 325,-97 469,-68 467,95 508,448 508,448 0,0 110,-64 163,0 68,80 9,433 -430,477z"/>
  <path class="fil6" d="M4440 5269c67,-54 135,-104 205,-152 70,-47 142,-93 216,-134 74,-42 150,-81 229,-115 78,-33 160,-62 245,-81 85,-18 174,-28 264,-16 11,2 22,4 33,6 11,2 22,4 32,7 11,2 22,5 32,8 11,3 21,5 32,9 42,12 83,29 123,49 79,39 152,94 209,164 29,35 53,73 73,114 10,21 18,41 25,63 4,11 7,22 10,33 2,6 3,11 4,17l2 9c0,3 1,6 1,10l-61 -31c5,-2 8,-4 12,-6 4,-2 8,-3 12,-5 7,-3 15,-6 23,-9 15,-6 32,-10 50,-12 18,-2 38,-2 58,3 20,6 41,17 56,33 4,4 7,9 11,13 3,5 6,10 8,14 5,10 8,19 11,28 5,18 7,35 8,52 1,34 -4,66 -12,97 -17,63 -49,119 -91,167 -41,47 -93,85 -148,113 -56,28 -115,46 -175,57 -15,2 -30,5 -45,7l-22 2 -24 2c-32,1 -63,-1 -95,-7 -62,-12 -121,-36 -173,-69 -26,-17 -51,-35 -74,-55 -12,-10 -23,-21 -34,-31 -5,-6 -11,-12 -16,-17 -5,-6 -10,-11 -16,-19l0 0 44 14 -31 15c-11,6 -22,11 -33,17 -21,12 -43,25 -64,38 -11,7 -22,13 -32,21 -5,4 -11,7 -16,10 -5,4 -10,8 -16,11 -5,4 -11,7 -16,11l-16 11c-11,8 -21,16 -32,23l-2 1c-10,6 -22,2 -28,-7 -5,-7 -4,-15 -1,-22 14,-24 31,-47 49,-68 19,-21 40,-40 61,-58 23,-18 46,-34 71,-48 12,-7 26,-13 39,-19 7,-2 13,-5 20,-8 4,-1 7,-2 11,-3l12 -3 34 -10 10 24 0 0c3,3 8,9 12,13 5,5 9,10 14,15 9,9 19,18 29,27 21,17 42,33 65,47 44,29 93,49 144,58 26,5 51,7 77,6l19 -1 20 -3c14,-1 27,-3 41,-6 53,-10 105,-25 152,-49 47,-24 90,-55 124,-94 34,-39 60,-85 73,-134 6,-24 10,-49 9,-73 -1,-23 -8,-46 -15,-53 -5,-5 -11,-8 -18,-10 -7,-2 -17,-3 -27,-2 -11,2 -22,4 -34,8 -5,2 -11,4 -17,7l-8 4c-2,1 -5,3 -7,3l-51 29 -10 -59 -1 -6 -1 -6c-1,-5 -2,-9 -3,-14 -3,-9 -5,-18 -8,-27 -6,-18 -14,-36 -22,-53 -17,-35 -38,-68 -62,-98 -49,-60 -113,-108 -183,-143 -35,-17 -72,-32 -110,-44 -10,-3 -20,-5 -29,-8 -10,-3 -19,-5 -29,-7 -10,-3 -20,-5 -30,-7 -9,-2 -18,-4 -28,-5 -77,-10 -157,-2 -235,15 -79,18 -156,45 -231,77 -76,32 -149,69 -221,110 -72,40 -142,84 -210,131 -68,47 -136,96 -199,147l0 1c-18,14 -44,11 -58,-6 -14,-18 -12,-43 6,-58l0 0z"/>
  <path class="fil6" d="M6176 5265c-1,9 -2,15 -4,23 -1,7 -3,15 -5,22 -3,14 -7,29 -12,43 -6,14 -12,28 -19,42 -8,13 -17,26 -28,38 -7,8 -20,8 -29,1 -7,-7 -8,-17 -4,-25l1 -1c5,-11 10,-22 13,-33 3,-12 5,-24 6,-36 1,-13 2,-25 1,-38 0,-6 0,-12 0,-18 -1,-6 -1,-13 -2,-18 -4,-22 11,-44 33,-48 23,-4 44,11 48,33 1,4 1,8 1,12l0 3z"/>
  <path class="fil6" d="M2645 5390c1,15 4,31 7,47 3,16 6,32 11,47 4,16 8,31 14,45 6,15 12,29 21,39l0 1c7,9 6,22 -3,29 -8,6 -19,6 -26,-1 -16,-13 -27,-28 -37,-44 -10,-15 -19,-31 -27,-47 -8,-16 -15,-32 -22,-48 -6,-17 -12,-33 -18,-51l0 0c-7,-22 5,-45 26,-52 22,-7 45,5 52,26 1,3 2,6 2,9z"/>
  <path class="fil16" d="M2548 5372c0,1 1,1 1,2l-2 -2 1 0z"/>
  <path class="fil16" d="M2542 5352c1,0 1,0 1,0 1,1 1,1 1,1l-2 -1z"/>
  <path class="fil16" d="M5212 4722l27 -56c-8,19 -17,38 -27,56z"/>
  <path class="fil16" d="M2509 5341c1,1 2,1 3,2l-3 -2 0 0z"/>
  <path class="fil2" d="M2670 5388c-16,-12 -33,-24 -49,-37l49 37z"/>
  <path class="fil2" d="M5149 4756l24 -56c-8,19 -16,38 -24,56z"/>
  <path class="fil3" d="M3842 5654c-104,0 -213,-11 -327,-35 38,-3 76,-6 114,-11 53,-6 106,-13 159,-24 9,-2 17,-11 16,-21 0,-1 0,-2 0,-2 38,-6 127,-20 220,-44 92,-23 177,-53 212,-67 3,9 11,14 19,14 2,0 4,-1 6,-1 52,-15 102,-33 152,-53 25,-9 50,-20 75,-31 21,-9 41,-18 63,-28l97 58 0 0c-178,117 -393,208 -642,236 -53,6 -108,9 -164,9z"/>
  <path class="fil3" d="M4648 5409l0 0 -97 -58c3,-2 7,-3 11,-5 49,-24 95,-51 142,-78 29,-17 58,-35 86,-54l1 3 51 -36c72,-52 139,-112 199,-180 9,-11 18,-22 27,-34 17,-7 34,-15 51,-22 -75,109 -177,229 -304,338 -52,44 -107,86 -167,126z"/>
  <path class="fil6" d="M5068 4967c5,-6 10,-13 15,-19 11,-15 22,-31 32,-46 14,-6 29,-12 43,-17 -12,19 -25,39 -39,60 -17,7 -34,15 -51,22z"/>
  <path class="fil2" d="M5407 4348c10,66 -130,37 -161,30 -2,-1 -4,2 -3,5 6,10 19,34 46,69 33,44 60,78 57,106 -3,30 -42,52 -97,59 -30,4 -55,39 -75,79l0 0 0 1 -1 3c0,-1 1,-2 1,-3 -5,11 -10,22 -15,33 -4,9 -7,18 -11,26 -33,70 -73,134 -120,194 -61,74 -133,140 -211,196l0 0c0,0 -108,77 -275,165 0,0 -149,76 -289,133 0,0 -107,42 -229,73 -122,31 -238,46 -238,46 -150,17 -318,22 -318,22 -188,3 -320,-14 -320,-14l0 1c-96,-12 -190,-35 -280,-71 -69,-30 -136,-67 -198,-112 -8,-7 -17,-14 -26,-22 -8,-6 -16,-12 -25,-18 1,0 2,1 2,2l-2 -3 0 1c-37,-26 -75,-45 -104,-34 -51,19 -96,20 -114,-5 -16,-24 -8,-66 0,-121 7,-44 7,-71 7,-83 0,-3 -3,-4 -5,-3 -23,21 -132,114 -156,51 -13,-34 14,-156 5,-271 -26,-335 -26,-402 -26,-402 0,-2 -5,-246 32,-435 -138,-205 -358,-849 -259,-1021 80,-137 544,-9 737,114 204,-160 557,-266 609,-279 18,-5 72,-17 146,-29 141,-23 354,-46 522,-18 110,-201 456,-535 592,-453 169,104 285,774 262,1020 78,94 151,215 195,291 26,45 41,75 41,76 0,0 33,59 170,365 47,105 129,199 134,236z"/>
  <path class="fil3" d="M3804 5561c-1,-10 -10,-18 -20,-18 0,0 0,0 -1,0l0 0 -159 3c-49,1 -100,2 -149,2 -3,0 -6,0 -9,0 -52,-1 -105,-3 -157,-5 -26,-2 -52,-3 -79,-5 -26,-2 -52,-4 -77,-7l-26 -3c-74,-11 -146,-29 -216,-55 -38,-14 -75,-32 -112,-52 -18,-10 -36,-20 -53,-31 -2,-2 -4,-3 -5,-4 118,21 289,42 496,42 215,0 469,-23 742,-92 526,-135 907,-388 1102,-542 -10,18 -20,35 -31,52 -23,35 -47,69 -74,99 -48,56 -104,107 -164,152l-20 14c-42,29 -87,58 -131,85 -45,27 -91,53 -136,79l-140 75c-46,25 -93,50 -140,75l0 0c-8,5 -12,14 -10,24 0,0 1,1 1,1 -35,14 -120,44 -212,67 -93,24 -182,38 -220,44z"/>
  <path class="fil4" d="M5062 3671c-44,18 -90,33 -138,45 -619,158 -1256,-237 -1433,-885 141,-23 354,-46 522,-18 110,-201 456,-535 592,-453 169,104 285,774 262,1020 78,94 151,215 195,291z"/>
  <path class="fil5" d="M3520 2923c-5,-15 -11,-31 -16,-46 5,-1 9,-2 13,-2 55,-9 109,-15 164,-20 52,-5 105,-8 157,-8 57,0 113,4 167,12l33 6 16 -29c35,-63 82,-123 131,-179 50,-56 105,-109 162,-156 29,-23 59,-45 90,-63 31,-19 63,-34 93,-41 9,-2 18,-3 25,-3 5,0 9,0 13,1 5,1 9,3 13,5 5,3 10,7 15,12 1,0 1,0 2,1 -164,47 -404,286 -513,460 -11,18 -31,29 -52,29 -3,0 -5,-1 -8,-1 -48,-6 -98,-8 -149,-8 -127,0 -256,15 -356,30z"/>
  <path class="fil16" d="M2508 5217c1,1 2,1 3,2l-3 -2 0 0z"/>
  <path class="fil16" d="M5203 4529l1 0 -2 3c1,-1 1,-2 1,-3z"/>
  <path class="fil18" d="M2445 3522c-77,141 -103,317 -118,301 -1,-2 -2,-3 -4,-6 -34,-47 -120,-244 -167,-428 -7,-30 -13,-56 -18,-80 -11,-63 -13,-105 -8,-133 5,-35 33,-52 62,-49 79,10 316,91 403,160 16,12 -73,94 -150,235z"/>
  <path class="fil19" d="M2329 3824c0,0 -1,0 -2,-1 -1,-2 -2,-3 -4,-6l0 0c-1,-102 30,-252 56,-361 34,-149 -87,-230 -176,-240 -1,0 -2,-1 -3,-1 -29,0 -50,53 -62,94l0 0c-7,-42 -11,-75 -11,-100 0,-13 1,-24 3,-33 5,-32 28,-49 55,-49 2,0 5,0 7,0 79,10 316,91 403,160 2,1 2,2 2,4 0,21 -81,101 -152,231 -74,135 -101,302 -116,302z"/>
  <path class="fil6" d="M2184 3382c39,153 102,305 140,378 1,-3 2,-7 3,-11 19,-62 47,-157 93,-241 41,-75 86,-134 115,-174 10,-12 20,-26 27,-36 -95,-63 -304,-133 -373,-142 -13,-2 -27,4 -31,24 -6,41 3,109 26,202zm145 471c-9,0 -17,-4 -23,-11 -36,-40 -130,-256 -178,-446 -26,-102 -35,-176 -27,-225 7,-48 47,-79 95,-73 80,10 324,93 417,166 30,23 7,54 -31,105 -31,40 -72,96 -111,167 -43,79 -70,170 -88,230 -19,62 -24,81 -47,86 -2,1 -5,1 -7,1z"/>
  <path class="fil18" d="M4443 3012c136,87 243,229 248,208 0,-2 1,-4 1,-7 7,-57 -12,-272 -59,-456 -8,-30 -15,-56 -22,-78 -20,-62 -39,-99 -57,-122 -21,-28 -54,-30 -78,-12 -64,46 -233,231 -277,333 -8,18 109,48 244,134z"/>
  <path class="fil19" d="M4688 3222c-17,0 -119,-129 -245,-210 -131,-84 -245,-114 -245,-132 0,-1 0,-2 1,-2 44,-102 213,-287 277,-333 10,-8 22,-12 33,-12 17,0 33,8 45,24 18,23 37,60 57,122 -26,-26 -61,-57 -87,-57 -5,0 -10,2 -15,5 -74,52 -141,181 -39,295 74,84 174,200 222,291 0,3 -1,5 -1,7 -1,1 -1,2 -3,2z"/>
  <path class="fil6" d="M4234 2872c10,5 26,12 40,18 45,21 113,52 185,98 81,51 151,121 197,167 3,3 5,5 8,8 -2,-83 -20,-246 -59,-399 -24,-93 -49,-157 -74,-189 -12,-16 -28,-14 -38,-7 -57,41 -206,203 -259,304zm454 379c-18,0 -34,-16 -73,-55 -45,-44 -112,-111 -187,-159 -69,-44 -132,-73 -178,-94 -58,-26 -93,-42 -78,-77 47,-108 221,-298 287,-345 39,-28 89,-20 118,18 31,40 58,109 84,211 49,190 70,424 58,476 -2,12 -11,21 -22,24 -3,1 -6,1 -9,1z"/>
  <path class="fil6" d="M3788 5584c-53,11 -106,18 -159,24 -54,7 -107,11 -161,15 -55,1 -108,2 -162,0 -55,-2 -108,-5 -163,-11l45 -51 0 1 15 58 -60 -7c-88,-11 -176,-31 -261,-62 -21,-8 -42,-17 -62,-27 -21,-9 -41,-19 -60,-30 -20,-11 -40,-22 -59,-34 -9,-6 -19,-12 -28,-18l-14 -10 -7 -5 -3 -2 -2 -2 -1 0 0 -1c-1,0 -5,-3 -4,-3 0,0 0,0 1,1 2,2 7,6 15,8l-13 -6c-18,-13 -36,-27 -53,-41l2 1 0 0 50 -67 52 41 -52 65c-29,-23 -57,-46 -84,-59 -14,-7 -27,-9 -29,-8 0,0 -1,0 -1,0l0 0 -2 1 -4 1c-5,2 -10,4 -15,5 -11,4 -22,6 -34,8 -12,2 -24,3 -38,2 -13,-2 -29,-4 -45,-14 -8,-5 -16,-11 -22,-19 -7,-8 -10,-16 -14,-24 -5,-16 -6,-30 -6,-42 -1,-24 3,-44 5,-63l4 -28c2,-9 3,-18 4,-27 1,-8 2,-17 2,-26 0,-4 0,-8 0,-12l0 -6 0 -1 0 -1 0 0c0,-1 0,0 1,1 0,10 5,22 17,30 6,3 14,7 24,6 5,0 10,-1 14,-3 4,-2 9,-5 10,-7l-3 3 -5 5 -12 9c-8,7 -16,13 -24,19 -17,12 -34,24 -56,34 -10,5 -22,9 -37,12 -8,1 -16,2 -26,1 -10,-1 -22,-5 -32,-12 -11,-6 -19,-16 -23,-25 -3,-4 -5,-8 -6,-12 -1,-3 -2,-5 -3,-8l-1 -6c-2,-15 -2,-26 -2,-37 0,-21 2,-40 3,-59 3,-38 6,-74 7,-110 0,-18 0,-36 -1,-54l-4 -55 -9 -114c-5,-75 -11,-150 -14,-227 -2,-40 -1,-78 0,-116 1,-38 2,-77 4,-115 5,-77 13,-153 28,-231l6 34c-23,-35 -42,-71 -60,-106 -18,-36 -35,-72 -50,-109 -31,-72 -59,-146 -84,-221 -24,-75 -46,-151 -64,-228 -17,-78 -31,-156 -34,-239 -1,-42 1,-85 15,-131 4,-11 9,-23 16,-35 8,-13 18,-25 29,-34 22,-18 46,-28 68,-35 46,-13 88,-14 130,-12 42,1 82,6 122,13 80,15 157,36 232,63 38,13 75,28 112,45 36,17 73,35 108,58l-54 2c47,-36 97,-68 147,-96 51,-28 103,-53 155,-76 53,-23 106,-44 159,-63 27,-10 54,-19 81,-28 28,-9 54,-18 84,-25 30,-8 57,-13 85,-18 28,-6 56,-11 85,-15 56,-8 113,-15 170,-20 57,-5 114,-8 172,-8 58,1 117,4 175,14l-48 23c20,-36 43,-70 67,-102 24,-32 50,-63 77,-93 53,-60 110,-115 173,-166 32,-25 65,-49 101,-71 36,-21 74,-41 120,-51 23,-5 49,-8 77,-2 14,3 28,8 41,16 12,7 22,15 31,23 35,34 57,71 76,108 38,74 63,150 85,226 21,76 39,153 53,231 14,78 25,156 33,234 4,40 6,79 8,119 1,40 1,81 -2,122l-11 -32c50,60 94,124 135,189 20,32 40,65 59,99 19,33 38,66 56,101 34,69 65,138 96,207l47 103 23 51c7,16 15,32 24,48 18,31 38,62 59,93 10,16 21,32 32,51 5,9 10,19 15,33l2 6c1,3 1,5 2,8 0,5 1,9 1,14 0,10 -3,22 -9,34 -5,11 -14,20 -22,25 -9,6 -17,10 -24,12 -15,5 -27,7 -39,7 -24,2 -45,0 -65,-3 -10,-1 -21,-3 -31,-4l-14 -3 -8 -2 -4 -1c3,1 8,2 13,1 5,0 10,-2 14,-4 9,-4 15,-11 19,-17 6,-13 5,-26 1,-35 -1,-2 -1,-2 -1,-2l0 1 1 0 0 1 3 6c2,3 4,7 6,10 5,7 10,15 15,22 5,7 10,14 15,21l18 23c11,16 23,32 35,53 5,11 11,23 14,40 1,9 2,18 0,28 -2,10 -6,20 -11,28 -9,16 -22,26 -33,34 -12,7 -23,12 -34,17 -12,4 -23,7 -34,9 -5,1 -11,2 -16,3l-7 1c-2,0 -12,8 -21,20 -17,25 -31,58 -45,92l-79 -33 26 -60 78 36 0 0 1 -3c-8,21 -17,42 -27,62l-8 12c6,-6 8,-12 9,-15 1,-1 1,-2 1,-1 0,-1 -1,4 -2,5l0 0 -1 1 -1 2 -1 4 -4 8 -8 15c-5,10 -10,20 -16,29 -11,20 -22,39 -35,58 -12,19 -25,38 -38,56 -13,17 -28,36 -42,53 -60,68 -127,128 -199,180l-51 36 -15 -60 0 -1 65 24c-45,32 -91,60 -137,88 -47,27 -93,54 -142,78 -26,12 -49,23 -74,33 -25,11 -50,22 -75,31 -50,20 -100,38 -152,53 -11,3 -23,-3 -26,-14 -2,-10 2,-19 10,-24l0 0c47,-25 94,-50 140,-75l140 -75c45,-26 91,-52 136,-79 44,-27 89,-56 131,-85l50 -35 16 59 0 1 -66 -24c68,-49 130,-104 184,-167 27,-30 51,-64 74,-99 11,-17 21,-35 32,-53 5,-9 9,-18 14,-28l7 -13 3 -7 2 -4 1 -2 0 0 1 -1c-1,1 -3,6 -2,5 0,0 0,-1 0,-2 1,-3 4,-8 10,-15l-8 12c9,-19 17,-38 24,-57l1 -2 0 -1 1 0 78 35 -26 61 -80 -33c15,-36 29,-73 55,-111 7,-9 15,-19 25,-28 10,-9 22,-18 39,-24 4,-1 9,-3 13,-3l8 -2c4,0 8,-1 12,-2 7,-1 14,-3 21,-6 6,-2 12,-5 16,-8 3,-1 4,-2 5,-3 1,-1 2,-2 2,-2 0,0 0,0 -1,1 0,1 0,1 0,0 0,-2 -2,-7 -5,-13 -6,-12 -17,-26 -28,-41l-17 -22c-6,-8 -12,-16 -18,-24 -5,-9 -11,-17 -17,-26 -2,-4 -5,-9 -8,-14l-4 -7 -1 -2 -2 -4c-5,-11 -6,-26 2,-41 4,-8 10,-15 21,-20 5,-3 10,-4 16,-5 5,0 11,1 14,1l3 1 7 2 12 2c9,2 18,3 26,4 17,2 34,3 48,2 7,0 13,-1 16,-2 2,-1 3,-1 2,-1 0,0 -3,2 -4,5 -1,3 -2,5 -2,6 0,0 0,0 0,0l0 1c0,0 0,-1 0,-1 -1,-3 -4,-10 -8,-17 -9,-15 -19,-30 -29,-46 -21,-31 -42,-64 -62,-98 -10,-17 -19,-35 -28,-53l-23 -52 -47 -103c-32,-69 -63,-138 -96,-204 -16,-32 -35,-65 -53,-97 -19,-32 -38,-64 -58,-95 -39,-63 -81,-124 -128,-180l-11 -14 1 -19c3,-35 3,-73 2,-111 -1,-37 -4,-75 -8,-113 -7,-76 -18,-151 -32,-227 -14,-75 -31,-149 -52,-222 -21,-73 -45,-145 -78,-209 -17,-32 -36,-62 -58,-82 -5,-5 -10,-9 -15,-12 -4,-2 -8,-4 -13,-5 -10,-2 -23,-1 -38,2 -30,7 -62,22 -93,41 -31,18 -61,40 -90,63 -57,47 -112,100 -162,156 -49,56 -96,116 -131,179l-16 29 -33 -6c-104,-16 -215,-14 -324,-4 -55,5 -109,11 -164,20 -27,4 -54,9 -81,14 -27,5 -55,10 -80,17 -24,6 -51,14 -77,23 -26,8 -53,17 -79,26 -51,19 -103,39 -153,61 -100,44 -199,95 -282,159l-26 21 -28 -18c-61,-38 -131,-68 -201,-94 -71,-25 -144,-46 -217,-59 -37,-7 -74,-11 -110,-13 -35,-1 -71,1 -100,9 -15,4 -27,10 -35,17 -4,3 -7,6 -9,10 -3,5 -6,11 -8,18 -9,28 -12,64 -11,100 2,72 15,147 31,221 17,74 38,147 62,220 23,73 50,144 80,215 15,35 30,69 47,103 17,33 35,67 55,96l10 16 -4 17c-13,72 -21,145 -26,220 -2,37 -4,74 -5,111 -1,37 -1,75 0,111 3,74 8,149 13,224l9 113 4 57c1,20 1,40 1,60 -1,40 -4,78 -7,116 -2,19 -3,37 -4,54 0,8 1,16 1,19 0,0 0,1 0,1l0 -1c0,0 0,1 0,0 0,0 -2,-2 -4,-4 -2,-1 -5,-2 -6,-2 0,0 0,0 0,0 0,0 1,0 2,0 4,-1 10,-3 17,-6 13,-6 27,-15 41,-25 7,-5 13,-10 20,-16l10 -8 5 -4 3 -2c2,-2 7,-6 11,-8 5,-2 11,-4 16,-4 11,0 21,3 28,8 13,9 19,22 20,35l1 4 0 2 0 8c-1,6 -1,11 -1,16 -1,11 -2,21 -3,31 -1,10 -2,20 -4,29l-4 28c-3,18 -5,36 -5,50 0,7 1,12 2,14 0,1 0,1 0,0 -1,0 -1,-1 -1,0 0,0 4,1 9,2 5,0 12,0 19,-1 6,-1 14,-3 21,-5 4,-2 8,-3 11,-4l8 -3c4,-1 9,-2 13,-3 17,-3 33,-1 46,2 13,3 24,8 34,13 41,20 71,46 101,71l-52 65 -52 -41 50 -66 1 0 0 0 2 2c16,13 32,26 49,38l-13 -6c9,2 13,6 15,8 1,1 2,1 2,1 0,1 -3,-2 -4,-3l0 0 1 1 2 1 3 2 6 5 13 9c8,5 17,11 26,17 17,11 35,21 53,31 37,20 74,38 112,52 78,29 159,48 242,58l-45 51 0 0 -14 -58 59 7c25,3 51,5 77,7 27,2 53,3 79,5 52,2 105,4 157,5 52,0 106,-1 158,-2l159 -3 0 0c12,0 21,9 21,20 1,10 -7,19 -16,21z"/>
  <path class="fil6" d="M2843 3874c-21,-19 32,-300 229,-293 73,2 77,65 43,93 -32,28 -90,41 -132,73 -83,63 -120,146 -140,127z"/>
  <path class="fil6" d="M4260 3478c9,-27 -172,-248 -342,-148 -63,37 -36,94 7,103 42,8 99,-7 151,1 103,15 175,70 184,44z"/>
  <path class="fil20" d="M4741 4607c11,41 -50,92 -136,114 -85,21 -163,6 -174,-35 -10,-41 51,-92 136,-114 86,-22 164,-6 174,35z"/>
  <path class="fil20" d="M3284 4979c10,41 -51,92 -136,114 -86,21 -164,6 -174,-35 -11,-41 50,-92 136,-114 85,-22 163,-7 174,35z"/>
  <path class="fil2" d="M3584 4779c0,0 68,96 157,47 101,-56 55,-182 55,-182l-212 135z"/>
  <path class="fil2" d="M4051 4660c0,0 -14,117 -115,116 -116,0 -136,-133 -136,-133l251 17z"/>
  <path class="fil21" d="M3701 4884c-62,0 -106,-61 -106,-61 0,0 -3,-15 -6,-39 11,14 44,49 88,55 0,0 0,0 0,0 0,0 0,0 0,0 4,1 9,1 13,1 15,0 31,-3 47,-12 1,0 2,-1 3,-1 0,0 0,0 0,0 0,0 0,0 1,-1 0,0 0,0 0,0 29,-16 45,-37 55,-59 0,0 0,0 0,0l0 0c15,-37 11,-76 6,-100 2,0 3,-1 4,-1 10,32 35,90 96,106l0 0c0,0 0,0 0,0l0 0c0,0 1,0 1,0 0,0 0,0 0,0 0,0 0,0 0,0 0,0 0,0 0,0 0,0 0,0 0,1 1,0 1,0 1,0 0,0 0,0 0,0l0 0c0,0 0,0 1,0 0,0 0,0 0,0 0,0 0,0 0,0 0,0 0,0 0,0 0,0 0,0 0,0 0,0 0,0 0,0 0,0 0,0 1,0 0,0 0,0 0,0 0,0 0,0 0,0 0,0 0,0 0,0 0,0 0,0 0,0 0,0 0,0 0,0 0,0 0,0 0,0 0,0 0,0 0,0 0,0 1,0 1,0 0,0 0,0 0,0 0,0 0,0 0,0 0,0 0,0 0,0 0,0 0,0 0,0 0,0 0,0 0,0 0,0 0,0 0,0 0,0 1,0 1,0 0,0 0,0 0,0 0,1 0,1 0,1 0,0 0,0 0,0 0,0 0,0 0,0 0,0 0,0 0,0 0,0 0,0 0,0 0,0 1,0 1,0 0,0 0,0 0,0 0,0 0,0 0,0 0,0 0,0 0,0 0,0 0,0 0,0 0,0 0,0 0,0 0,0 0,0 0,0 1,0 1,0 1,0 0,0 0,0 0,0 0,0 0,0 0,0 0,0 0,0 0,0 0,0 0,0 0,0 0,0 0,0 0,0 0,0 0,0 1,0 0,0 0,0 0,0 0,0 0,0 0,0 0,0 0,0 0,0 0,0 0,0 0,0 0,0 0,0 0,0 0,0 1,0 1,0 0,0 0,0 0,0 0,0 0,0 0,0 0,0 0,0 0,0 1,0 1,0 1,1 0,0 0,0 0,0 0,0 0,0 0,0l0 0c0,0 0,0 1,0 0,0 0,0 0,0 0,0 0,0 0,0 0,0 0,0 0,0 0,0 0,0 0,0l0 0c0,0 0,0 0,0l0 0c1,0 1,0 1,0l0 0c0,0 1,0 1,0l0 0c0,0 0,0 0,0l0 0c0,0 0,0 0,0 0,0 0,0 0,0 1,0 2,0 3,0 0,0 0,0 0,0 0,0 1,0 1,0 0,0 0,0 0,0 0,0 0,1 0,1l0 0c0,0 1,0 2,0l0 0c0,0 0,0 0,0 0,0 0,0 0,0 0,0 0,0 0,0 0,0 0,0 0,0 0,0 1,0 1,0 0,0 0,0 0,0 0,0 0,0 0,0 0,0 0,0 0,0 1,0 1,0 1,0 0,0 0,0 0,0 0,0 1,0 1,0l0 0c0,0 0,0 0,0l0 0c4,0 7,0 11,0 0,0 0,0 0,0 0,0 0,0 0,0 28,0 49,-8 65,-21 0,0 0,0 0,0 0,0 0,0 0,0 34,-26 45,-70 49,-88 8,22 12,36 12,36 0,0 -13,117 -115,117 0,0 0,0 0,0 -114,0 -114,-55 -119,-55 0,0 0,0 0,0 -4,1 26,49 -76,105 -18,10 -35,14 -51,14z"/>
  <path class="fil21" d="M3737 4828c1,0 1,0 1,0 0,0 1,-1 2,-1 -1,0 -2,1 -3,1zm3 -1c0,0 0,0 1,-1 -1,1 -1,1 -1,1z"/>
  <path class="fil2" d="M4051 4660c0,0 -14,117 -115,116 -116,0 -136,-133 -136,-133l-4 1c0,0 46,126 -55,182 -89,49 -157,-47 -157,-47 0,0 -69,-264 165,-324 234,-60 302,205 302,205z"/>
  <path class="fil22" d="M3690 4840c-4,0 -9,0 -13,-1 4,1 8,1 13,1 0,0 0,0 0,0l0 0 0 0c15,0 31,-3 47,-12 -16,9 -32,12 -47,12z"/>
  <path class="fil22" d="M3690 4840c0,0 0,0 0,0 0,0 0,0 0,0l0 0zm0 0c15,0 31,-3 48,-12 0,0 0,0 -1,0 -16,9 -32,12 -47,12z"/>
  <path class="fil22" d="M3677 4839c0,0 0,0 0,0 0,0 0,0 0,0zm259 -63c0,0 0,0 0,0 0,0 0,0 0,0 28,0 49,-8 65,-21 -16,13 -37,21 -65,21zm-11 0l0 0zm0 0l0 0 0 0zm-1 0c0,0 0,0 0,0 0,0 0,0 0,0zm-1 0c0,0 0,0 0,0 0,0 0,0 0,0zm0 0c0,0 0,0 0,0 0,0 0,0 0,0zm-1 0c0,0 0,0 0,0 0,0 0,0 0,0zm0 0c0,0 0,0 0,0 0,0 0,0 0,0zm0 0l0 0 0 0zm-2 0l0 0 0 0zm0 -1c0,0 0,0 0,0 0,0 0,0 0,0zm-1 0c0,0 0,0 0,0 0,0 0,0 0,0zm-3 0c0,0 0,0 0,0 0,0 0,0 0,0zm0 0l0 0 0 0zm0 0l0 0 0 0zm-1 0l0 0 0 0zm-1 0l0 0zm0 0l0 0 0 0zm0 0c0,0 0,0 0,0 0,0 0,0 0,0zm0 0c0,0 0,0 0,0 0,0 0,0 0,0zm-1 0l0 0 0 0zm0 0c0,0 0,0 0,0 0,0 0,0 0,0zm-1 -1c0,0 0,0 0,0 0,0 0,0 0,0zm0 0c0,0 0,0 0,0 0,0 0,0 0,0zm-1 0c0,0 0,0 0,0 0,0 0,0 0,0zm0 0c0,0 0,0 0,0 0,0 0,0 0,0zm0 0c0,0 0,0 0,0 0,0 0,0 0,0zm-1 0c0,0 0,0 0,0 0,0 0,0 0,0zm0 0c0,0 0,0 0,0 0,0 0,0 0,0zm0 0c0,0 0,0 0,0 0,0 0,0 0,0zm-1 0c0,0 0,0 0,0 0,0 0,0 0,0zm0 0c0,0 0,0 0,0 0,0 0,0 0,0zm0 0c0,0 0,0 0,0 0,0 0,0 0,0zm0 0c0,0 -1,0 -1,0 0,0 1,0 1,0zm-1 0c0,0 0,0 0,0 0,0 0,0 0,0zm0 0c0,0 0,0 0,0 0,0 0,0 0,0zm0 -1c0,0 0,0 0,0 0,0 0,0 0,0zm-1 0c0,0 0,0 0,0 0,0 0,0 0,0zm0 0c0,0 0,0 0,0 0,0 0,0 0,0zm0 0c0,0 0,0 0,0 0,0 0,0 0,0zm0 0c0,0 -1,0 -1,0 0,0 1,0 1,0zm-1 0c0,0 0,0 0,0 0,0 0,0 0,0zm0 0c0,0 0,0 0,0 0,0 0,0 0,0zm0 0c0,0 0,0 0,0 0,0 0,0 0,0zm0 0c-1,0 -1,0 -1,0 0,0 0,0 1,0zm-1 0c0,0 0,0 0,0 0,0 0,0 0,0zm0 0c0,0 0,0 0,0 0,0 0,0 0,0zm0 0c-1,0 -1,0 -1,0 0,0 0,0 1,0zm-1 0c0,0 0,0 0,0 0,0 0,0 0,0zm-1 0c0,-1 0,-1 0,-1 0,0 0,0 0,1zm0 -1c0,0 0,0 0,0 0,0 0,0 0,0zm0 0c0,0 -1,0 -1,0 0,0 1,0 1,0zm-1 0c0,0 0,0 0,0 0,0 0,0 0,0zm0 0c-61,-16 -86,-74 -96,-106l0 0c10,32 35,90 96,106zm-106 -5c0,0 0,0 0,0 0,0 0,0 0,0zm0 0c8,-20 11,-40 11,-58 0,-16 -2,-31 -5,-42 0,0 0,0 0,0 5,24 9,63 -6,100z"/>
  <path class="fil22" d="M4001 4755c0,0 0,0 0,0 0,0 0,0 0,0z"/>
  <path class="fil21" d="M3690 4840l0 0c0,0 0,0 0,0 -5,0 -9,0 -13,-1 0,0 0,0 0,0 0,0 0,0 0,0 -36,-5 -64,-29 -80,-45 6,1 11,1 17,1 22,0 46,-6 71,-20 49,-26 74,-64 85,-103 11,0 22,-2 32,-5 3,11 5,26 5,42 0,18 -3,38 -11,58l0 0c0,0 0,0 0,0 -10,22 -26,43 -55,59 -1,1 -2,1 -3,2 -17,9 -33,12 -48,12l0 0zm246 -64c0,0 0,0 0,0 0,0 0,0 0,0 -4,0 -7,0 -11,0l0 0c0,0 0,0 0,0l0 0c0,0 -1,0 -1,0 0,0 0,0 0,0 0,0 0,0 -1,0 0,0 0,0 0,0 0,0 0,0 0,0 0,0 0,0 0,0 0,0 -1,0 -1,0 0,0 0,0 0,0 0,0 0,0 0,0 0,0 0,0 0,0 0,0 0,0 0,0l0 0c-1,0 -2,0 -2,0l0 0c0,0 0,-1 0,-1 0,0 0,0 0,0 0,0 -1,0 -1,0 0,0 0,0 0,0 -1,0 -2,0 -3,0 0,0 0,0 0,0 0,0 0,0 0,0l0 0c0,0 0,0 0,0l0 0c0,0 -1,0 -1,0l0 0c0,0 0,0 -1,0l0 0c0,0 0,0 0,0l0 0c0,0 0,0 0,0 0,0 0,0 0,0 0,0 0,0 0,0 0,0 0,0 0,0 -1,0 -1,0 -1,0l0 0c0,0 0,0 0,0 0,0 0,0 0,0 0,-1 0,-1 -1,-1 0,0 0,0 0,0 0,0 0,0 0,0 0,0 0,0 0,0 0,0 -1,0 -1,0 0,0 0,0 0,0 0,0 0,0 0,0 0,0 0,0 0,0 0,0 0,0 0,0 0,0 0,0 0,0 -1,0 -1,0 -1,0 0,0 0,0 0,0 0,0 0,0 0,0 0,0 0,0 0,0 0,0 0,0 0,0 0,0 0,0 0,0 0,0 0,0 -1,0 0,0 0,0 0,0 0,0 0,0 0,0 0,0 0,0 0,0 0,0 0,0 0,0 0,0 0,0 0,0 0,0 0,0 0,0 0,0 -1,0 -1,0 0,0 0,0 0,0 0,0 0,0 0,0 0,0 0,0 0,0 0,0 0,0 0,0 0,0 0,0 0,-1 0,0 0,0 0,0 0,0 -1,0 -1,0 0,0 0,0 0,0 0,0 0,0 0,0 0,0 0,0 0,0 0,0 0,0 0,0 0,0 0,0 0,0 0,0 0,0 0,0 0,0 -1,0 -1,0 0,0 0,0 0,0 0,0 0,0 0,0 0,0 0,0 0,0 0,0 0,0 0,0 0,0 0,0 0,0 0,0 0,0 0,0 0,0 0,0 0,0 -1,0 -1,0 -1,0 0,0 0,0 0,0 0,0 0,0 0,0 0,0 0,0 0,0 0,0 0,0 0,0 0,0 0,0 0,0 -1,0 -1,0 -1,0l0 0c0,0 0,0 0,0 0,0 0,0 -1,0 0,-1 0,-1 0,-1 0,0 0,0 0,0 0,0 0,0 0,0 0,0 0,0 0,0 0,0 -1,0 -1,0l0 0c0,0 0,0 0,0l0 0c-61,-16 -86,-74 -96,-106 10,-3 19,-8 29,-13 28,29 69,52 125,52 1,0 1,0 1,0 36,0 64,-10 86,-26 -6,21 -19,55 -46,76 0,0 0,0 0,0 0,0 0,0 0,0 -16,13 -37,21 -65,21z"/>
  <path class="fil6" d="M3601 4767c10,8 22,18 33,25 12,7 24,13 35,15 12,3 23,3 34,1 5,-2 11,-3 16,-6 2,-2 5,-2 8,-4l8 -5c21,-13 34,-33 41,-58 6,-25 5,-56 1,-84l0 -2c-2,-11 6,-21 17,-23 9,-2 18,3 22,11 4,10 7,17 9,26 3,9 5,18 6,27 3,17 4,36 1,55 -5,38 -28,78 -62,100l-12 8c-4,2 -9,4 -14,6 -9,5 -19,7 -29,10 -21,3 -43,1 -63,-5 -19,-7 -36,-18 -50,-30 -14,-13 -25,-26 -35,-43 -5,-10 -2,-23 8,-28 8,-5 18,-3 24,2l2 2z"/>
  <path class="fil6" d="M4071 4662c0,20 -4,37 -10,55 -6,17 -15,35 -29,50 -14,15 -32,27 -52,34 -10,3 -21,6 -31,6 -5,0 -10,1 -15,1l-15 -1c-40,-3 -79,-27 -101,-58 -12,-15 -20,-32 -27,-49 -3,-9 -5,-17 -7,-26 -2,-9 -3,-17 -4,-27 -1,-12 8,-22 19,-22 10,-1 18,5 21,13l1 2c9,26 23,54 41,73 18,18 39,30 63,31l10 1c3,0 6,-1 9,-1 6,1 11,-1 17,-2 10,-4 20,-9 29,-17 9,-7 17,-18 23,-30 7,-11 13,-25 18,-38l0 -2c4,-11 16,-16 27,-12 8,3 13,11 13,19z"/>
  <path class="fil6" d="M3912 4543c7,30 -26,68 -57,95 -34,29 -77,40 -120,31 -41,-9 -88,-26 -96,-57 -23,-92 249,-161 273,-69z"/>
  <path class="fil15" d="M3760 4588c-3,0 -5,0 -7,0 -16,-2 -34,-6 -36,-15 -5,-19 48,-38 82,-38 14,0 24,3 26,11 2,9 -12,20 -25,29 -12,9 -26,13 -40,13z"/>
  <path class="fil2" d="M5380 5783c161,259 331,1004 242,1554 177,58 197,191 138,288 -77,125 -508,107 -616,100 -417,-27 -221,-908 -501,-848l737 -1094z"/>
  <path class="fil23" d="M5477 7724c126,-11 246,-38 283,-99 12,-21 21,-43 26,-66 -5,23 -14,45 -26,66 -37,61 -157,88 -283,99z"/>
  <path class="fil24" d="M4844 7278c-26,-145 -43,-286 -92,-356 49,70 66,211 92,356l0 0z"/>
  <path class="fil23" d="M4851 7318c-2,-14 -5,-27 -7,-40l0 0c2,13 5,26 7,40z"/>
  <path class="fil25" d="M4674 6832l125 -186c0,0 0,0 0,0l-125 186c0,0 0,0 0,0z"/>
  <path class="fil6" d="M4643 6877l31 -45c0,0 0,0 0,0l-31 45c0,0 0,0 0,0z"/>
  <path class="fil3" d="M5308 7730c-71,0 -132,-3 -164,-5 -193,-13 -254,-207 -293,-407 -2,-14 -5,-27 -7,-40 -26,-145 -43,-286 -92,-356 -21,-30 -47,-48 -83,-48 -8,0 -16,1 -26,3l31 -45 125 -186c5,0 9,0 14,0 295,0 -1,898 393,925 3,0 7,0 10,0 36,0 90,-12 83,-78 0,0 0,0 0,0 15,0 36,20 64,40 27,20 62,41 103,41 4,0 8,0 12,-1 44,-4 97,-26 81,-109 1,0 1,0 2,0 31,0 91,80 133,80 0,0 0,0 0,0 39,0 70,-23 94,-40 2,18 2,37 -2,55 -5,23 -14,45 -26,66 -37,61 -157,88 -283,99 -57,5 -116,6 -169,6z"/>
  <path class="fil6" d="M5316 7772c-68,0 -130,-3 -175,-6 -259,-17 -309,-311 -349,-547 -22,-129 -44,-262 -94,-296 -8,-5 -21,-11 -46,-6 -22,5 -44,-9 -49,-31 -5,-22 10,-44 32,-49 41,-9 77,-2 108,19 80,53 103,190 130,349 37,219 79,466 274,479 252,17 532,-5 578,-80 24,-40 30,-85 16,-123 -17,-46 -63,-82 -132,-105l-33 -10 5 -35c89,-546 -83,-1280 -235,-1526 -12,-20 -6,-45 13,-57 19,-12 44,-6 56,14 160,257 333,980 252,1549 95,39 134,97 151,142 23,61 14,132 -24,194 -63,103 -293,125 -478,125z"/>
  <path class="fil6" d="M3605 7517c0,1 -2,3 -4,5 -1,3 -2,5 -3,7 -3,5 -5,9 -7,14 -3,9 -6,18 -8,27 -1,5 -2,10 -2,15 -1,5 -1,9 -1,14 0,10 1,20 3,29 5,19 13,37 24,50 11,13 23,19 38,21l3 0c17,2 29,17 27,33 -1,15 -13,27 -27,28 -17,2 -35,-1 -51,-8 -16,-7 -30,-18 -40,-30 -22,-24 -33,-53 -38,-82 -5,-29 -2,-60 9,-87 5,-14 13,-27 24,-38 5,-6 10,-11 17,-15 3,-2 6,-4 10,-6 3,-2 6,-3 11,-4 7,-3 15,1 17,8 1,2 1,5 1,7l-3 12z"/>
  <path class="fil6" d="M3341 7478l-10 13c-3,4 -6,8 -8,13 -5,9 -9,18 -11,27 -4,18 -5,41 -2,62 3,22 10,42 20,59 10,17 23,29 38,34l2 1c16,6 24,23 19,39 -6,14 -20,22 -34,20 -18,-3 -35,-11 -49,-21 -14,-11 -24,-24 -33,-37 -17,-28 -25,-57 -28,-87 -2,-15 -1,-30 1,-45 1,-15 5,-31 12,-45 7,-15 17,-29 28,-39 7,-5 13,-10 20,-13 7,-4 14,-7 23,-9 8,-2 16,3 18,11 1,5 0,10 -3,13l-3 4z"/>
  <path class="fil6" d="M5303 7479c5,2 8,3 12,5 4,2 7,4 10,6 6,4 12,9 17,14 10,11 18,25 24,38 11,28 13,59 9,88 -5,29 -16,58 -38,82 -11,12 -24,23 -40,30 -16,7 -34,10 -51,8 -17,-2 -29,-17 -28,-34 2,-15 14,-26 28,-27l2 0c15,-2 27,-9 39,-21 11,-13 19,-31 23,-50 2,-9 4,-19 4,-29 0,-5 -1,-9 -1,-14 -1,-5 -2,-10 -3,-15 -1,-9 -4,-19 -8,-28 -1,-4 -4,-9 -6,-13 -1,-2 -3,-5 -4,-7 -1,-2 -3,-4 -3,-6l-3 -11c-2,-7 3,-14 10,-16 2,-1 5,-1 7,0z"/>
  <path class="fil6" d="M5565 7450c9,2 16,5 23,9 7,3 13,8 19,13 12,10 22,24 29,39 7,14 10,30 12,45 2,15 2,30 1,45 -3,30 -12,59 -28,87 -9,13 -20,26 -33,37 -14,10 -31,18 -49,21 -17,3 -32,-8 -35,-25 -3,-15 6,-29 20,-34l2 -1c14,-5 27,-17 37,-34 10,-17 17,-37 21,-59 3,-21 2,-44 -3,-62 -2,-9 -5,-18 -10,-27 -3,-5 -6,-9 -9,-13l-9 -13 -4 -4c-5,-6 -4,-16 3,-21 4,-3 9,-4 13,-3z"/>
  <path class="fil6" d="M3072 4132c-121,10 -195,168 -166,352 28,184 150,325 271,315 120,-11 195,-168 166,-352 -29,-184 -150,-325 -271,-315z"/>
  <path class="fil2" d="M3083 4210c-34,23 -34,88 -2,144 33,56 86,82 119,58 34,-24 34,-88 2,-144 -33,-56 -86,-82 -119,-58z"/>
  <path class="fil26" d="M3054 4623c-14,17 -8,52 14,77 22,25 51,31 66,13 14,-17 8,-51 -14,-76 -22,-25 -52,-32 -66,-14z"/>
  <path class="fil6" d="M4107 4403c-14,-38 -19,-75 -21,-115 -1,-39 2,-80 16,-120 6,-20 15,-40 26,-59 11,-19 25,-36 41,-52 32,-31 73,-53 113,-65 40,-12 85,-18 129,-11 45,7 87,27 120,54 34,27 59,61 77,97 18,36 30,75 33,114 2,14 -9,27 -24,29 -12,1 -23,-6 -27,-16l0 -1c-26,-62 -65,-117 -115,-148 -24,-16 -50,-25 -77,-28 -28,-2 -56,2 -84,11 -57,17 -98,53 -123,108 -24,55 -33,124 -32,191l0 2c0,15 -12,27 -27,27 -12,0 -21,-8 -25,-18z"/>
 </g>
</svg>
