<?xml version="1.0" encoding="UTF-8"?>
<!DOCTYPE svg PUBLIC "-//W3C//DTD SVG 1.1//EN" "http://www.w3.org/Graphics/SVG/1.1/DTD/svg11.dtd">
<!-- Creator: CorelDRAW X8 -->
<svg xmlns="http://www.w3.org/2000/svg" xml:space="preserve" width="91.4398mm" height="91.4398mm" version="1.1" style="shape-rendering:geometricPrecision; text-rendering:geometricPrecision; image-rendering:optimizeQuality; fill-rule:evenodd; clip-rule:evenodd"
viewBox="0 0 9144 9144"
 xmlns:xlink="http://www.w3.org/1999/xlink">
 <defs>
  <style type="text/css">
   <![CDATA[
    .fil0 {fill:#0BCBFF;fill-rule:nonzero}
    .fil12 {fill:#0DAD00;fill-rule:nonzero}
    .fil26 {fill:#158A1A;fill-rule:nonzero}
    .fil19 {fill:#1852DF;fill-rule:nonzero}
    .fil16 {fill:#1A7923;fill-rule:nonzero}
    .fil18 {fill:#1C76E1;fill-rule:nonzero}
    .fil17 {fill:#2276FC;fill-rule:nonzero}
    .fil65 {fill:#2284EF;fill-rule:nonzero}
    .fil48 {fill:#22A7F0;fill-rule:nonzero}
    .fil11 {fill:#22DD3C;fill-rule:nonzero}
    .fil36 {fill:#239ED3;fill-rule:nonzero}
    .fil25 {fill:#24AB44;fill-rule:nonzero}
    .fil49 {fill:#2975CB;fill-rule:nonzero}
    .fil15 {fill:#299A4D;fill-rule:nonzero}
    .fil10 {fill:#29B8FF;fill-rule:nonzero}
    .fil50 {fill:#357CB2;fill-rule:nonzero}
    .fil1 {fill:#390075;fill-rule:nonzero}
    .fil53 {fill:#46066B;fill-rule:nonzero}
    .fil39 {fill:#508FD5;fill-rule:nonzero}
    .fil3 {fill:#576BA0;fill-rule:nonzero}
    .fil38 {fill:#5ACDFF;fill-rule:nonzero}
    .fil8 {fill:#6B184E;fill-rule:nonzero}
    .fil14 {fill:#71CF69;fill-rule:nonzero}
    .fil28 {fill:#7451A4;fill-rule:nonzero}
    .fil9 {fill:#7783A3;fill-rule:nonzero}
    .fil22 {fill:#7799EC;fill-rule:nonzero}
    .fil21 {fill:#7DAEFD;fill-rule:nonzero}
    .fil13 {fill:#7DEB8C;fill-rule:nonzero}
    .fil20 {fill:#81D5FF;fill-rule:nonzero}
    .fil46 {fill:#824252;fill-rule:nonzero}
    .fil35 {fill:#85E5FF;fill-rule:nonzero}
    .fil7 {fill:#8A98BD;fill-rule:nonzero}
    .fil64 {fill:#8B69AE;fill-rule:nonzero}
    .fil27 {fill:#9071BA;fill-rule:nonzero}
    .fil42 {fill:#934D46;fill-rule:nonzero}
    .fil24 {fill:#945CC6;fill-rule:nonzero}
    .fil2 {fill:#99A4C4;fill-rule:nonzero}
    .fil68 {fill:#9C80BA;fill-rule:nonzero}
    .fil40 {fill:#A15F43;fill-rule:nonzero}
    .fil67 {fill:#A8C7EA;fill-rule:nonzero}
    .fil52 {fill:#AD8BB3;fill-rule:nonzero}
    .fil32 {fill:#AD99C9;fill-rule:nonzero}
    .fil66 {fill:#ADE6FF;fill-rule:nonzero}
    .fil69 {fill:#B199C5;fill-rule:nonzero}
    .fil5 {fill:#B8BFD6;fill-rule:nonzero}
    .fil23 {fill:#BD89E5;fill-rule:nonzero}
    .fil31 {fill:#BEABD6;fill-rule:nonzero}
    .fil30 {fill:#C09FDD;fill-rule:nonzero}
    .fil70 {fill:#C3876B;fill-rule:nonzero}
    .fil34 {fill:#C3B2D5;fill-rule:nonzero}
    .fil4 {fill:#C3C9DC;fill-rule:nonzero}
    .fil6 {fill:#D5D9E7;fill-rule:nonzero}
    .fil56 {fill:#D66B09;fill-rule:nonzero}
    .fil29 {fill:#D8BAF0;fill-rule:nonzero}
    .fil47 {fill:#D99761;fill-rule:nonzero}
    .fil51 {fill:#DAC5D3;fill-rule:nonzero}
    .fil41 {fill:#E3CFC6;fill-rule:nonzero}
    .fil63 {fill:#E7A86E;fill-rule:nonzero}
    .fil37 {fill:#E8C797;fill-rule:nonzero}
    .fil43 {fill:#FEC267;fill-rule:nonzero}
    .fil45 {fill:#FF67A0;fill-rule:nonzero}
    .fil55 {fill:#FF9100;fill-rule:nonzero}
    .fil58 {fill:#FFAA39;fill-rule:nonzero}
    .fil54 {fill:#FFB200;fill-rule:nonzero}
    .fil62 {fill:#FFBE69;fill-rule:nonzero}
    .fil59 {fill:#FFCF6E;fill-rule:nonzero}
    .fil61 {fill:#FFD269;fill-rule:nonzero}
    .fil57 {fill:#FFD766;fill-rule:nonzero}
    .fil60 {fill:#FFEC90;fill-rule:nonzero}
    .fil44 {fill:#FFEDD1;fill-rule:nonzero}
    .fil33 {fill:white;fill-rule:nonzero}
   ]]>
  </style>
 </defs>
 <g id="Camada_x0020_1">
  <metadata id="CorelCorpID_0Corel-Layer"/>
  <polygon class="fil0" points="0,9144 9144,9144 9144,0 0,0 "/>
  <path class="fil1" d="M4146 6637c-10,0 -19,-8 -20,-19l-101 -2832c0,-11 8,-21 19,-21 11,-1 20,8 21,19l101 2833c0,11 -8,20 -19,20 0,0 -1,0 -1,0z"/>
  <path class="fil2" d="M4155 2358c-477,-24 -844,-430 -820,-906 4,-83 20,-162 45,-237 11,-32 24,-64 39,-94 140,-293 440,-492 781,-491 14,0 28,1 41,1 168,9 323,65 452,155 140,97 249,235 311,396 43,110 64,230 57,356 -5,97 -25,189 -59,275 -133,335 -467,564 -847,545z"/>
  <path class="fil3" d="M4948 1925c-157,272 -457,450 -793,433 -477,-24 -844,-430 -820,-906 4,-83 20,-162 45,-237 11,-32 24,-64 39,-94 37,-78 86,-149 143,-212 -10,18 -20,37 -29,56 -15,31 -28,62 -39,95 -25,74 -41,153 -45,236 -24,477 344,882 820,906 267,14 511,-95 679,-277z"/>
  <path class="fil4" d="M4874 1155c-20,-36 -44,-70 -69,-102 2,-7 3,-15 3,-24 -5,-69 -96,-161 -205,-206 -39,-16 -76,-24 -106,-24 -5,0 -10,0 -15,1 -96,-44 -202,-70 -313,-75 -13,-1 -27,-1 -41,-2 -1,0 -2,0 -3,0 -139,0 -271,34 -388,93 133,-91 293,-145 465,-145 14,0 28,1 42,1 220,11 422,107 570,271 46,50 85,105 116,164 -5,4 -11,9 -16,13 -14,12 -27,23 -40,35z"/>
  <path class="fil1" d="M4202 671c-436,0 -801,344 -823,784 -23,454 328,842 783,865 220,11 431,-65 594,-213 163,-147 259,-350 270,-570 11,-220 -64,-431 -212,-594 -148,-164 -350,-260 -570,-271 -14,0 -28,-1 -42,-1zm2 1729c-16,0 -31,-1 -46,-1 -498,-25 -883,-450 -858,-948 25,-498 450,-883 948,-858 241,12 463,118 625,297 162,179 244,410 232,651 -12,241 -117,463 -296,625 -168,152 -381,234 -605,234z"/>
  <path class="fil3" d="M3914 1330c-23,72 -100,111 -171,88 -72,-23 -111,-99 -88,-171 23,-71 99,-111 171,-88 71,23 111,100 88,171z"/>
  <path class="fil2" d="M3792 1436c-62,11 -138,-46 -170,-128 -32,-82 -8,-157 54,-169 61,-11 138,46 170,128 32,82 8,158 -54,169z"/>
  <path class="fil1" d="M3752 1143c31,-10 67,-9 98,5 32,12 59,37 76,67 17,31 23,67 17,102 -6,35 -23,68 -50,91 -26,24 -60,38 -95,41 -35,2 -71,-7 -99,-27 -15,-10 -27,-22 -37,-36 -10,-14 -18,-29 -23,-45 -10,-32 -8,-68 4,-98 2,-3 5,-4 8,-3 3,1 4,4 4,7 -14,59 13,120 61,147 24,15 52,20 79,18 26,-4 52,-14 72,-33 40,-36 52,-99 28,-148 -6,-12 -14,-23 -23,-33 -10,-10 -21,-19 -33,-26 -25,-13 -55,-18 -84,-15 -4,1 -8,-2 -8,-6 -1,-4 2,-7 5,-8z"/>
  <path class="fil1" d="M3875 1487c-47,31 -109,39 -164,23 -28,-8 -54,-22 -77,-40 -22,-19 -41,-42 -54,-68 -26,-52 -30,-115 -10,-169 19,-54 62,-99 113,-119 3,-1 6,1 8,4 1,2 0,5 -3,7 -43,28 -74,71 -87,118 -13,47 -8,98 14,141 22,43 61,76 107,93 45,17 98,16 146,-3 4,-1 8,1 9,5 2,3 0,6 -2,8z"/>
  <path class="fil3" d="M4607 869c89,41 158,118 153,171 -4,53 -80,63 -169,21 -88,-41 -157,-118 -153,-171 5,-53 80,-62 169,-21z"/>
  <path class="fil2" d="M4399 930c15,-57 83,-80 153,-51 69,28 112,97 97,154 -16,57 -84,80 -153,52 -69,-28 -113,-98 -97,-155z"/>
  <path class="fil5" d="M4724 1097c-29,0 -64,-7 -102,-22 1,0 1,-1 1,-1 25,9 49,13 69,13 39,0 66,-16 68,-47 2,-17 -5,-38 -18,-58 23,22 43,46 63,71 -9,29 -39,44 -81,44zm-305 -203c-3,-9 -5,-18 -5,-27 -3,-39 24,-63 68,-67 43,19 84,42 123,68 -12,-5 -24,-10 -36,-14 -26,-9 -50,-13 -71,-13 -38,0 -64,15 -68,44 -4,3 -7,6 -11,9z"/>
  <path class="fil6" d="M4805 1053c-20,-25 -40,-49 -63,-71 -25,-42 -75,-85 -135,-113 -1,0 -1,-1 -2,-1 -39,-26 -80,-49 -123,-68 5,-1 10,-1 15,-1 30,0 67,8 106,24 109,45 200,137 205,206 0,9 -1,17 -3,24z"/>
  <path class="fil7" d="M4692 1087c-20,0 -44,-4 -69,-13 0,0 0,0 0,0 22,7 43,10 61,10 43,0 70,-19 68,-55 -3,-57 -78,-132 -167,-169 -5,-2 -11,-4 -16,-6 12,4 24,9 36,14 1,0 1,1 2,1 60,28 110,71 135,113 13,20 20,41 18,58 -2,31 -29,47 -68,47z"/>
  <path class="fil5" d="M4622 1075c-1,-1 -2,-1 -4,-2 -2,-1 -4,-2 -6,-3 4,2 7,3 11,4 0,0 0,0 0,0 0,0 0,1 -1,1zm-174 -129c-13,-18 -23,-35 -29,-52 4,-3 7,-6 11,-9 0,3 0,7 0,11 1,16 7,32 18,50z"/>
  <path class="fil1" d="M4444 952c-10,-12 -18,-27 -23,-43 -4,-16 -4,-37 7,-54 11,-17 29,-26 46,-30 17,-4 34,-5 51,-3 65,7 123,37 173,76 13,11 25,21 35,33 11,12 22,25 30,39 9,15 16,30 20,48 4,17 3,39 -9,56 -12,18 -31,27 -47,30 -18,3 -34,2 -50,0 -32,-5 -61,-18 -88,-33 -3,-1 -4,-5 -3,-8 2,-2 5,-3 7,-3l1 0c28,10 57,18 85,19 14,1 29,0 41,-3 12,-4 22,-10 26,-19 5,-8 6,-19 3,-31 -4,-12 -10,-24 -17,-36 -15,-22 -36,-43 -58,-61 -23,-18 -47,-33 -73,-46 -26,-13 -53,-22 -80,-27 -14,-2 -28,-2 -40,0 -13,2 -24,6 -30,15 -7,8 -10,20 -8,34 2,13 7,26 13,40l0 0c2,3 0,8 -3,9 -4,2 -7,1 -9,-2z"/>
  <path class="fil3" d="M4573 1407c-28,91 -125,142 -216,114 -91,-28 -142,-125 -114,-216 28,-91 125,-142 216,-114 91,28 142,125 114,216z"/>
  <path class="fil2" d="M4645 1909c24,22 41,49 48,80 22,95 -52,193 -165,219 -113,27 -222,-29 -244,-124 -22,-95 51,-193 165,-219l196 44z"/>
  <path class="fil8" d="M4703 1997c9,25 10,54 5,80 -6,27 -19,53 -36,74 -16,22 -37,41 -61,55 -23,14 -49,25 -75,31 -53,12 -111,7 -160,-18 -25,-12 -47,-29 -64,-51 -16,-21 -28,-47 -31,-73 0,-3 2,-6 5,-7 3,0 6,2 6,4 17,47 54,80 97,98 44,17 92,19 138,8 23,-5 45,-13 65,-25 20,-12 38,-26 54,-44 30,-34 49,-80 43,-129 0,-4 3,-8 7,-8 3,0 6,2 7,5z"/>
  <path class="fil3" d="M4983 1531c-6,63 -46,116 -90,117 -44,2 -75,-49 -70,-112 6,-64 46,-116 90,-118 44,-1 75,49 70,113z"/>
  <path class="fil3" d="M3958 847c2,-27 48,-47 103,-44 55,3 99,27 97,54 -1,27 -47,47 -102,44 -55,-3 -99,-27 -98,-54z"/>
  <path class="fil2" d="M4043 2014c-64,69 -156,97 -266,-4 -80,-75 -91,-193 -25,-265l291 269z"/>
  <path class="fil1" d="M4049 2019c-16,20 -35,38 -59,52 -23,14 -50,21 -78,21 -28,0 -55,-8 -79,-20 -24,-12 -46,-28 -66,-45 -40,-35 -69,-87 -74,-141 -2,-27 1,-55 10,-80 9,-25 25,-48 45,-65 2,-2 6,-2 8,1 2,2 2,5 0,7 -28,40 -36,88 -28,132 8,45 32,86 66,117 34,32 75,58 119,62 22,2 45,-2 66,-12 21,-9 41,-23 59,-39 3,-3 7,-3 10,0 3,3 3,7 1,10z"/>
  <path class="fil2" d="M4405 1521c-73,19 -155,-32 -183,-113 -27,-82 9,-164 83,-183 73,-19 155,32 183,113 27,82 -9,164 -83,183z"/>
  <path class="fil2" d="M4866 1647c-40,-2 -79,-47 -86,-101 -8,-54 18,-97 58,-96 40,2 79,47 87,101 7,54 -19,97 -59,96z"/>
  <path class="fil1" d="M4366 1173c39,-12 83,-10 122,6 40,16 74,47 95,84 21,38 29,83 22,126 -4,22 -10,43 -21,62 -10,19 -23,37 -39,52 -32,29 -75,48 -118,51 -43,3 -88,-7 -123,-31 -18,-12 -34,-27 -47,-44 -13,-17 -23,-36 -29,-56 -14,-40 -12,-84 2,-122 1,-3 5,-4 8,-3 3,1 4,4 3,6l0 1c-8,37 -5,76 10,110 7,16 17,32 28,46 13,13 27,25 42,34 31,18 68,26 103,22 34,-4 68,-19 94,-43 52,-48 67,-131 34,-195 -8,-15 -19,-30 -31,-43 -13,-12 -27,-24 -44,-31 -32,-18 -71,-23 -108,-18 -4,1 -8,-2 -8,-6 -1,-3 1,-7 5,-8z"/>
  <path class="fil1" d="M4635 1532c-18,27 -41,51 -68,70 -27,19 -57,33 -89,42 -32,9 -66,12 -100,9 -33,-3 -66,-12 -96,-26 -61,-29 -111,-79 -138,-140 -28,-60 -33,-130 -14,-191 1,-4 4,-5 7,-4 3,1 5,3 4,6 -8,61 3,123 32,175 28,52 73,94 125,118 27,12 55,20 84,23 29,4 59,2 88,-3l21 -6c7,-2 14,-5 21,-7 14,-5 27,-12 40,-19 26,-15 50,-34 71,-56 3,-3 7,-3 10,-1 3,3 3,7 2,10z"/>
  <path class="fil8" d="M4819 1580c-6,-22 -7,-45 -3,-68 4,-22 13,-45 28,-64 7,-10 16,-19 27,-26 11,-7 24,-12 38,-14 15,-1 30,3 42,10 12,7 22,17 29,28 14,22 19,47 19,71 1,23 -4,47 -13,68 -9,22 -23,42 -41,57 -10,7 -21,13 -33,16 -11,3 -24,2 -35,-2 -3,-1 -5,-5 -4,-8 1,-3 4,-4 6,-4l1 0c19,2 36,-7 48,-21 13,-13 22,-31 28,-49 5,-18 8,-37 6,-56 -1,-18 -6,-37 -15,-50 -9,-14 -21,-22 -35,-21 -14,0 -29,10 -41,23 -12,13 -22,31 -28,49 -7,18 -10,38 -10,59l0 0c0,4 -3,7 -7,7 -3,0 -6,-2 -7,-5z"/>
  <path class="fil8" d="M4979 1657c-17,25 -45,46 -79,51 -17,4 -35,1 -52,-4 -16,-6 -32,-15 -44,-28 -11,-12 -21,-26 -27,-41 -7,-16 -11,-32 -12,-47 -3,-32 3,-64 17,-91 2,-3 6,-4 9,-3 2,1 3,4 3,6l0 0c-4,29 -3,57 3,82 3,13 7,26 13,37 6,11 13,21 22,29 17,17 40,27 64,26 24,-1 49,-11 73,-27l0 -1c3,-2 8,-1 10,2 2,3 2,6 0,9z"/>
  <path class="fil2" d="M4013 779c38,1 72,27 75,60 3,32 -27,57 -66,57 -39,-1 -72,-28 -75,-60 -3,-32 27,-58 66,-57z"/>
  <path class="fil1" d="M3960 838c2,-13 10,-23 18,-30 8,-8 18,-14 28,-18 20,-8 41,-12 63,-10 21,2 43,9 61,22 9,6 18,14 24,25 3,5 5,11 6,17 1,6 1,13 -1,19 -1,4 -6,7 -10,5 -3,-1 -5,-3 -6,-5l-1 -2c-4,-13 -17,-23 -30,-30 -14,-6 -30,-10 -46,-12 -17,-1 -33,0 -49,3 -16,4 -33,10 -42,20l-1 2c-3,3 -8,3 -11,1 -2,-2 -3,-5 -3,-7z"/>
  <path class="fil3" d="M3947 2001c-66,18 -140,-28 -165,-101 -25,-74 8,-147 74,-165 66,-17 140,29 165,102 25,74 -8,147 -74,164z"/>
  <path class="fil2" d="M3911 1980c-46,11 -98,-23 -117,-76 -19,-53 3,-105 48,-116 46,-11 98,23 117,76 18,53 -3,105 -48,116z"/>
  <path class="fil1" d="M4038 1900c-1,14 -4,29 -11,43 -4,6 -8,13 -12,19 -5,5 -10,11 -15,16 -11,10 -24,19 -38,26 -14,6 -31,9 -47,9 -32,-1 -61,-17 -84,-35 -6,-4 -11,-9 -17,-14 -6,-5 -11,-11 -16,-17 -9,-12 -17,-25 -23,-40 -11,-29 -14,-61 -5,-92 9,-30 31,-57 59,-72 27,-15 60,-18 89,-11 29,7 55,22 74,43 2,3 1,7 -1,9 -2,2 -5,2 -7,0 -22,-15 -46,-25 -70,-28 -25,-2 -49,3 -69,16 -19,12 -33,31 -39,53 -5,22 -3,46 6,68 4,10 10,21 17,30 4,4 8,9 12,13 4,4 9,8 14,12 19,16 40,27 62,30 22,2 45,-6 65,-21 4,-4 9,-8 14,-12 4,-4 8,-9 12,-14 7,-10 12,-21 16,-33l0 -1c1,-3 5,-6 9,-5 3,1 6,5 5,8z"/>
  <path class="fil9" d="M4447 1933l0 0c-7,4 -14,7 -21,11 -10,7 -20,15 -28,23 3,1 6,2 9,4 11,-6 23,-10 36,-12 1,-6 2,-11 3,-17 0,-3 1,-5 1,-8l0 -1z"/>
  <path class="fil2" d="M4557 2055c0,55 -46,100 -103,101 -56,0 -102,-43 -101,-98 0,-54 46,-99 102,-100 57,-1 103,43 102,97z"/>
  <path class="fil8" d="M4599 1945c24,18 42,48 43,80 3,32 -9,65 -30,89 -40,50 -108,72 -171,59 -31,-7 -61,-23 -82,-48 -21,-26 -32,-61 -26,-93 5,-33 23,-61 46,-81 12,-9 25,-17 39,-24 13,-5 28,-9 42,-11 3,-1 7,1 7,5 0,2 -1,5 -4,6l0 0c-13,5 -25,10 -37,17 -11,8 -21,16 -30,25 -18,19 -29,43 -31,67 -2,24 6,47 22,64 16,18 38,29 62,34 12,2 25,3 37,3 13,-1 25,-3 37,-7 12,-4 23,-9 34,-15 11,-7 20,-15 29,-24 8,-8 15,-19 20,-30 5,-11 8,-23 9,-35 2,-25 -8,-50 -26,-70 -3,-3 -2,-7 1,-10 2,-2 6,-2 9,-1z"/>
  <path class="fil10" d="M5868 3672c0,456 -370,825 -826,825 -456,0 -825,-369 -825,-825 0,-456 369,-826 825,-826 456,0 826,370 826,826z"/>
  <path class="fil11" d="M5868 3672c0,456 -370,825 -826,825 -456,0 -825,-369 -825,-825 0,-456 369,-826 825,-826 456,0 826,370 826,826z"/>
  <path class="fil12" d="M5838 3894c-48,-8 -104,-22 -166,-29 -33,-3 -70,5 -110,13 -46,10 -97,19 -152,10 -121,-21 -66,12 -2,31 106,33 150,31 191,29 20,-1 39,-2 65,1 58,8 104,23 142,36 13,-30 23,-60 32,-91z"/>
  <path class="fil12" d="M4278 3359c72,23 152,36 231,40 44,3 98,-2 142,-8 53,-6 91,-13 78,-5 -16,10 -203,130 -452,78 -11,-3 -22,-5 -32,-7 9,-33 20,-66 33,-98z"/>
  <path class="fil12" d="M4393 4182c86,-10 175,-12 260,-3 149,17 205,128 437,48 193,-68 365,-70 528,7 7,3 14,6 20,9 53,-55 98,-118 134,-186 -56,16 -118,26 -184,26 -253,0 -377,-199 -651,-156 -187,28 -286,129 -523,105 -47,-5 -90,-15 -128,-28 29,64 65,124 107,178z"/>
  <path class="fil12" d="M4228 3807c108,34 254,28 394,-3 160,-36 311,-93 463,-35 170,65 264,35 354,5 56,-19 110,-37 179,-33 101,7 176,39 239,66 7,-44 11,-89 11,-135l0 0c0,-46 -4,-92 -11,-136 -75,30 -168,55 -269,55 -253,0 -377,-200 -651,-157 -187,29 -307,180 -520,182 -78,1 -143,-20 -194,-49 -4,34 -6,69 -6,105 0,46 4,91 11,135z"/>
  <path class="fil12" d="M4312 3287c46,-15 104,-24 179,-13 156,25 327,69 594,5 220,-53 358,-10 506,67 83,44 158,69 237,70 -40,-120 -106,-228 -192,-317 -15,1 -31,1 -48,1 -253,0 -418,-76 -659,-79 -186,-1 -345,88 -506,105 -43,48 -80,102 -111,161z"/>
  <path class="fil10" d="M5868 3672c0,456 -370,825 -826,825 -456,0 -825,-369 -825,-825 0,-456 369,-826 825,-826 456,0 826,370 826,826z"/>
  <path class="fil11" d="M5868 3672c0,456 -370,825 -826,825 -456,0 -825,-369 -825,-825 0,-456 369,-826 825,-826 456,0 826,370 826,826z"/>
  <path class="fil12" d="M5838 3894c-48,-8 -104,-22 -166,-29 -33,-3 -70,5 -110,13 -46,10 -97,19 -152,10 -121,-21 -66,12 -2,31 106,33 150,31 191,29 20,-1 39,-2 65,1 58,8 104,23 142,36 13,-30 23,-60 32,-91z"/>
  <path class="fil12" d="M4278 3359c72,23 152,36 231,40 44,3 98,-2 142,-8 53,-6 91,-13 78,-5 -16,10 -203,130 -452,78 -11,-3 -22,-5 -32,-7 9,-33 20,-66 33,-98z"/>
  <path class="fil12" d="M4393 4182c86,-10 175,-12 260,-3 149,17 205,128 437,48 193,-68 365,-70 528,7 7,3 14,6 20,9 53,-55 98,-118 134,-186 -56,16 -118,26 -184,26 -253,0 -377,-199 -651,-156 -187,28 -286,129 -523,105 -47,-5 -90,-15 -128,-28 29,64 65,124 107,178z"/>
  <path class="fil12" d="M4228 3807c108,34 254,28 394,-3 160,-36 311,-93 463,-35 170,65 264,35 354,5 56,-19 110,-37 179,-33 101,7 176,39 239,66 7,-44 11,-89 11,-135l0 0c0,-46 -4,-92 -11,-136 -75,30 -168,55 -269,55 -253,0 -377,-200 -651,-157 -187,29 -307,180 -520,182 -78,1 -143,-20 -194,-49 -4,34 -6,69 -6,105 0,46 4,91 11,135z"/>
  <path class="fil12" d="M4312 3287c46,-15 104,-24 179,-13 156,25 327,69 594,5 220,-53 358,-10 506,67 83,44 158,69 237,70 -40,-120 -106,-228 -192,-317 -15,1 -31,1 -48,1 -253,0 -418,-76 -659,-79 -186,-1 -345,88 -506,105 -43,48 -80,102 -111,161z"/>
  <path class="fil11" d="M4764 3606c70,-50 135,-92 205,-97 57,-5 80,-2 197,55 95,47 224,92 162,132 -53,34 -146,-47 -278,-43 -141,5 -204,39 -268,33 -93,-9 -89,-30 -18,-80z"/>
  <path class="fil13" d="M5554 3100c-25,-1 -48,-2 -71,-4 -128,-71 -279,-112 -441,-112 -15,0 -30,0 -45,1 5,-29 8,-58 9,-87 1,0 2,-1 3,-1 0,-3 1,-7 1,-11 11,0 21,0 32,0 198,0 379,73 518,194 -2,7 -4,13 -6,20z"/>
  <path class="fil14" d="M5544 3134c-20,-14 -40,-26 -61,-38 23,2 46,3 71,4 -4,11 -7,22 -10,34z"/>
  <path class="fil15" d="M5042 4458c-241,0 -457,-109 -601,-281 33,-3 66,-4 100,-4 37,0 75,2 112,6 110,12 170,77 287,77 41,0 89,-8 150,-29 95,-34 185,-51 271,-51 82,0 161,16 239,49 -143,144 -340,233 -558,233zm546 -375c-160,0 -268,-79 -395,-127 57,-14 113,-33 166,-55 13,6 30,13 49,18 81,25 126,30 161,30 11,0 21,0 30,-1 10,0 19,-1 30,-1 6,0 12,0 18,1 23,41 48,80 76,117 -1,2 -2,3 -3,5 -42,8 -86,13 -132,13zm-1104 -48c-22,0 -45,-1 -70,-3 -27,-3 -53,-7 -77,-13 -26,-52 -46,-107 -59,-165 96,102 234,145 377,157 -50,14 -105,24 -171,24zm972 -143c-15,0 -30,-1 -46,-4 -6,-1 -11,-2 -16,-2 65,-30 124,-66 177,-108 11,31 23,61 36,91 -14,3 -29,6 -45,9 -33,7 -68,14 -106,14z"/>
  <path class="fil16" d="M5569 3949c-35,0 -80,-5 -161,-30 -19,-5 -36,-12 -49,-18 12,-5 24,-10 35,-15 5,0 10,1 16,2 16,3 31,4 46,4 38,0 73,-7 106,-14 16,-3 31,-6 45,-9 13,27 26,53 40,79 -6,-1 -12,-1 -18,-1 -11,0 -20,1 -30,1 -9,1 -19,1 -30,1z"/>
  <path class="fil16" d="M4940 4256c-117,0 -177,-65 -287,-77 -37,-4 -75,-6 -112,-6 -34,0 -67,1 -100,4 -41,-48 -76,-101 -104,-158 24,6 50,10 77,13 25,2 48,3 70,3 66,0 121,-10 171,-24 31,2 63,4 94,4 140,0 279,-24 387,-46 19,-4 38,-8 57,-13 127,48 235,127 395,127 46,0 90,-5 132,-13 -34,57 -74,109 -120,155 -78,-33 -157,-49 -239,-49 -86,0 -176,17 -271,51 -61,21 -109,29 -150,29z"/>
  <path class="fil1" d="M5042 2886c-418,0 -763,327 -785,744 0,15 -1,28 -1,42 0,433 353,786 786,786 434,0 786,-353 786,-786 0,-13 0,-27 -1,-42 -22,-417 -367,-744 -785,-744zm0 1651c-477,0 -865,-388 -865,-865 0,-15 0,-30 1,-46 25,-460 404,-819 864,-819 461,0 840,359 864,819 1,16 1,31 1,46 0,477 -388,865 -865,865z"/>
  <path class="fil10" d="M7671 3416l0 -5c-1,-585 -476,-1059 -1061,-1059 -587,0 -1062,475 -1062,1061 0,587 475,1062 1062,1062 585,0 1060,-474 1061,-1059z"/>
  <path class="fil10" d="M7671 3416l0 -5c-1,-585 -476,-1059 -1061,-1059 -587,0 -1062,475 -1062,1061 0,587 475,1062 1062,1062 585,0 1060,-474 1061,-1059z"/>
  <path class="fil17" d="M7632 3699c-61,-10 -133,-28 -213,-37 -42,-5 -89,6 -141,17 -59,12 -125,25 -195,13 -157,-27 -85,15 -4,40 137,42 194,39 247,37 26,-1 50,-3 82,1 75,10 134,29 184,46 16,-38 29,-77 40,-117z"/>
  <path class="fil17" d="M5627 3011c93,29 196,46 297,52 57,4 126,-3 182,-10 69,-8 117,-17 100,-6 -20,12 -260,167 -580,99 -14,-3 -28,-6 -42,-8 12,-44 26,-86 43,-127z"/>
  <path class="fil17" d="M5775 4069c111,-13 225,-16 334,-3 192,21 264,165 562,61 249,-87 469,-90 680,9 8,4 16,8 25,12 68,-71 126,-151 172,-239 -72,20 -152,34 -236,34 -326,0 -486,-256 -838,-202 -240,37 -367,166 -672,135 -61,-6 -116,-19 -164,-35 36,82 82,159 137,228z"/>
  <path class="fil17" d="M5562 3588c139,43 327,36 507,-4 206,-46 400,-120 596,-45 218,83 340,44 454,6 73,-24 142,-48 232,-42 129,8 226,49 306,85 9,-57 14,-115 14,-175l0 0c0,-59 -5,-117 -14,-174 -97,38 -216,70 -345,70 -326,0 -486,-256 -838,-202 -240,37 -394,233 -669,235 -100,1 -183,-26 -248,-64 -6,44 -9,90 -9,135 0,60 5,118 14,175z"/>
  <path class="fil17" d="M5671 2918c59,-19 134,-31 230,-16 201,32 420,89 764,6 282,-68 459,-12 650,87 107,56 204,88 304,90 -50,-155 -135,-294 -245,-409 -21,2 -41,3 -62,3 -326,0 -538,-99 -847,-102 -240,-2 -444,112 -651,134 -56,63 -104,132 -143,207z"/>
  <path class="fil10" d="M6252 3329c90,-64 173,-119 264,-125 73,-6 102,-3 253,71 122,61 288,118 208,170 -68,43 -188,-60 -357,-55 -182,5 -263,50 -345,42 -119,-12 -114,-39 -23,-103z"/>
  <path class="fil18" d="M6610 4435c-317,0 -600,-144 -788,-371 48,-4 95,-6 143,-6 48,0 97,2 144,8 142,16 218,98 369,98 53,0 115,-10 193,-37 122,-43 238,-65 348,-65 110,0 216,22 318,68 -185,189 -443,305 -727,305zm702 -492c-217,0 -360,-113 -534,-173 75,-19 149,-43 219,-73 14,10 47,24 82,35 105,32 163,38 208,38 14,0 26,-1 39,-1 12,-1 25,-1 38,-1 13,0 28,0 44,2 57,7 105,20 146,33 -17,41 -36,81 -58,119 -58,13 -120,21 -184,21zm-1420 -62c-28,0 -58,-1 -90,-5 -40,-4 -78,-11 -113,-20 -39,-80 -68,-167 -84,-257 5,1 10,2 16,3 129,161 323,223 525,237 -74,24 -154,42 -254,42zm1250 -185c-19,0 -39,-1 -59,-4 -24,-4 -42,-7 -56,-8 104,-48 200,-108 280,-182 6,0 11,0 16,0 9,0 18,0 28,1 109,7 196,37 268,68 -6,41 -15,82 -26,121 -52,-10 -111,-23 -174,-30 -7,-1 -14,-1 -21,-1 -37,0 -77,9 -120,18 -42,9 -88,17 -136,17zm325 -402c33,-66 56,-139 66,-218 14,3 29,5 44,7 19,54 33,111 42,170 -47,17 -98,31 -152,41z"/>
  <path class="fil19" d="M7554 3803c-41,-13 -89,-26 -146,-33 -16,-2 -31,-2 -44,-2 -13,0 -26,0 -38,1 -13,0 -25,1 -39,1 -45,0 -103,-6 -208,-38 -35,-11 -68,-25 -82,-35 10,-4 20,-9 30,-13 14,1 32,4 56,8 20,3 40,4 59,4 48,0 94,-8 136,-17 43,-9 83,-18 120,-18 7,0 14,0 21,1 63,7 122,20 174,30 -11,38 -24,75 -39,111z"/>
  <path class="fil19" d="M6478 4164c-151,0 -227,-82 -369,-98 -47,-6 -96,-8 -144,-8 -48,0 -95,2 -143,6 -52,-63 -97,-133 -133,-208 35,9 73,16 113,20 32,4 62,5 90,5 100,0 180,-18 254,-42 31,2 62,3 93,3 179,0 356,-31 492,-61 16,-3 31,-7 47,-11 174,60 317,173 534,173 64,0 126,-8 184,-21 -44,76 -97,146 -159,208 -102,-46 -208,-68 -318,-68 -110,0 -226,22 -348,65 -78,27 -140,37 -193,37z"/>
  <path class="fil19" d="M5621 3602c-6,-1 -11,-2 -16,-3 -2,-8 -3,-16 -4,-24 6,10 13,19 20,27zm1998 -31c-72,-31 -159,-61 -268,-68 -10,-1 -19,-1 -28,-1 -5,0 -10,0 -16,0 66,-60 120,-129 160,-208 54,-10 105,-24 152,-41 6,35 9,70 11,106 1,19 2,37 2,54 0,54 -4,107 -13,158z"/>
  <path class="fil19" d="M7577 3083c-15,-2 -30,-4 -44,-7 2,-21 4,-42 4,-63 1,0 2,0 2,-1 12,19 23,39 34,58 1,4 3,8 4,13z"/>
  <path class="fil20" d="M5673 3024c-3,-1 -5,-1 -8,-2 6,-14 12,-28 19,-42 5,1 10,2 15,3 -9,13 -18,27 -26,41z"/>
  <path class="fil21" d="M5647 3070c5,-16 12,-32 18,-48 3,1 5,1 8,2 -9,15 -18,30 -26,46z"/>
  <path class="fil22" d="M7573 3070c-11,-19 -22,-39 -34,-58 4,0 7,-1 10,-2 9,20 17,40 24,60z"/>
  <path class="fil1" d="M6610 2391c-544,0 -992,425 -1021,968 -1,19 -1,37 -1,54 0,564 458,1022 1022,1022 563,0 1022,-458 1022,-1022 0,-17 -1,-35 -2,-54 -28,-543 -477,-968 -1020,-968zm0 2124c-607,0 -1101,-494 -1101,-1102 0,-18 0,-37 1,-58 31,-585 514,-1043 1100,-1043 585,0 1068,458 1099,1043 1,21 2,40 2,58 0,608 -494,1102 -1101,1102z"/>
  <path class="fil23" d="M4951 2526c4,10 7,20 11,30 12,38 22,76 29,114 10,53 16,107 17,159 0,23 0,45 -2,68 -5,93 -24,184 -55,271 -92,251 -290,462 -562,560 -284,103 -586,60 -824,-91 -57,-36 -111,-79 -159,-128 -34,-34 -66,-71 -94,-110 -37,-50 -69,-105 -96,-163 -4,-10 -9,-21 -13,-32 -6,-12 -10,-25 -15,-38 -28,-78 -46,-157 -53,-235 -1,-11 -2,-21 -2,-32 -1,-19 -2,-39 -2,-59 0,-1 0,-2 0,-3 1,-28 2,-55 5,-82 2,-23 5,-46 9,-69 15,-88 43,-172 82,-252 103,-211 285,-383 523,-470 272,-98 561,-63 793,72 44,26 86,56 126,89 36,29 70,62 101,97 12,13 23,27 35,41 10,13 20,26 30,40 1,2 2,3 3,5 11,15 21,31 31,47 32,53 60,110 82,171z"/>
  <path class="fil24" d="M4872 2356c-47,-5 -94,-4 -141,2 -79,11 -156,33 -232,61 -76,29 -150,63 -223,98 -74,36 -147,73 -220,110 -74,37 -148,74 -223,108 -76,35 -154,66 -233,92 -79,27 -160,50 -242,68 -41,9 -82,17 -123,24 -21,3 -42,6 -63,9 -11,1 -21,3 -32,4l-2 0c-1,-11 -2,-21 -2,-32 -1,-20 -2,-39 -2,-59 0,-1 0,-2 0,-3 9,-1 19,-2 28,-3 19,-2 39,-4 59,-7 40,-5 80,-11 119,-19 79,-16 158,-35 235,-59 77,-24 153,-52 228,-83 74,-32 149,-66 223,-101 74,-35 148,-70 224,-104 75,-34 152,-67 231,-94 79,-27 161,-49 245,-57 38,-4 76,-5 115,-2 10,15 21,30 31,47z"/>
  <path class="fil24" d="M4954 3168c-92,252 -290,462 -562,561 -285,103 -587,60 -824,-91l321 -54c201,-34 394,-107 567,-215 93,-57 191,-105 293,-142 67,-24 135,-44 205,-59z"/>
  <path class="fil24" d="M4546 2037l-124 13c-138,13 -272,44 -402,91 -80,29 -159,65 -234,106 -162,89 -338,151 -520,182l-36 6c103,-211 285,-383 523,-470 272,-99 561,-63 793,72z"/>
  <path class="fil24" d="M4762 2193c-12,2 -23,4 -35,6 -40,7 -79,15 -118,24 -9,3 -19,5 -28,8l-30 9c-20,6 -40,12 -59,18 -80,25 -158,50 -235,80 -78,29 -155,62 -232,95 -77,33 -155,66 -232,100 -39,16 -79,32 -119,48 -39,15 -80,28 -120,41 -41,14 -82,26 -123,36 -41,11 -82,21 -124,30 -42,10 -83,19 -125,27 -18,4 -36,7 -54,11 2,-23 5,-46 9,-69 12,0 24,-1 36,-2 42,-3 83,-9 124,-16 40,-8 81,-18 121,-29 40,-12 79,-25 118,-39 79,-28 155,-61 229,-98 75,-38 150,-77 225,-115 37,-19 75,-39 113,-57 38,-19 76,-38 115,-55 78,-35 159,-66 239,-93 20,-7 41,-14 61,-21l15 -5c5,-1 10,-3 15,-5 11,-3 22,-6 33,-9 26,-7 53,-13 80,-17 36,29 70,62 101,97z"/>
  <path class="fil24" d="M5011 2830c0,23 0,45 -2,67 -41,4 -82,10 -123,17 -45,9 -90,20 -134,33 -44,13 -88,27 -132,42 -86,31 -171,68 -253,110 -83,41 -166,84 -249,127 -42,21 -84,42 -126,63 -42,21 -84,42 -128,61 -86,39 -175,73 -265,103 -22,8 -44,15 -67,23l-16 5c-6,2 -11,4 -17,6 -12,4 -24,7 -36,10 -18,5 -36,9 -54,13 -34,-34 -66,-71 -95,-110 40,-7 79,-15 117,-25 10,-3 21,-6 31,-9l33 -9c22,-7 44,-14 66,-20 89,-28 175,-56 261,-89 86,-33 171,-69 257,-106 85,-36 171,-73 257,-110 43,-18 87,-36 131,-53 45,-17 89,-32 134,-46 45,-15 90,-28 136,-40 46,-12 92,-23 138,-33 45,-11 90,-20 136,-30z"/>
  <path class="fil24" d="M4965 2557c12,38 22,76 29,114 -73,6 -145,14 -217,24 -20,3 -41,6 -61,10l-31 5 -31 6c-20,3 -40,8 -60,12 -20,5 -41,9 -61,15 -79,20 -157,48 -232,82 -75,34 -148,75 -224,115 -75,40 -153,77 -232,111 -79,33 -160,62 -241,88 -82,25 -164,47 -247,67 -41,10 -83,20 -125,28 -4,1 -8,2 -13,3 -4,-10 -9,-21 -13,-32 6,-1 12,-3 19,-5 41,-10 81,-21 122,-33 81,-23 161,-48 241,-77 79,-28 156,-60 232,-96 76,-36 149,-76 222,-118 72,-43 145,-88 223,-127 38,-20 78,-38 119,-54 40,-17 82,-31 123,-44 21,-7 42,-13 63,-18 21,-6 42,-12 63,-16l32 -8 31 -7c21,-4 43,-8 64,-12 68,-13 136,-24 205,-33z"/>
  <path class="fil25" d="M4739 3508c58,-60 109,-126 149,-198 2,0 4,-1 6,-1 -12,22 -25,43 -39,63 -30,45 -64,87 -101,125 -2,2 -3,4 -5,5 -4,2 -7,4 -10,6z"/>
  <path class="fil26" d="M4313 3754c26,-7 53,-16 79,-25 135,-49 252,-126 347,-221 3,-2 6,-4 10,-6 -14,15 -28,28 -43,41 -70,63 -148,114 -231,153 -52,24 -107,43 -162,58z"/>
  <path class="fil26" d="M4888 3310c26,-45 48,-93 66,-142 -1,1 -3,1 -4,1 0,0 1,-1 1,-1 7,-20 13,-39 19,-59 5,-7 10,-14 15,-21 -14,52 -33,104 -56,155 -5,9 -9,19 -14,28 -7,13 -14,26 -21,38 -2,0 -4,1 -6,1z"/>
  <path class="fil27" d="M3575 3637c-58,-38 -112,-81 -160,-128 16,-4 32,-8 48,-12 12,-3 24,-6 36,-10 6,-2 11,-4 17,-6l16 -5c23,-8 45,-15 67,-23 64,-21 128,-45 191,-71 10,5 20,10 31,15 128,60 264,89 397,89 4,0 8,0 12,0 -109,45 -224,78 -341,98l-314 53zm-254 -238c-37,-52 -69,-106 -95,-163 2,-1 4,-1 6,-2 42,-8 84,-18 125,-28 52,-12 104,-26 156,-40 44,51 95,97 151,138 -34,11 -68,22 -103,33 -22,6 -44,13 -66,20l-33 9c-10,3 -21,6 -31,9 -36,9 -73,17 -110,24zm1629 -230c0,0 1,-1 1,-1 7,-20 13,-39 19,-59 0,0 0,0 0,0 -6,20 -12,39 -19,59 0,0 -1,1 -1,1l0 0z"/>
  <path class="fil28" d="M4078 3784c-133,0 -268,-29 -396,-89 -37,-17 -73,-37 -107,-58l314 -53c117,-20 232,-53 341,-98 133,-2 264,-32 384,-88 84,-39 162,-90 231,-152 17,-15 33,-31 48,-47 1,-1 2,-1 3,-2 -9,40 -21,79 -35,117 -11,32 -24,63 -39,93 54,-73 97,-153 128,-238l0 0c1,0 3,0 4,-1 -18,49 -40,97 -66,142 -40,72 -91,138 -149,198 -95,95 -212,172 -347,221 -26,9 -53,18 -79,25 -76,19 -155,30 -235,30z"/>
  <path class="fil28" d="M3415 3509c-34,-35 -65,-72 -94,-110 37,-7 74,-15 110,-24 10,-3 21,-6 31,-9l33 -9c22,-7 44,-14 66,-20 35,-11 69,-22 103,-33 39,29 81,55 126,78 -63,26 -127,50 -191,71 -22,8 -44,15 -67,23l-16 5c-6,2 -11,4 -17,6 -12,4 -24,7 -36,10 -16,4 -32,8 -48,12z"/>
  <path class="fil27" d="M3212 3204c-21,-51 -37,-103 -49,-156 -8,-38 -15,-77 -18,-117 9,-1 18,-2 27,-3 21,-3 42,-6 63,-9 38,-6 76,-13 113,-22 33,82 77,160 132,230 -44,14 -88,28 -133,40 -41,12 -81,23 -122,33 -5,1 -9,3 -13,4zm-71 -367c0,-38 3,-77 8,-115 11,-2 22,-5 33,-7 36,-7 73,-15 109,-23 3,19 7,39 11,58 5,21 11,42 17,63 -33,6 -65,11 -98,15 -20,3 -40,5 -59,7 -7,1 -14,2 -21,2z"/>
  <path class="fil28" d="M3145 2931c-3,-28 -4,-57 -4,-86 0,-3 0,-5 0,-8 7,0 14,-1 21,-2 19,-2 39,-4 59,-7 33,-4 65,-9 98,-15 8,29 18,57 29,84 -37,9 -75,16 -113,22 -21,3 -42,6 -63,9 -9,1 -18,2 -27,3z"/>
  <path class="fil27" d="M3160 2656c10,-46 23,-93 40,-138 4,-11 8,-22 13,-32 5,-13 11,-26 16,-38 3,-5 5,-9 7,-14l30 -5c8,-1 15,-3 22,-4 -5,41 -8,81 -8,122 0,31 2,63 5,94 -37,7 -74,11 -112,14 -4,0 -8,1 -13,1z"/>
  <path class="fil28" d="M3236 2434c6,-12 12,-24 19,-36 15,-19 31,-37 48,-54 -5,19 -8,39 -12,58 -1,8 -2,15 -3,23 -7,1 -14,3 -22,4l-30 5z"/>
  <path class="fil28" d="M3149 2722c1,-8 2,-15 3,-22 3,-15 5,-29 8,-44 5,0 9,-1 13,-1 38,-3 75,-7 112,-14 2,17 4,34 6,51 -36,8 -73,16 -109,23 -11,2 -22,5 -33,7z"/>
  <path class="fil28" d="M3226 3236c-5,-11 -9,-22 -14,-32 4,-1 8,-3 13,-4 41,-10 81,-21 122,-33 45,-12 89,-26 133,-40 11,13 21,26 33,39 -52,14 -104,28 -156,40 -41,10 -83,20 -125,28 -2,1 -4,1 -6,2z"/>
  <path class="fil4" d="M4321 1942c-10,-2 -20,-5 -29,-7 0,0 0,0 0,0 9,2 19,5 29,7 0,0 0,0 0,0z"/>
  <path class="fil4" d="M4349 1951c-2,-1 -4,-1 -6,-2 -7,-2 -15,-5 -22,-7 0,0 0,0 0,0 9,3 19,6 28,9z"/>
  <path class="fil29" d="M4899 3181c9,-45 15,-91 18,-138 1,-22 1,-44 1,-67 0,-22 -2,-44 -4,-67 31,-5 62,-9 92,-11 -4,72 -16,142 -36,211 -18,24 -37,47 -57,69 -4,1 -9,2 -14,3zm8 -329c-1,-12 -3,-23 -6,-35 0,-3 -1,-6 -1,-10 31,9 63,18 95,26 -29,6 -58,13 -88,19zm-1679 -420c80,-163 208,-303 372,-398 0,1 0,1 0,2 -158,92 -282,227 -362,383 -4,4 -7,9 -10,13zm1202 -361c-13,-6 -26,-12 -37,-18 10,-1 19,-2 29,-3l10 -1c-1,7 -1,14 -2,22zm-87 -122c-17,-5 -34,-10 -51,-14 0,0 0,0 0,0 9,2 19,5 29,7 7,2 15,5 22,7z"/>
  <path class="fil30" d="M4896 3197c1,-5 2,-10 3,-16 5,-1 10,-2 14,-3 -5,6 -11,13 -17,19z"/>
  <path class="fil30" d="M3238 2419c80,-156 204,-291 362,-383 1,30 8,60 22,90 -124,51 -232,126 -319,218 2,-13 6,-26 9,-39 -21,30 -40,60 -57,93 -6,7 -12,14 -17,21zm1155 -366c-125,-64 -129,-98 -129,-99 0,0 4,-8 28,-19 17,4 34,9 51,14 2,1 4,1 6,2 31,9 61,20 90,33 -3,22 -5,43 -7,65l-10 1c-10,1 -19,2 -29,3z"/>
  <path class="fil30" d="M4914 2909c-1,-19 -4,-38 -7,-57 30,-6 59,-13 88,-19 4,2 9,3 13,4 0,20 0,40 -2,60 0,0 0,0 0,1 -30,2 -61,6 -92,11z"/>
  <path class="fil31" d="M4913 3178c20,-22 39,-45 57,-69 -6,20 -12,39 -19,59 0,0 -1,1 -1,1 -12,3 -24,6 -37,9z"/>
  <path class="fil32" d="M4822 3407c15,-30 28,-61 39,-93 14,-38 26,-77 35,-117 6,-6 12,-13 17,-19 13,-3 25,-6 37,-9 -31,85 -74,165 -128,238z"/>
  <path class="fil32" d="M3255 2398c17,-33 36,-63 57,-93 -3,13 -7,26 -9,39 -17,17 -33,35 -48,54z"/>
  <path class="fil1" d="M4072 1949c-102,0 -205,17 -306,53 -466,169 -707,686 -538,1151 82,226 246,406 464,508 217,102 461,112 687,31 465,-169 707,-686 538,-1151 -132,-365 -478,-592 -845,-592zm0 1876c-141,0 -282,-31 -414,-92 -236,-111 -416,-307 -505,-553 -183,-506 79,-1068 586,-1252 507,-184 1069,79 1252,586 184,507 -79,1068 -585,1252 -109,39 -222,59 -334,59z"/>
  <path class="fil33" d="M2658 7403c-99,22 -193,15 -265,8 -67,-6 -114,-13 -127,4 -10,15 52,262 -271,246 -122,-6 -209,-70 -259,-153 -56,-96 -64,-217 -19,-311 98,-207 348,-258 532,-302 125,-31 219,-58 215,-129l587 121c0,0 52,419 -393,516z"/>
  <path class="fil34" d="M2025 7617c-9,0 -18,0 -27,0 -57,-3 -110,-21 -154,-54 -7,-5 -13,-11 -19,-16 25,7 51,11 79,11 7,0 15,0 23,-1 184,-15 169,-216 224,-260 74,-58 185,-38 146,-154 -25,-73 -38,-143 -44,-204 26,14 54,26 84,38 11,115 35,223 72,323 -37,16 -72,36 -104,61 0,0 0,0 -1,0 -5,0 -12,0 -19,1 -6,1 -12,2 -20,4 -4,1 -9,4 -13,6 -3,1 -5,3 -8,4l-3 3c-2,1 -3,3 -4,4 -1,1 -3,2 -4,4l-1 2c-1,1 -1,1 -3,3 -2,4 -4,9 -6,13 0,3 -1,4 -1,5l0 2c-1,7 -1,9 -1,12l0 13c0,5 0,10 0,14 -1,2 -2,4 -4,6 -22,36 -37,78 -44,121 -4,4 -9,7 -13,10 -11,7 -23,11 -35,16 -13,4 -26,7 -40,9 -19,3 -39,4 -60,4z"/>
  <path class="fil1" d="M3036 6900c-56,-1 -107,-6 -156,-13 -48,-8 -95,-17 -142,-26 -95,-17 -188,-35 -282,-54l49 -43c1,12 0,25 -4,38 -4,13 -10,25 -18,34 -15,20 -33,32 -50,42 -34,18 -66,29 -98,38 -65,19 -127,32 -188,48 -61,16 -120,35 -176,60 -55,24 -106,56 -147,97 -20,20 -37,42 -52,67 -14,25 -26,49 -32,76 -12,53 -9,112 9,165 19,53 51,101 95,134 44,33 97,51 154,54 30,1 60,0 87,-4 14,-2 27,-5 40,-9 12,-5 24,-9 35,-16 20,-13 36,-30 46,-52 10,-22 15,-48 15,-76 0,-7 0,-15 0,-23l0 -13c0,-3 0,-5 1,-12l0 -2c0,-1 1,-2 1,-5 2,-4 4,-9 6,-13 2,-2 2,-2 3,-3l1 -2c1,-2 3,-3 4,-4 1,-1 2,-3 4,-4l3 -3c3,-1 5,-3 8,-4 4,-2 9,-5 13,-6 8,-2 14,-3 20,-4 12,-2 21,-1 30,-1 37,2 67,6 99,9 63,6 124,8 183,1 119,-15 237,-63 314,-151 19,-22 35,-46 49,-72 14,-26 25,-53 34,-81 9,-28 17,-58 23,-87 3,-15 6,-30 8,-45l3 -23 2 -12 1 -5 0 -3 0 -2c0,-1 0,2 1,4 1,3 3,5 4,6zm29 -27c2,2 4,5 5,8 1,3 1,6 1,5l0 2 1 3 2 6c1,5 2,9 2,13 2,8 3,17 4,25 2,17 3,34 2,51 0,35 -5,69 -14,102 -17,67 -51,131 -97,185 -22,26 -48,50 -77,71 -13,11 -28,20 -43,29 -15,9 -30,18 -46,25 -63,29 -129,47 -197,56 -68,9 -136,7 -202,1 -32,-2 -65,-6 -93,-7 -7,0 -14,0 -18,0 -2,1 -3,1 -3,1 0,0 1,0 2,-1 1,0 2,-1 2,-1 1,-1 1,-1 1,-1 1,-1 2,-1 2,-2 1,0 1,-1 2,-2l2 -3c2,-3 4,-6 5,-10l0 -3c1,-3 1,-1 1,-1l0 11c0,8 0,17 0,26 -1,35 -6,74 -23,111 -9,18 -20,36 -33,51 -14,16 -30,28 -47,39 -17,11 -35,18 -53,25 -18,5 -36,10 -54,13 -36,5 -71,6 -105,5 -72,-3 -145,-27 -204,-72 -59,-44 -103,-107 -126,-176 -23,-69 -28,-143 -10,-215 8,-36 24,-71 42,-101 18,-31 41,-59 66,-84 51,-51 111,-87 173,-115 63,-27 127,-46 190,-63 63,-16 127,-29 186,-45 30,-9 59,-18 81,-30 11,-6 21,-13 25,-19 4,-6 5,-10 6,-18l0 -53 49 10c102,22 204,44 305,67 51,11 102,22 151,35 49,13 96,28 137,46z"/>
  <path class="fil33" d="M4777 7290l-16 -259c59,1 110,-43 146,-104 69,-117 84,-299 -2,-360 -73,-51 -143,-20 -204,12 -56,29 -106,58 -145,24 -65,-58 45,-271 221,-335 262,-96 517,95 587,330 12,37 18,76 19,115 16,526 -606,577 -606,577z"/>
  <path class="fil35" d="M5384 6721c0,0 0,0 0,-1 0,1 0,1 0,1zm0 -2c0,0 0,0 0,0 0,0 0,0 0,0zm0 -1c0,0 0,0 0,0 0,0 0,0 0,0zm0 -1c0,0 0,0 0,0 0,0 0,0 0,0zm-1 -1c0,0 0,0 0,0 0,0 0,0 0,0zm0 -1c0,0 0,0 0,0 0,0 0,0 0,0zm0 -1c0,0 0,0 0,0 0,0 0,0 0,0zm-844 -144c0,0 0,0 0,0 0,0 0,0 0,0zm0 0c0,0 0,0 0,0 0,0 0,0 0,0zm0 0c0,0 0,0 0,-1 0,1 0,1 0,1zm0 -1c0,0 0,0 -1,0 1,0 1,0 1,0zm-1 0c0,0 0,0 0,0 0,0 0,0 0,0zm0 0c-11,-66 52,-184 155,-257 -103,73 -166,191 -155,257zm155 -257c0,0 0,0 1,0 -1,0 -1,0 -1,0zm1 0c0,0 0,0 0,0 0,0 0,0 0,0zm0 0c0,-1 0,-1 0,-1 0,0 0,0 0,1zm1 -1c0,0 0,0 0,0 0,0 0,0 0,0zm1 -1c0,0 0,0 0,0 0,0 0,0 0,0zm1 0c0,0 0,0 0,0 0,0 0,0 0,0zm0 0c0,0 0,0 0,0 0,0 0,0 0,0zm77 -41c1,0 1,0 1,0 0,0 0,0 -1,0zm1 -1c0,0 0,0 0,0 0,0 0,0 0,0zm0 0c0,0 0,0 1,0 -1,0 -1,0 -1,0zm1 0c0,0 0,0 0,0 0,0 0,0 0,0zm0 0c0,0 0,0 1,0 -1,0 -1,0 -1,0zm1 0c0,0 0,0 0,0 0,0 0,0 0,0z"/>
  <path class="fil33" d="M5360 6715c-2,-8 -4,-17 -7,-25 -36,-120 -120,-228 -228,-293 1,3 1,6 1,8 -4,15 -31,24 -69,24 -23,0 -50,-3 -78,-9 -76,-16 -134,-49 -129,-73 1,-3 3,-6 6,-9 -29,4 -60,11 -90,22 -109,40 -193,137 -225,218 -1,-2 -2,-5 -2,-8 0,0 0,0 0,0 0,0 0,0 0,0 0,0 0,0 0,0 0,0 0,0 0,0 0,0 0,0 0,-1 0,0 0,0 0,0 0,0 0,0 -1,0 0,0 0,0 0,0 0,0 0,0 0,0 0,0 0,0 0,0 -11,-66 52,-184 155,-257 0,0 0,0 0,0 0,0 0,0 1,0 0,0 0,0 0,0 0,0 0,0 0,0 0,0 0,0 0,0 0,-1 0,-1 0,-1 0,0 0,0 1,0 0,0 0,0 0,0 0,0 1,-1 1,-1 0,0 0,0 0,0 0,0 0,0 1,0 0,0 0,0 0,0 0,0 0,0 0,0 0,0 0,0 0,0 24,-17 50,-31 77,-41 1,0 1,0 1,0 0,0 0,-1 0,-1 0,0 0,0 0,0 0,0 0,0 0,0 0,0 0,0 1,0 0,0 0,0 0,0 0,0 0,0 0,0 0,0 0,0 0,0 0,0 0,0 1,0 0,0 0,0 0,0 0,0 0,0 0,0l0 0c48,-18 95,-26 141,-26 207,0 389,163 446,356 12,37 18,76 19,115l0 0c-1,-39 -7,-78 -19,-115 3,42 1,81 -4,117z"/>
  <path class="fil34" d="M4913 7264c-2,-12 -3,-24 -6,-36 -9,-56 -22,-111 -40,-166 -4,-13 -9,-25 -13,-37 -3,-9 -6,-17 -9,-24 24,-19 45,-44 62,-74 43,43 98,83 156,86 4,0 8,0 13,0 131,0 257,-98 284,-298 7,30 11,60 12,90 1,15 1,29 0,42 8,-38 12,-81 12,-126 0,4 0,8 0,11 0,352 -292,484 -471,532zm471 -544c0,0 0,0 0,-1 0,1 0,1 0,1zm0 -1c0,0 0,0 0,-1 0,1 0,1 0,1zm0 -1c0,0 0,0 0,-1 0,1 0,1 0,1zm0 -1c-1,0 -1,-1 -1,-1 0,0 0,1 1,1zm-1 -1c0,0 0,-1 0,-1 0,0 0,1 0,1zm0 -1c0,-1 0,-1 0,-1 0,0 0,0 0,1zm0 -1c0,-1 0,-1 0,-1 0,0 0,0 0,1z"/>
  <path class="fil34" d="M5372 6847c1,-13 1,-27 0,-42 -1,-30 -5,-60 -12,-90 5,-36 7,-75 4,-117 12,37 18,76 19,115l0 0c0,0 0,0 0,1 0,0 0,0 0,0 0,0 0,0 0,1 0,0 0,0 0,0 0,0 0,1 0,1 0,0 0,0 0,0 0,0 0,1 1,1 0,0 0,0 0,0 0,1 0,1 0,1 0,0 0,0 0,0 0,1 0,1 0,1 0,0 0,0 0,0 0,1 0,1 0,1 0,1 0,1 0,1 0,45 -4,88 -12,126z"/>
  <path class="fil1" d="M4777 7329c-20,0 -38,-15 -39,-36 -2,-22 14,-41 36,-43 1,0 151,-13 296,-88 188,-96 280,-247 274,-448 -4,-138 -86,-280 -207,-362 -108,-73 -231,-90 -346,-47 -119,43 -200,161 -213,229 -4,22 0,35 4,39 15,13 40,2 91,-24 67,-35 158,-82 255,-14 89,62 91,208 53,325 -34,103 -110,213 -221,210 -22,0 -39,-18 -39,-40 1,-22 19,-40 41,-39 0,0 1,0 1,0 63,0 117,-78 142,-156 34,-102 24,-203 -23,-236 -53,-37 -101,-17 -173,20 -54,28 -122,64 -179,13 -28,-24 -38,-65 -29,-113 19,-101 122,-237 263,-289 140,-51 288,-31 417,56 144,98 237,261 242,425 7,232 -103,413 -319,523 -158,81 -317,95 -324,95 -1,0 -2,0 -3,0z"/>
  <path class="fil36" d="M4563 8452c-25,0 -48,-3 -71,-10l0 0c-121,-35 -206,-135 -254,-207 0,0 0,0 0,0 2,3 4,6 6,9 19,28 40,54 64,79 46,49 104,93 173,116 4,1 8,2 13,4l14 3c9,2 18,4 28,5 8,1 17,1 26,1 10,0 20,-1 29,-2 19,-2 37,-5 54,-10 17,-5 34,-12 50,-20 58,-27 108,-69 145,-122 -20,28 -44,55 -73,78 -63,50 -135,76 -204,76z"/>
  <path class="fil33" d="M3578 7563c-163,342 217,710 650,576 0,0 97,213 275,265 156,46 363,-106 352,-289 -18,-317 -348,-471 -348,-471 0,0 140,-370 74,-650l-1003 569z"/>
  <path class="fil8" d="M3596 7571c-28,84 -31,170 -6,249 13,39 32,77 56,110 24,34 54,64 87,90 67,51 147,84 230,98 42,6 85,8 127,5 43,-2 85,-10 127,-21l3 -1c18,-5 37,5 44,22l0 0c6,12 13,26 21,38 7,13 16,26 24,38 17,25 36,48 56,69 41,43 88,78 141,96 49,17 105,9 156,-15 50,-24 94,-63 122,-111 14,-23 24,-49 29,-75 2,-13 3,-26 3,-40 0,-6 -1,-14 -2,-21 0,-7 -1,-14 -2,-21 -8,-58 -29,-113 -60,-164 -30,-50 -69,-96 -114,-136 -23,-20 -47,-39 -72,-56 -12,-8 -25,-17 -38,-24 -12,-8 -26,-16 -38,-22l0 0c-18,-9 -27,-30 -20,-49 18,-49 33,-102 46,-154 13,-53 24,-106 31,-159 8,-53 12,-106 12,-159 0,-26 -1,-53 -4,-79 -3,-25 -7,-51 -13,-76l0 -1c-5,-21 9,-42 30,-47 21,-5 43,8 47,30 7,28 12,57 15,86 3,29 4,58 4,87 0,57 -4,114 -12,170 -8,57 -19,112 -33,167 -14,55 -29,108 -49,163l-20 -50c17,8 31,16 45,25 15,8 29,18 42,27 28,19 54,40 79,62 50,44 95,96 130,154 35,59 61,125 70,193 2,9 2,17 3,26 1,9 2,17 2,26 1,19 -1,38 -4,56 -7,36 -20,71 -39,102 -37,62 -92,110 -157,141 -16,8 -33,15 -50,20 -17,5 -35,8 -54,10 -18,2 -37,3 -55,1 -10,-1 -19,-3 -28,-5l-14 -3c-5,-2 -9,-3 -13,-4 -69,-23 -127,-67 -173,-116 -24,-25 -45,-51 -64,-79 -10,-14 -19,-28 -27,-42 -9,-15 -17,-29 -25,-46l0 0 48 21c-92,31 -193,41 -290,26 -98,-15 -192,-55 -269,-117 -39,-31 -73,-68 -101,-109 -29,-41 -50,-88 -63,-136 -12,-49 -15,-101 -7,-150 7,-49 25,-96 51,-137 5,-9 18,-12 27,-6 8,5 11,15 8,23z"/>
  <path class="fil37" d="M4228 8139c0,0 98,-21 184,-137l-184 137z"/>
  <path class="fil8" d="M4220 8101c0,0 2,-1 4,-1 2,0 4,-1 5,-1 4,-1 8,-2 12,-3 8,-3 17,-6 25,-9 16,-7 31,-15 47,-25 15,-10 29,-20 43,-33 7,-5 14,-12 21,-18 6,-7 12,-14 19,-20l1 -2c8,-7 20,-8 28,0 7,7 8,17 3,25 -6,9 -11,17 -17,26 -7,8 -12,16 -19,24 -13,16 -28,31 -43,45 -16,14 -33,27 -51,39 -9,6 -18,11 -28,16 -5,3 -10,5 -15,7 -3,1 -6,3 -8,4 -4,1 -6,2 -10,3 -22,5 -43,-9 -47,-30 -5,-21 8,-43 30,-47z"/>
  <path class="fil34" d="M4562 8373c-19,0 -38,-3 -56,-9 -53,-18 -100,-53 -141,-96 0,0 -1,0 -1,-1 25,4 50,5 75,5 16,0 32,0 48,-2 22,21 45,35 67,43 12,16 24,31 40,44 5,4 9,7 14,11 -15,3 -31,5 -46,5zm114 -33c-4,0 -7,0 -10,0 -15,-3 -30,-9 -44,-18 55,-5 106,-42 145,-100l1 9c0,7 2,15 0,22 0,4 -1,8 -2,12 -23,30 -54,56 -88,75 -1,0 -1,0 -2,0zm-623 -215c-30,0 -60,-3 -90,-7 -44,-8 -88,-20 -129,-39 48,-1 96,-4 146,-9 12,-1 24,-2 36,-3 14,20 30,40 48,57 -4,1 -8,1 -11,1z"/>
  <path class="fil1" d="M3596 7571c-28,84 -31,170 -6,249 13,39 32,77 56,110 24,34 54,64 87,90 67,51 147,84 230,98 42,6 85,8 127,5 43,-2 85,-10 127,-21l3 -1c18,-5 37,5 44,22l0 0c6,12 13,26 21,38 7,13 16,26 24,38 17,25 36,48 56,69 41,43 88,78 141,96 49,17 105,9 156,-15 50,-24 94,-63 122,-111 14,-23 24,-49 29,-75 2,-13 3,-26 3,-40 0,-6 -1,-14 -2,-21 0,-7 -1,-14 -2,-21 -8,-58 -29,-113 -60,-164 -30,-50 -69,-96 -114,-136 -23,-20 -47,-39 -72,-56 -12,-8 -25,-17 -38,-24 -12,-8 -26,-16 -38,-22l0 0c-18,-9 -27,-30 -20,-49 18,-49 33,-102 46,-154 13,-53 24,-106 31,-159 8,-53 12,-106 12,-159 0,-26 -1,-53 -4,-79 -3,-25 -7,-51 -13,-76l0 -1c-5,-21 9,-42 30,-47 21,-5 43,8 47,30 7,28 12,57 15,86 3,29 4,58 4,87 0,57 -4,114 -12,170 -8,57 -19,112 -33,167 -14,55 -29,108 -49,163l-20 -50c17,8 31,16 45,25 15,8 29,18 42,27 28,19 54,40 79,62 50,44 95,96 130,154 35,59 61,125 70,193 2,9 2,17 3,26 1,9 2,17 2,26 1,19 -1,38 -4,56 -7,36 -20,71 -39,102 -37,62 -92,110 -157,141 -16,8 -33,15 -50,20 -17,5 -35,8 -54,10 -18,2 -37,3 -55,1 -10,-1 -19,-3 -28,-5l-14 -3c-5,-2 -9,-3 -13,-4 -69,-23 -127,-67 -173,-116 -24,-25 -45,-51 -64,-79 -10,-14 -19,-28 -27,-42 -9,-15 -17,-29 -25,-46l0 0 48 21c-92,31 -193,41 -290,26 -98,-15 -192,-55 -269,-117 -39,-31 -73,-68 -101,-109 -29,-41 -50,-88 -63,-136 -12,-49 -15,-101 -7,-150 7,-49 25,-96 51,-137 5,-9 18,-12 27,-6 8,5 11,15 8,23z"/>
  <path class="fil37" d="M4228 8139c0,0 98,-21 184,-137l-184 137z"/>
  <path class="fil8" d="M4220 8101c0,0 2,-1 4,-1 2,0 4,-1 5,-1 4,-1 8,-2 12,-3 8,-3 17,-6 25,-9 16,-7 31,-15 47,-25 15,-10 29,-20 43,-33 7,-5 14,-12 21,-18 6,-7 12,-14 19,-20l1 -2c8,-7 20,-8 28,0 7,7 8,17 3,25 -6,9 -11,17 -17,26 -7,8 -12,16 -19,24 -13,16 -28,31 -43,45 -16,14 -33,27 -51,39 -9,6 -18,11 -28,16 -5,3 -10,5 -15,7 -3,1 -6,3 -8,4 -4,1 -6,2 -10,3 -22,5 -43,-9 -47,-30 -5,-21 8,-43 30,-47z"/>
  <path class="fil1" d="M4548 8242c9,16 21,31 33,45 12,13 26,25 40,35 14,9 30,15 45,18 15,2 29,-1 43,-6l2 0c15,-5 32,3 37,19 5,15 -3,32 -19,37 -1,1 -2,1 -3,1 -23,5 -49,6 -72,-1 -23,-7 -43,-19 -60,-33 -17,-14 -30,-31 -42,-48 -12,-17 -22,-34 -31,-54 -3,-7 1,-16 8,-19 7,-3 15,-1 19,6l0 0z"/>
  <path class="fil1" d="M4711 8110c20,9 36,19 52,32 15,13 29,29 40,48 2,5 5,10 7,15l5 16c3,11 5,22 5,33 1,11 -1,22 -2,33 -2,11 -5,21 -8,31 -4,16 -20,26 -36,22 -16,-4 -26,-21 -22,-37 1,-1 1,-2 1,-3l2 -4c3,-7 7,-14 9,-21 2,-8 4,-15 4,-22 2,-7 0,-15 0,-22l-2 -11c0,-4 -2,-7 -3,-11 -6,-14 -15,-28 -26,-40 -11,-12 -25,-23 -38,-32l-1 0c-7,-5 -9,-14 -5,-21 4,-6 12,-8 18,-6z"/>
  <path class="fil38" d="M4478 5254c38,564 -235,1076 -672,1371 -217,146 -474,238 -753,257 -280,18 -547,-40 -781,-156 -472,-234 -809,-707 -847,-1270 -55,-843 583,-1572 1426,-1628 843,-55 1572,583 1627,1426z"/>
  <path class="fil39" d="M2339 6659c-93,-29 -184,-66 -272,-110l-18 -9c-15,-11 -31,-23 -45,-36 31,17 64,33 99,49 48,20 93,38 142,57l34 14c20,8 41,15 61,23 -1,4 -1,8 -1,12zm1657 -241c89,-111 139,-245 139,-393 1,-48 -5,-96 -15,-143 17,-19 34,-41 51,-63 189,-247 204,-571 39,-745 8,-24 0,-73 -28,-153 -42,-120 -100,-228 -171,-325 5,-68 5,-138 1,-208 -2,-30 -5,-60 -9,-89 258,256 412,592 436,958 29,435 -137,860 -443,1161zm-2388 -420c-53,-110 -92,-226 -116,-346 49,42 101,81 155,116 -12,32 -22,63 -28,91 -9,48 -13,94 -11,139z"/>
  <path class="fil1" d="M2954 3865c-33,0 -67,1 -100,3 -398,26 -761,205 -1023,505 -262,299 -392,683 -366,1080 35,528 351,1002 825,1238 234,116 497,168 760,151 263,-17 517,-104 734,-250 439,-296 690,-808 655,-1335 -26,-397 -206,-761 -505,-1023 -274,-240 -619,-369 -980,-369zm-2 3059c-242,1 -481,-55 -697,-163 -500,-248 -832,-747 -869,-1303 -57,-863 599,-1612 1462,-1669 419,-28 823,109 1138,385 315,277 504,659 532,1078 37,555 -228,1094 -690,1405 -229,155 -496,246 -773,264 -34,2 -69,3 -103,3z"/>
  <path class="fil33" d="M4820 7413c-86,299 -378,578 -843,618 -1147,98 -1776,-538 -1567,-1585 129,-645 1038,-247 1335,-98 59,30 94,50 94,50 0,0 -37,182 272,216 297,32 570,114 688,380 57,128 63,275 21,419z"/>
  <path class="fil34" d="M3747 8002c-372,0 -680,-87 -909,-254 14,3 29,6 44,10 54,11 118,23 188,23 19,0 37,-1 56,-3 329,-30 419,-260 444,-385l0 0c5,-23 7,-43 8,-57 -10,236 72,376 205,376 59,0 127,-27 202,-84 -11,21 -19,43 -25,66 -5,16 -8,31 -12,47 -3,16 -5,34 -7,50 -2,30 -2,61 2,92 0,0 0,1 1,2 1,11 3,21 5,32 5,23 12,46 21,68 1,2 2,4 3,7 0,0 0,0 0,0 -78,6 -153,10 -226,10zm-1264 -728c-30,-84 -51,-173 -63,-268 149,46 323,70 508,70 23,0 47,0 71,-1 -6,30 -8,60 -5,89 0,0 0,0 0,0 -68,71 -304,48 -511,110zm226 -536c-99,-11 -197,-30 -293,-56 0,-3 1,-7 1,-10 87,27 176,48 267,62 8,1 17,3 25,4z"/>
  <path class="fil1" d="M2877 6129c-82,0 -159,12 -225,42 -109,50 -175,143 -203,283 -95,477 -16,875 230,1150 271,303 719,437 1294,388 326,-28 594,-183 737,-425 108,-181 127,-390 53,-557 -118,-266 -413,-331 -656,-357 -130,-14 -222,-56 -271,-123 -30,-42 -37,-82 -38,-109 -104,-56 -564,-292 -921,-292zm870 1952c-490,0 -877,-145 -1127,-424 -263,-295 -349,-716 -249,-1219 33,-164 117,-278 249,-339 424,-194 1205,246 1238,265 15,8 23,25 20,41 -1,2 -6,41 23,80 36,47 110,78 214,89 265,29 586,101 720,404 85,191 64,426 -57,629 -156,265 -447,433 -798,463 -80,7 -158,11 -233,11z"/>
  <path class="fil40" d="M2351 5355c-27,24 -56,44 -85,60 -127,72 -272,81 -363,47 -111,-41 -381,-301 -389,-352 -7,-51 -2,-131 76,-173 118,-65 286,-97 531,-262 170,-114 243,104 318,309l84 -23c-9,183 -79,311 -172,394z"/>
  <path class="fil41" d="M1847 4870c84,-37 182,-85 296,-162 25,-17 47,-25 66,-25 6,0 13,1 19,3 21,7 40,25 58,50 0,0 0,1 0,1 -19,-13 -39,-21 -63,-21 -24,0 -52,9 -84,27 -103,60 -194,99 -292,127z"/>
  <path class="fil42" d="M2129 4881c13,-28 27,-56 42,-86 0,0 0,1 -2,2 1,0 1,-1 2,-2 12,-18 27,-30 46,-30 7,0 15,2 23,6 -42,33 -78,70 -111,110z"/>
  <path class="fil1" d="M1553 5104l0 0 0 0zm467 416c-50,0 -95,-7 -131,-21 -113,-41 -403,-310 -414,-383 -14,-95 21,-173 96,-214 42,-23 89,-42 143,-64 101,-40 227,-90 385,-196 54,-36 106,-47 153,-31 105,34 159,182 217,339l7 20c8,21 -3,43 -23,51 -21,7 -44,-3 -51,-24l-8 -20c-46,-126 -98,-269 -166,-291 -24,-8 -51,-1 -85,22 -165,111 -295,162 -400,204 -52,21 -96,38 -134,59 -57,31 -62,88 -56,131 19,48 261,285 364,323 82,30 228,24 356,-60 90,-60 199,-178 211,-406 1,-22 19,-38 41,-38 22,2 39,20 38,42 -13,261 -141,398 -246,468 -98,64 -205,89 -297,89z"/>
  <path class="fil43" d="M3480 6675c-36,8 -83,15 -141,21 -114,12 -271,20 -470,27l-405 -63c-129,-61 -234,-95 -345,-144 -60,-26 -128,-60 -193,-103 -106,-69 -204,-161 -251,-284 -28,-75 -37,-162 -17,-262 24,-119 115,-272 195,-411 133,-231 239,-662 657,-781 287,-82 689,-37 950,78 62,27 116,57 163,93 188,140 279,354 360,714 16,70 63,179 92,299 12,54 21,111 21,166 -1,76 -15,147 -40,213 -84,215 -295,371 -576,437z"/>
  <path class="fil44" d="M2189 4933c82,-97 187,-179 331,-220 97,-27 209,-40 327,-40 205,0 425,40 597,116 44,19 84,40 120,63 -10,8 -18,18 -24,28 -1,2 -2,5 -4,7 -21,-11 -43,-22 -67,-32 -177,-78 -416,-125 -643,-125 -124,0 -244,14 -350,44 -117,33 -210,90 -287,159z"/>
  <path class="fil40" d="M3695 6463c-103,149 -270,240 -451,251 -90,5 -195,9 -313,13l-436 -68c-138,-65 -252,-102 -370,-154 -66,-29 -139,-65 -209,-111 0,0 0,0 0,0 -184,-133 -289,-498 -107,-631 70,-51 135,-50 194,-34 -6,-35 -7,-72 -3,-111 19,-165 136,-288 260,-275 125,13 211,157 192,321 -3,28 -9,55 -17,79 18,1 39,2 62,5 153,17 234,59 302,97 -7,-41 -7,-85 1,-129 33,-174 183,-292 336,-263 153,29 250,193 217,367 -3,17 -7,32 -12,48 265,-46 586,259 354,595z"/>
  <path class="fil1" d="M2696 6656c121,19 245,26 368,20 203,-10 332,-22 407,-40 359,-83 584,-318 585,-611 1,-116 -41,-239 -75,-338 -16,-46 -29,-85 -37,-118 -105,-471 -227,-660 -500,-780 -270,-119 -659,-151 -924,-76 -313,90 -443,369 -548,593 -29,62 -56,120 -85,170l-6 11c-76,131 -162,279 -184,388 -52,254 91,452 438,605 46,20 91,38 138,57l35 13c125,50 255,85 388,106zm282 101c-98,0 -197,-8 -294,-23 -139,-22 -275,-59 -405,-110l-34 -14c-49,-19 -94,-37 -142,-57 -380,-168 -543,-402 -484,-694 25,-122 115,-276 193,-412l7 -11c27,-47 53,-104 81,-164 112,-238 251,-536 599,-635 280,-79 691,-46 977,80 334,146 449,406 546,834 6,29 19,67 34,110 36,105 80,235 79,364 -2,332 -249,596 -646,688 -81,19 -211,32 -421,42 -30,1 -60,2 -90,2z"/>
  <path class="fil1" d="M3159 5266c-20,-8 -41,-15 -61,-23 -20,-7 -39,-15 -59,-18 -40,-8 -81,-6 -119,7 -38,11 -72,36 -115,55 -43,19 -91,26 -137,21 -47,-6 -92,-24 -129,-52 -37,-28 -65,-60 -99,-80 -34,-20 -74,-32 -114,-33 -21,-1 -40,2 -62,5 -21,3 -43,5 -64,8 -5,0 -10,-3 -10,-8 -1,-5 2,-9 6,-10 21,-5 42,-10 63,-15 21,-5 44,-11 67,-12 45,-1 92,9 133,31 10,5 20,11 30,18 9,7 18,15 26,21 17,14 34,29 49,40 33,23 70,38 109,42 39,5 79,0 116,-15 17,-7 37,-18 56,-27 10,-5 20,-10 31,-15 11,-4 22,-8 33,-11 45,-12 93,-11 137,2 22,6 43,16 61,26 20,9 39,19 58,29 3,2 5,7 3,10 -2,3 -6,5 -9,4z"/>
  <path class="fil1" d="M3030 5096c-14,-4 -28,-9 -42,-14 -15,-5 -27,-10 -41,-12 -27,-4 -54,-2 -79,6 -25,9 -47,25 -78,39 -30,14 -64,19 -98,15 -33,-4 -65,-17 -92,-37 -26,-20 -44,-41 -66,-55 -23,-14 -49,-22 -76,-23 -13,-1 -26,0 -42,2 -14,2 -29,3 -44,4 -5,1 -9,-3 -10,-8 0,-4 3,-8 7,-9 14,-4 28,-8 43,-12 14,-4 30,-8 46,-9 32,-2 66,5 95,21 7,3 14,8 21,12 7,5 13,11 19,15 11,9 23,20 33,27 22,15 46,25 72,28 25,3 52,-1 76,-10 11,-5 25,-12 38,-19 7,-3 14,-6 22,-9 8,-3 16,-6 24,-8 31,-8 65,-7 96,2 15,5 30,12 43,19 13,7 26,14 39,22 3,2 5,6 3,10 -2,3 -6,4 -9,3z"/>
  <path class="fil1" d="M2257 6143c0,0 18,47 51,100 8,11 16,23 24,34 45,58 108,113 189,111 51,0 98,-18 140,-44 21,-13 41,-28 59,-44 78,-68 124,-150 124,-150l-326 -63 -261 56z"/>
  <path class="fil45" d="M2308 6243c8,11 16,23 24,34 45,58 108,113 189,111 51,0 98,-18 140,-44 21,-13 41,-28 59,-44 -31,-41 -79,-68 -134,-70 -36,-1 -69,9 -98,26 -27,-19 -60,-31 -95,-32 -31,-1 -59,6 -85,19z"/>
  <path class="fil1" d="M2506 6247c0,0 -35,16 -46,39 0,0 5,-49 27,-62 23,-14 19,23 19,23z"/>
  <path class="fil1" d="M2811 6173l-13 -2c-51,-4 -100,-8 -147,-13 -48,-6 -94,-14 -142,-23l19 0 -261 54 34 -62c2,6 5,14 8,21 3,7 6,14 10,20 6,14 14,28 22,41 15,26 33,51 53,73 20,21 42,39 66,50 12,5 24,9 36,12 13,2 25,2 39,1 55,-5 109,-34 155,-73 23,-20 45,-42 65,-66 11,-12 20,-25 29,-37 5,-7 10,-13 14,-20l6 -9 3 -5 2 -2 0 -1 1 -1c-3,4 -5,11 -5,18 -1,6 1,13 3,18l3 6zm65 -48l4 9c3,5 4,11 4,18 -1,7 -3,14 -6,19l0 0 -1 2 -2 3 -3 6 -8 11c-4,8 -9,15 -14,22 -11,15 -21,29 -32,42 -23,28 -47,54 -74,77 -27,24 -57,45 -91,63 -16,8 -34,15 -52,21 -19,6 -38,10 -58,12 -19,2 -40,2 -61,-1 -20,-3 -40,-10 -58,-18 -37,-17 -68,-41 -94,-68 -26,-27 -48,-56 -67,-87 -9,-15 -18,-31 -26,-46 -4,-8 -8,-16 -12,-25 -4,-8 -7,-15 -11,-25l-19 -50 53 -12 260 -58 9 -2 10 2c61,11 123,24 185,40 56,14 111,30 164,45z"/>
  <path class="fil40" d="M1757 5661c-107,-39 -225,-463 -241,-543 -1,-3 -1,-6 -2,-8 -7,-51 -2,-131 76,-173 0,0 31,86 189,95 157,9 392,-237 392,-237 -111,214 -170,396 -209,537 -69,249 -78,373 -205,329z"/>
  <path class="fil46" d="M1802 5670c-7,0 -14,-1 -22,-3 -7,-1 -15,-3 -23,-6 -15,-5 -30,-18 -44,-36 -93,-113 -183,-438 -197,-507 80,98 106,259 223,294 22,6 42,9 61,9 91,0 146,-66 162,-89 -60,216 -74,338 -160,338z"/>
  <path class="fil1" d="M2189 4805c-53,143 -110,281 -155,425 -22,72 -41,145 -59,219 -10,37 -19,74 -31,113 -6,19 -13,38 -21,58 -10,20 -21,42 -41,62 -11,10 -24,19 -39,24 -15,6 -30,8 -44,8 -14,-1 -27,-3 -39,-6 -5,-2 -11,-3 -17,-5 -3,-1 -8,-3 -11,-5 -4,-2 -8,-4 -10,-6 -25,-16 -39,-34 -53,-51 -13,-18 -23,-36 -33,-53 -39,-72 -67,-145 -92,-218 -13,-37 -25,-74 -35,-111 -11,-37 -21,-75 -30,-113 -2,-10 -5,-19 -6,-32 -2,-11 -3,-22 -3,-34 0,-22 3,-46 10,-69 6,-23 18,-45 34,-64 16,-19 36,-34 57,-45 19,-10 43,-3 53,16 10,19 3,42 -15,53l0 0c-26,15 -43,36 -50,64 -4,13 -6,28 -6,44 1,8 1,15 3,23 0,6 3,16 5,24 18,72 41,145 65,215 25,71 52,141 86,204 9,16 18,30 28,44 9,12 20,24 28,29 1,0 2,1 3,1 0,0 0,0 1,1 3,1 7,2 10,3 7,1 13,2 19,3 10,-1 13,-2 21,-8 7,-6 15,-19 21,-34 7,-14 13,-31 19,-48 11,-35 20,-72 30,-108 20,-74 41,-149 65,-222 24,-74 51,-147 83,-217 32,-71 69,-139 114,-203 6,-9 18,-11 27,-5 8,6 11,15 8,24z"/>
  <path class="fil40" d="M3069 6143c0,0 28,209 -172,219 -167,8 -341,-148 -394,-266 -33,35 -161,182 -320,113 -184,-79 -80,-252 -80,-252l966 186z"/>
  <path class="fil46" d="M2885 6362c-30,0 -59,-5 -89,-14 30,9 59,14 89,14 4,0 8,0 12,0 8,-1 15,-1 22,-2 -7,1 -14,1 -22,2 -4,0 -8,0 -12,0zm35 -2c0,0 0,0 0,0 0,0 0,0 0,0zm141 -121c0,0 0,0 0,0 0,0 0,0 0,0zm0 -1c8,-29 9,-58 9,-76 0,0 0,0 0,0 0,18 -1,47 -9,76z"/>
  <path class="fil1" d="M2558 6182c-6,-7 -11,-14 -16,-20 0,0 0,0 0,0 5,6 10,13 16,20z"/>
  <path class="fil1" d="M2449 6150c6,-6 11,-11 17,-16l0 0c-6,5 -11,10 -17,16z"/>
  <path class="fil46" d="M2095 6141c0,0 0,0 0,0 0,0 0,0 0,0zm0 0c-33,-54 -21,-114 -8,-150 -13,36 -25,96 8,150zm439 -101l-7 -2c-1,-1 -1,-3 -1,-5 0,-1 -1,-3 -1,-4 3,4 6,7 9,11z"/>
  <path class="fil46" d="M2885 6362c-30,0 -59,-5 -89,-14 -93,-28 -180,-96 -238,-166 -6,-7 -11,-14 -16,-20 8,-5 14,-13 18,-22 12,-25 1,-55 -25,-67 0,0 -1,-2 -1,-3l-2 -5c-1,-3 -1,-7 -2,-10 -1,-6 -3,-11 -3,-17l7 2c83,98 235,234 360,234 6,0 11,0 16,-1 91,-9 139,-62 160,-111 0,18 -1,47 -9,76 0,0 0,1 0,1 0,0 0,0 0,0 -15,52 -52,109 -141,121 0,0 0,0 0,0 0,0 -1,0 -1,0 -7,1 -14,1 -22,2 -4,0 -8,0 -12,0zm-617 -134c-27,0 -56,-6 -85,-19 -44,-18 -71,-42 -88,-68 0,0 0,0 0,0 0,0 0,0 0,0 -33,-54 -21,-114 -8,-150 2,-4 3,-8 5,-11 5,46 13,114 92,142 30,11 57,15 83,15 88,0 152,-53 190,-99 0,8 -1,16 -1,24 0,5 0,9 1,14l0 7c0,3 1,5 1,9l6 36c1,2 1,4 2,6 -6,5 -11,10 -17,16 -44,37 -107,78 -181,78z"/>
  <path class="fil1" d="M3084 6141c8,36 8,73 -1,110 -8,37 -28,75 -60,102 -32,27 -73,41 -111,45 -19,3 -39,4 -59,2 -19,-1 -38,-4 -57,-8 -74,-18 -140,-56 -197,-102 -29,-23 -55,-49 -79,-78 -24,-28 -45,-59 -62,-96l81 13c-19,21 -41,44 -65,63 -24,20 -50,38 -79,52 -29,14 -62,24 -96,27 -33,4 -68,0 -100,-10 -16,-6 -31,-12 -45,-20 -14,-8 -28,-17 -41,-27 -26,-21 -49,-50 -60,-83 -11,-34 -11,-68 -3,-99 7,-31 19,-58 38,-84 5,-8 16,-10 24,-4 7,4 9,13 7,20l-1 2c-4,11 -8,24 -11,37 -3,12 -5,25 -5,37 -1,24 3,47 13,66 9,19 25,34 44,46 18,12 42,21 63,26 44,11 88,2 130,-20 21,-11 41,-25 60,-41 9,-8 18,-17 27,-26 9,-9 18,-18 27,-29l51 -56 31 69c11,26 28,52 48,75 19,25 41,47 64,68 47,41 101,75 158,93 29,9 58,13 87,12 29,0 57,-7 79,-21 23,-14 40,-37 51,-66 6,-13 10,-29 13,-44 3,-15 5,-32 5,-47l0 -2c0,-8 7,-15 16,-15 8,0 14,6 15,13z"/>
  <path class="fil1" d="M2532 5895c-3,16 -6,31 -7,47 -2,15 -3,31 -3,46 0,15 2,30 4,45 1,7 2,15 4,22 1,3 1,7 2,10l2 5c0,1 1,3 1,3 26,12 37,42 25,67 -11,26 -41,37 -67,26 -16,-8 -26,-22 -29,-38l-6 -36c0,-4 -1,-6 -1,-9l0 -7c-1,-5 -1,-9 -1,-14 0,-9 1,-18 1,-27 2,-18 4,-36 8,-53 4,-17 8,-34 14,-51 5,-16 12,-32 19,-48 4,-9 15,-13 24,-9 8,4 12,12 10,21l0 0z"/>
  <path class="fil1" d="M2739 5922c-7,60 -141,113 -266,97 -118,-15 -194,-109 -181,-168 10,-49 82,-60 206,-44 125,17 249,55 241,115z"/>
  <path class="fil34" d="M2483 5891c-10,0 -21,-1 -33,-2 -55,-7 -97,-31 -95,-45 1,-9 17,-13 40,-13 17,0 39,2 62,5 55,7 99,19 97,34 -2,11 -31,21 -71,21z"/>
  <path class="fil47" d="M3833 6103c-26,0 -57,-8 -93,-27 -1,0 -2,0 -2,-1 -29,-56 -73,-105 -125,-141 -52,-135 -16,-320 10,-480 20,-117 12,-189 -21,-272 -48,-120 -70,-182 -67,-230 7,23 21,46 36,72 57,97 151,258 68,581 -39,153 -27,277 36,368 56,83 135,110 158,113 5,0 9,1 14,1 26,0 55,-10 87,-28 -30,26 -61,44 -101,44z"/>
  <path class="fil42" d="M3738 6075c-63,-33 -102,-82 -125,-141 52,36 96,85 125,141z"/>
  <path class="fil40" d="M4140 5794c-80,104 -214,263 -302,252 -31,-3 -249,-85 -160,-431 123,-482 -132,-626 -107,-707 1,-3 2,-5 3,-8 37,-62 184,-64 303,15 196,132 187,83 280,163 149,128 161,364 69,571 -22,51 -51,100 -86,145z"/>
  <path class="fil41" d="M4203 5200c-14,-18 -30,-35 -48,-51 -94,-81 -85,-32 -285,-165 -63,-43 -134,-62 -193,-62 -25,0 -47,3 -66,10 -2,-5 -3,-9 -2,-12l0 0c5,-9 19,-17 39,-22 11,-2 24,-4 39,-4 48,0 110,16 168,54 105,71 154,92 190,107 30,12 47,19 86,53 30,26 54,57 72,92z"/>
  <path class="fil46" d="M3847 6007c-1,0 -3,0 -4,0 -11,-2 -66,-22 -105,-82 -47,-72 -54,-173 -22,-300 91,-354 -18,-541 -76,-641 -7,-12 -16,-26 -22,-38 197,184 183,546 163,697 -15,119 59,223 166,223 35,0 74,-11 114,-36 -133,160 -194,177 -214,177z"/>
  <path class="fil1" d="M3574 4900l1 0 -1 0zm113 -6c-15,0 -28,2 -39,4 -20,5 -34,13 -39,22l0 0c-2,9 17,41 31,64 58,100 167,287 76,641 -32,127 -25,228 22,300 39,60 94,80 105,82 18,2 90,-8 265,-237 175,-226 185,-523 23,-662 -39,-34 -56,-41 -86,-53 -36,-15 -85,-36 -190,-107 -58,-38 -120,-54 -168,-54zm160 1193c-5,0 -9,-1 -14,-1 -23,-3 -102,-30 -158,-113 -63,-91 -75,-215 -36,-368 83,-323 -11,-484 -68,-581 -31,-53 -57,-99 -31,-144 17,-29 48,-49 90,-59 80,-18 185,6 269,62 99,66 144,85 177,99 32,13 58,24 107,66 193,166 187,511 -12,771 -140,182 -244,268 -324,268z"/>
  <path class="fil48" d="M4031 6505c17,255 -414,491 -962,527 -351,23 -665,-41 -849,-157 -104,-66 -167,-147 -173,-239 -2,-17 -1,-34 2,-51 238,118 501,189 779,202 74,4 149,3 225,-2 359,-24 690,-143 968,-330 5,16 9,33 10,50z"/>
  <path class="fil49" d="M2927 6997c-207,0 -400,-31 -554,-91 -19,-7 -37,-15 -54,-23 47,8 103,19 163,30 103,20 215,39 304,39 63,0 115,-10 141,-38 27,-29 11,-57 -28,-85 8,0 16,0 24,0 44,0 88,-2 132,-5 334,-22 656,-126 936,-303 -1,102 -91,208 -248,295 -177,97 -417,159 -677,177 -47,3 -93,4 -139,4z"/>
  <path class="fil1" d="M2088 6647c14,100 117,194 285,259 188,73 434,104 693,87 260,-18 500,-80 677,-177 157,-87 247,-193 248,-295 -280,177 -602,281 -936,303 -333,22 -666,-39 -967,-177zm840 429c-218,0 -421,-33 -584,-96 -208,-81 -328,-202 -337,-342 -1,-20 0,-40 3,-60l9 -52 48 23c303,151 643,219 983,196 340,-22 669,-134 949,-323l45 -30 15 51c6,19 10,39 11,59 9,140 -93,276 -289,383 -187,102 -439,169 -709,187 -49,3 -97,4 -144,4z"/>
  <path class="fil36" d="M5114 8329c-94,0 -181,-40 -245,-82 0,0 0,0 0,0 13,9 27,17 42,25 59,33 127,56 200,57 0,0 1,0 1,0 1,0 2,0 3,0 2,0 3,0 4,0 2,0 3,0 5,0l15 -1c9,-1 19,-2 28,-4 18,-4 36,-10 53,-18 17,-7 33,-16 48,-27 15,-10 29,-21 42,-33 46,-44 80,-99 99,-160 -10,33 -25,65 -45,95 -60,90 -150,146 -241,148l0 0c-3,0 -6,0 -9,0zm-876 -94c-8,-3 -16,-6 -24,-9 -19,-9 -37,-18 -54,-28 0,0 0,0 0,0 25,15 51,27 78,37 0,0 0,0 0,0z"/>
  <path class="fil50" d="M4238 8235c0,0 0,0 0,0 0,0 0,0 0,0 0,0 0,0 0,0 0,0 0,0 0,0z"/>
  <path class="fil51" d="M4487 8270c0,0 -1,0 -1,0 14,-1 27,-3 40,-4 0,0 0,0 0,0 -13,2 -26,3 -39,4zm73 -10c0,0 0,0 -1,0 25,-5 49,-12 72,-20 42,-14 82,-32 120,-54 0,0 0,0 0,0 -61,36 -126,60 -191,74z"/>
  <path class="fil52" d="M4439 8272c-25,0 -50,-1 -75,-5 0,0 0,0 0,0 25,3 50,5 75,5 1,0 2,0 4,0 14,0 29,-1 43,-2 0,0 1,0 1,0 -16,2 -32,2 -48,2z"/>
  <path class="fil53" d="M4364 8267c-43,-5 -85,-16 -126,-32 0,0 0,0 0,0 41,16 83,26 126,32 0,0 0,0 0,0zm505 -20c-23,-14 -43,-29 -59,-43 0,0 0,0 0,0 5,4 10,8 16,13 14,10 28,21 43,30 0,0 0,0 0,0zm-709 -49c-7,-4 -14,-8 -21,-13 7,5 14,9 21,13 0,0 0,0 0,0z"/>
  <path class="fil53" d="M4526 8266c0,0 0,0 0,0 11,-2 22,-4 33,-6 1,0 1,0 1,0 -11,2 -23,4 -34,6z"/>
  <path class="fil53" d="M4810 8204c-15,-12 -27,-22 -36,-31 -8,4 -16,9 -23,13 0,0 0,0 0,0 7,-4 15,-9 23,-13 4,4 8,8 13,12 7,6 15,13 23,19 0,0 0,0 0,0z"/>
  <path class="fil36" d="M5420 7952c-2,-18 -6,-35 -13,-52 -3,-9 -6,-17 -9,-25 -4,-8 -7,-16 -11,-23 -11,-22 -23,-44 -37,-64 0,1 0,1 0,1 22,32 40,66 54,102 8,20 13,40 16,61z"/>
  <path class="fil52" d="M3949 7917c-2,-11 -4,-21 -5,-32 -1,-1 -1,-2 -1,-2 2,11 4,23 6,34z"/>
  <path class="fil37" d="M4778 8122c0,0 87,-51 133,-187l-133 187z"/>
  <path class="fil8" d="M4759 8088c0,0 2,-1 3,-2 2,-1 4,-2 5,-3 4,-2 7,-4 11,-7 7,-5 13,-10 20,-16 13,-11 26,-24 37,-38 11,-14 22,-28 32,-44 5,-8 9,-16 13,-24 4,-8 8,-17 12,-25l1 -2c5,-9 17,-14 26,-9 9,5 13,14 11,24 -3,9 -6,19 -9,29 -3,9 -6,19 -10,29 -7,19 -17,38 -27,56 -11,18 -22,36 -36,52 -7,9 -14,17 -22,25 -4,4 -8,7 -12,11 -3,2 -5,4 -7,6 -3,2 -4,3 -9,6 -18,11 -43,5 -54,-14 -11,-19 -4,-43 15,-54z"/>
  <path class="fil33" d="M4762 6923c149,247 129,642 129,642 0,0 362,45 477,341 66,171 -84,379 -246,383 -186,5 -344,-167 -344,-167 -371,260 -845,27 -795,-349 0,0 22,-175 155,-294l624 -556z"/>
  <path class="fil1" d="M4796 6903c15,25 28,51 40,78 12,27 22,54 31,81 18,55 31,110 40,166 10,56 17,112 21,168 3,57 5,112 3,170l-35 -41c19,3 35,6 51,10 17,4 33,8 49,13 32,10 63,21 94,35 61,27 120,62 171,107 51,44 96,99 126,162 4,7 7,15 11,23 3,8 6,16 9,25 7,17 11,36 13,54 6,37 3,74 -5,109 -16,70 -54,133 -105,183 -13,12 -27,23 -42,33 -15,11 -31,20 -48,27 -17,8 -35,14 -53,18 -9,2 -19,3 -28,4l-15 1c-3,0 -6,0 -9,0 -1,0 -3,0 -4,0 -73,-1 -141,-24 -200,-57 -30,-16 -59,-35 -85,-55 -14,-11 -27,-21 -39,-32 -13,-12 -25,-23 -38,-36l52 5c-52,37 -109,66 -170,86 -60,21 -124,32 -188,32 -128,1 -259,-41 -358,-128 -49,-43 -90,-98 -115,-159 -25,-61 -34,-129 -29,-194 2,-16 4,-34 7,-50 4,-16 7,-31 12,-47 8,-31 21,-60 37,-88 31,-56 74,-107 127,-142 10,-6 22,-3 28,6 5,7 4,17 -1,23l0 1c-36,45 -64,94 -85,145 -10,26 -19,53 -28,79 -5,13 -9,27 -12,40 -1,6 -3,13 -4,19 0,6 -1,14 -2,20 -4,54 3,108 24,158 20,49 53,94 93,130 82,72 194,109 305,108 56,0 111,-10 164,-28 53,-17 104,-43 150,-75 16,-12 38,-9 51,5l1 0c9,10 20,21 31,30 11,10 23,20 35,29 24,18 49,35 74,49 52,28 108,46 164,47 52,1 103,-24 143,-62 41,-38 71,-89 83,-143 6,-27 8,-54 4,-80 -2,-14 -5,-27 -9,-39 -2,-6 -5,-13 -8,-20 -3,-6 -6,-13 -9,-19 -26,-53 -63,-99 -107,-138 -44,-39 -96,-70 -151,-94 -28,-12 -56,-23 -85,-31 -15,-5 -29,-9 -44,-12 -14,-3 -30,-6 -43,-8l0 0c-20,-3 -35,-21 -34,-41 2,-53 0,-108 -3,-161 -4,-54 -10,-108 -20,-160 -9,-53 -21,-105 -37,-156 -9,-25 -18,-49 -28,-73 -11,-24 -23,-47 -36,-69l0 -1c-11,-18 -5,-43 13,-54 19,-11 43,-5 55,14z"/>
  <path class="fil1" d="M4759 8088c0,0 2,-1 3,-2 2,-1 4,-2 5,-3 4,-2 7,-4 11,-7 7,-5 13,-10 20,-16 13,-11 26,-24 37,-38 11,-14 22,-28 32,-44 5,-8 9,-16 13,-24 4,-8 8,-17 12,-25l1 -2c5,-9 17,-14 26,-9 9,5 13,14 11,24 -3,9 -6,19 -9,29 -3,9 -6,19 -10,29 -7,19 -17,38 -27,56 -11,18 -22,36 -36,52 -7,9 -14,17 -22,25 -4,4 -8,7 -12,11 -3,2 -5,4 -7,6 -3,2 -4,3 -9,6 -18,11 -43,5 -54,-14 -11,-19 -4,-43 15,-54z"/>
  <path class="fil1" d="M5115 8122c13,11 29,22 44,31 16,10 33,17 49,22 17,4 33,5 48,3 15,-3 28,-10 40,-19l1 -1c14,-9 32,-6 42,7 10,13 7,32 -6,41 -1,1 -2,2 -3,2 -21,12 -45,21 -69,22 -24,0 -47,-5 -67,-13 -21,-9 -39,-20 -55,-33 -17,-13 -32,-26 -46,-42 -5,-6 -5,-16 2,-21 5,-5 14,-5 19,0l1 1z"/>
  <path class="fil1" d="M5229 7946c21,2 40,7 59,14 19,8 37,19 53,34 4,4 8,7 11,12l10 13c6,9 12,19 15,30 4,10 6,21 8,32 2,11 2,21 2,32 1,17 -11,31 -28,32 -16,1 -30,-12 -31,-28 0,-1 0,-2 0,-3l0 -5c0,-8 2,-16 2,-23 -1,-8 -1,-15 -3,-22 -1,-8 -4,-14 -6,-21l-6 -10c-1,-3 -4,-6 -6,-9 -10,-12 -22,-22 -37,-30 -14,-8 -31,-15 -46,-19l-1 0c-8,-2 -13,-10 -11,-18 1,-7 8,-12 15,-11z"/>
  <path class="fil34" d="M5116 8250c-2,0 -3,0 -4,0 -56,-1 -112,-19 -164,-47 -25,-14 -50,-31 -74,-49 -12,-9 -24,-19 -35,-29 -1,-1 -2,-2 -3,-3 4,-4 8,-9 12,-14 14,-16 25,-34 36,-52 10,-18 20,-37 27,-56 4,-10 7,-20 10,-29 3,-10 6,-20 9,-29 2,-10 -2,-19 -11,-24 -2,-1 -5,-2 -8,-2 -8,0 -15,4 -18,11l-1 2c-4,8 -8,17 -12,25 -4,8 -8,16 -13,24 -10,16 -21,30 -32,44 -11,14 -24,27 -37,38 -7,6 -13,11 -20,16 -4,3 -7,5 -11,7 -1,1 -2,2 -4,2 -2,1 -4,2 -6,4 0,0 0,0 0,0l0 0c-1,0 -1,0 -1,1 -47,32 -97,58 -150,75 -53,18 -108,28 -164,28 -1,0 -2,0 -4,0 -109,0 -220,-37 -301,-108 -40,-36 -73,-81 -93,-130 -2,-5 -4,-9 -6,-14 68,73 197,178 376,178 10,0 21,-1 32,-1 272,-19 471,-343 525,-343 2,0 3,0 5,1 46,21 -76,298 69,374 31,17 60,26 87,29 2,2 4,3 7,5 16,13 34,24 55,33 5,2 10,4 16,5 -29,18 -61,28 -94,28z"/>
  <path class="fil1" d="M5114 8282c-132,0 -248,-87 -303,-136 1,0 2,-1 3,-2 4,-4 8,-7 12,-11 3,-4 7,-7 10,-11 1,1 2,2 3,3 11,10 23,20 35,29 24,18 49,35 74,49 52,28 108,46 164,47 1,0 2,0 4,0 33,0 65,-10 94,-28 15,5 31,8 48,8 0,0 1,0 1,0 -41,31 -89,51 -137,52 -3,0 -5,0 -8,0zm-674 -57c-230,0 -429,-144 -457,-353 0,0 19,30 55,69 2,5 4,9 6,14 20,49 53,94 93,130 81,71 192,108 301,108 2,0 3,0 4,0 56,0 111,-10 164,-28 53,-17 103,-43 150,-75 -16,11 -21,31 -14,48 -99,60 -203,87 -302,87zm317 -136l0 0zm0 0c2,-2 4,-3 6,-4 0,1 0,1 -1,1 -1,1 -3,2 -3,2 0,0 0,0 0,0 -1,0 -1,0 -2,1z"/>
  <path class="fil34" d="M5241 8179c-10,0 -21,-2 -33,-4 -3,-1 -6,-2 -9,-3 55,-19 95,-70 116,-139 0,0 0,0 0,0l6 10c2,7 5,13 6,21 1,4 2,8 2,12 -13,36 -34,70 -60,99 -4,1 -8,2 -13,3 -5,1 -10,1 -15,1z"/>
  <path class="fil1" d="M5269 8175c26,-29 47,-63 60,-99 0,3 0,7 1,10 0,7 -2,15 -2,23l0 5c0,1 0,2 0,3 0,9 5,17 11,22 -3,6 -7,11 -11,17 -4,-2 -8,-3 -13,-3 -6,0 -12,2 -18,5l-1 1c-8,7 -18,12 -27,16z"/>
  <path class="fil1" d="M4811 8146c-21,-18 -33,-31 -33,-31 -11,8 -23,16 -36,23 -7,-17 -2,-37 14,-48 0,-1 0,-1 1,-1l0 0c0,0 0,0 0,0 1,-1 1,-1 2,-1 0,0 0,0 0,0 0,0 2,-1 3,-2 1,0 1,0 1,-1 2,0 3,-1 4,-2 4,-2 7,-4 11,-7 7,-5 13,-10 20,-16 13,-11 26,-24 37,-38 11,-14 22,-28 32,-44 5,-8 9,-16 13,-24 4,-8 8,-17 12,-25l1 -2c3,-7 10,-11 18,-11 3,0 6,1 8,2 9,5 13,14 11,24 -3,9 -6,19 -9,29 -3,9 -6,19 -10,29 -7,19 -17,38 -27,56 -11,18 -22,36 -36,52 -4,5 -8,10 -12,14 -3,4 -7,7 -10,11 -4,4 -8,7 -12,11 -1,1 -2,2 -3,2z"/>
  <path class="fil1" d="M5258 8230c-17,0 -33,-3 -48,-8 -6,-1 -11,-3 -16,-5 -21,-9 -39,-20 -55,-33 -3,-2 -5,-3 -7,-5 6,0 12,1 18,1 18,0 34,-3 49,-8 3,1 6,2 9,3 12,2 23,4 33,4 5,0 10,0 15,-1 5,-1 9,-2 13,-3 9,-4 19,-9 27,-16l1 -1c6,-3 12,-5 18,-5 5,0 9,1 13,3 -19,28 -43,53 -69,74 0,0 -1,0 -1,0z"/>
  <path class="fil34" d="M5344 7997c-1,-1 -2,-2 -3,-3 -5,-5 -10,-9 -15,-13 3,-19 5,-39 5,-61 1,2 1,4 2,6 4,12 7,25 9,39 2,10 2,21 2,32z"/>
  <path class="fil1" d="M5377 8047c-4,-10 -9,-19 -15,-28l-10 -13c-2,-4 -5,-7 -8,-9 0,-11 0,-22 -2,-32 -2,-14 -5,-27 -9,-39 -1,-2 -1,-4 -2,-6 0,-37 -4,-76 -13,-116 19,28 36,60 50,94 18,49 20,100 9,149z"/>
  <path class="fil1" d="M5339 8139c-6,-5 -11,-13 -11,-22 0,-1 0,-2 0,-3l0 -5c0,-8 2,-16 2,-23 -1,-3 -1,-7 -1,-10 0,-4 -1,-8 -2,-12 -1,-8 -4,-14 -6,-21l-6 -10c0,0 0,0 0,0 5,-16 9,-34 11,-52 5,4 10,8 15,13 1,1 2,2 3,3 3,2 6,5 8,9l10 13c6,9 11,18 15,28 -8,32 -21,63 -38,92z"/>
  <path class="fil33" d="M3580 7314c0,0 0,32 -10,79 -25,125 -115,355 -444,385 -92,9 -177,-6 -244,-20 -76,-17 -130,-33 -146,-16 -12,13 19,267 -299,211 -154,-28 -240,-141 -262,-262 -14,-82 0,-167 42,-234 207,-324 782,-159 795,-335l568 192z"/>
  <path class="fil51" d="M2522 7961c-26,0 -54,-3 -85,-8 -154,-28 -240,-141 -262,-262 33,38 83,75 163,91 44,9 84,13 120,13 131,0 210,-58 191,-189 -7,-49 9,-67 40,-67 58,0 168,58 296,83 54,10 114,17 175,17 166,0 339,-54 410,-246 -25,125 -115,355 -444,385 -19,2 -37,3 -56,3 -70,0 -134,-12 -188,-23 -15,-4 -30,-7 -44,-10 -33,-7 -59,-13 -78,-13 -11,0 -20,2 -24,7 -2,2 -3,11 -4,23 -6,56 -24,196 -210,196z"/>
  <path class="fil1" d="M3599 7314c19,138 -42,278 -146,373 -52,48 -115,83 -180,104 -67,21 -134,32 -203,32 -69,1 -136,-10 -200,-24 -32,-6 -64,-14 -92,-19 -7,-1 -13,-2 -18,-2 -2,0 -3,1 -3,1 0,0 1,0 2,-1 1,-1 3,-1 6,-3l1 -2 1 -1 3 -2c1,-2 3,-5 4,-7 1,-1 1,-2 1,-3l1 -2 1 -1c0,-2 0,-1 0,0l-2 11c0,8 -1,16 -3,25 -5,36 -15,73 -36,108 -11,17 -24,33 -39,47 -16,13 -33,24 -51,33 -37,16 -75,23 -111,24 -36,1 -71,-3 -105,-8 -71,-12 -141,-45 -194,-96 -53,-52 -88,-120 -103,-191 -14,-71 -10,-146 16,-214 13,-35 33,-68 54,-95 23,-29 48,-54 77,-76 56,-43 121,-72 186,-91 65,-19 131,-30 196,-38 65,-9 129,-13 190,-22 31,-5 61,-11 86,-19 12,-4 23,-8 32,-13 8,-4 15,-10 22,-21l2 -4c6,-10 19,-13 28,-7 5,3 9,8 10,13 2,11 2,22 -1,33 -3,12 -9,22 -15,32 -14,18 -32,29 -50,38 -17,8 -34,13 -51,17 -17,4 -34,7 -50,10 -66,10 -130,16 -192,25 -63,8 -124,20 -182,38 -58,18 -112,43 -158,79 -22,17 -42,38 -60,60 -17,23 -31,46 -41,72 -19,51 -23,110 -11,165 11,55 38,106 78,144 39,38 90,63 146,72 30,6 59,9 87,8 28,-1 54,-6 77,-16 22,-10 39,-25 52,-46 13,-20 20,-45 25,-73 1,-7 1,-15 2,-23l2 -13c0,-3 1,-6 2,-11l1 -3c0,-1 1,-2 1,-4 1,-1 1,-2 2,-4 1,-2 3,-6 5,-8 3,-3 3,-3 4,-4l2 -2c1,-1 2,-2 4,-3 11,-9 21,-12 29,-13 9,-2 15,-2 21,-2 12,0 21,2 30,3 36,6 66,14 97,21 61,14 122,23 182,24 120,-1 243,-33 329,-111 44,-39 77,-88 102,-142 12,-27 23,-55 33,-84 10,-28 18,-59 26,-88l0 -2c3,-11 14,-17 25,-14 8,2 13,9 14,16z"/>
  <path class="fil1" d="M3350 8011c-47,0 -93,-7 -137,-20 -11,-3 -17,-14 -14,-25 4,-10 15,-16 25,-13 224,67 497,-55 712,-320 221,-273 366,-690 193,-1006l-7 -12 1907 -2316c7,-8 19,-9 28,-2 8,7 9,19 2,28l-1889 2295c172,331 23,758 -203,1037 -184,227 -410,354 -617,354z"/>
  <path class="fil1" d="M4165 6625l-38 -13 677 -2150c3,-11 14,-16 24,-13 11,3 17,14 13,25l-518 1647 1069 -2678c4,-10 16,-15 26,-11 10,4 15,15 11,25l-1264 3168z"/>
  <path class="fil54" d="M7164 2402c-9,57 -22,113 -39,167 -287,26 -796,-11 -1369,-108 -572,-97 -1065,-230 -1328,-348 2,-56 8,-114 18,-171 0,-3 1,-5 1,-8 5,-25 10,-50 15,-75 14,-57 31,-113 51,-168 1,-2 1,-4 2,-6 31,-81 68,-157 112,-229 83,-137 188,-256 311,-355 296,-241 691,-357 1097,-288 403,68 735,304 937,625 83,131 143,277 178,431 19,82 30,167 33,253 0,7 0,14 1,21 1,58 -2,116 -8,175 -2,22 -5,44 -9,66 -1,6 -2,12 -3,18z"/>
  <path class="fil55" d="M6874 3042c-35,44 -73,85 -114,124 -57,55 -118,105 -184,149 -283,191 -637,278 -1001,216 -364,-61 -671,-261 -875,-535 -45,-61 -85,-125 -120,-191 -27,-53 -51,-107 -71,-163 328,118 729,223 1166,297 438,74 851,107 1199,103z"/>
  <path class="fil55" d="M7125 2569c-287,26 -796,-11 -1369,-108 -572,-97 -1065,-230 -1328,-348 2,-56 8,-114 18,-171 0,-3 1,-5 1,-8 5,-25 10,-50 15,-75 14,-57 31,-113 51,-168 1,-2 1,-4 2,-6 31,-81 68,-157 112,-229 83,-137 188,-256 311,-355 240,-195 544,-308 866,-308 -118,51 -229,117 -328,198 -122,99 -228,218 -311,355 -44,72 -81,148 -111,229 -1,2 -2,4 -3,6 -1,3 -2,7 -4,11 -74,236 81,461 297,581 412,228 1560,344 1810,361 -4,19 -8,19 -13,18 -5,0 -10,-1 -16,17z"/>
  <path class="fil56" d="M5675 2939c438,74 851,107 1199,103 -35,44 -73,85 -114,124 -273,10 -677,-23 -1121,-98 -427,-72 -804,-168 -1059,-263 -27,-53 -51,-107 -71,-163 328,118 729,223 1166,297z"/>
  <path class="fil56" d="M7167 2384c-1,6 -2,12 -3,18 -9,57 -22,113 -39,167 -287,26 -796,-11 -1369,-108 -572,-97 -1065,-230 -1328,-348 2,-56 8,-114 18,-171 0,-3 1,-5 1,-8 240,126 738,268 1321,367 607,102 1141,130 1399,83z"/>
  <path class="fil56" d="M4599 1493l56 -74c150,113 645,258 1203,352 666,113 1145,113 1273,55l38 85c-170,77 -703,57 -1327,-48 -580,-98 -1080,-247 -1243,-370z"/>
  <path class="fil56" d="M4918 1143l40 -84c192,92 567,192 976,261 429,73 825,100 1031,72l13 92c-216,29 -621,2 -1059,-72 -418,-71 -801,-174 -1001,-269z"/>
  <path class="fil56" d="M4489 1723l52 -77c179,121 691,269 1276,368 613,104 1168,130 1350,64l32 88c-199,72 -760,48 -1398,-60 -606,-103 -1121,-253 -1312,-383z"/>
  <path class="fil56" d="M4688 3016l12 -20 2 -23 5 0 4 3c162,93 522,196 915,262 396,67 758,88 946,54l8 46c-192,34 -561,14 -962,-54 -404,-68 -761,-171 -930,-268z"/>
  <path class="fil1" d="M4578 2708c180,412 558,709 1004,784 446,76 900,-81 1205,-410 -342,-2 -726,-38 -1118,-104 -392,-67 -767,-159 -1091,-270zm1226 882c-78,0 -157,-6 -235,-20 -503,-85 -923,-435 -1097,-914l-29 -80 79 29c338,122 739,224 1160,295 421,71 833,107 1192,103l85 -1 -54 65c-272,334 -679,523 -1101,523z"/>
  <path class="fil57" d="M7903 2725c-34,199 -440,311 -1029,317 -348,4 -761,-29 -1199,-103 -437,-74 -838,-179 -1166,-297 -554,-199 -901,-439 -867,-638 31,-181 368,-289 871,-313 -20,55 -37,111 -51,168 -143,14 -229,43 -237,89 -8,46 67,104 203,165 263,118 756,251 1328,348 573,97 1082,134 1369,108 149,-13 238,-42 246,-89 8,-46 -64,-102 -195,-162 6,-59 9,-117 8,-175 467,187 750,401 719,582z"/>
  <path class="fil58" d="M4468 1836c-2,8 -4,16 -6,23 -143,14 -229,43 -237,89 -8,46 67,104 203,165 174,79 450,164 783,240 -20,20 -35,42 -44,65 -128,-31 -249,-64 -362,-99 -492,-151 -702,-297 -690,-368 7,-42 103,-94 353,-115z"/>
  <path class="fil55" d="M4475 1760l2 19c-127,8 -230,22 -312,40 72,-29 175,-48 310,-59z"/>
  <path class="fil55" d="M4478 1798l-1 -19c2,0 4,0 7,-1l-6 20z"/>
  <path class="fil58" d="M4165 1819c-75,29 -116,69 -125,119 -8,49 18,97 68,143 129,121 418,231 675,310 116,36 241,70 372,101 3,39 19,80 48,121 -194,-46 -378,-98 -546,-154 -596,-201 -788,-386 -771,-484 9,-54 91,-115 279,-156z"/>
  <path class="fil58" d="M5648 2934c-427,-73 -818,-176 -1139,-292 -554,-199 -901,-439 -867,-638 31,-181 368,-289 871,-313 -6,16 -12,33 -17,49l-2 -38c-294,17 -651,76 -682,260 -12,72 27,141 97,207 164,154 497,284 724,361 200,67 424,128 660,180 84,75 205,151 355,224z"/>
  <path class="fil59" d="M5155 2492c-131,-31 -256,-65 -372,-101 -257,-79 -546,-189 -675,-310 -50,-46 -76,-94 -68,-143 9,-50 50,-90 125,-119 82,-18 185,-32 312,-40l1 19c-3,12 -7,25 -10,38 -250,21 -346,73 -353,115 -12,71 198,217 690,368 113,35 234,68 362,99 -5,11 -8,23 -10,35 -2,13 -3,26 -2,39z"/>
  <path class="fil60" d="M4477 1779c-127,8 -230,22 -312,40 72,-29 175,-48 310,-59l2 19z"/>
  <path class="fil60" d="M4478 1798l3 37c-4,0 -9,1 -13,1 3,-13 7,-26 10,-38z"/>
  <path class="fil60" d="M6699 2715c-291,-11 -625,-47 -968,-105 -199,-34 -394,-73 -576,-118 -1,-13 0,-26 2,-39 2,-12 5,-24 10,-35 182,44 377,84 577,118 339,57 670,93 957,104 514,19 761,-50 773,-121 8,-43 -70,-125 -308,-230l23 -51 7 -18c125,55 217,107 275,158 60,53 86,104 78,153 -30,177 -479,198 -850,184z"/>
  <path class="fil59" d="M5293 2710c-236,-52 -460,-113 -660,-180 -227,-77 -560,-207 -724,-361 -70,-66 -109,-135 -97,-207 31,-184 388,-243 682,-260l2 38c-4,13 -8,26 -12,38 -3,1 -5,1 -7,1l-2 -19c-135,11 -238,30 -310,59 -188,41 -270,102 -279,156 -17,98 175,283 771,484 168,56 352,108 546,154 23,32 53,64 90,97z"/>
  <path class="fil58" d="M4475 1760l2 19c-127,8 -230,22 -312,40 72,-29 175,-48 310,-59z"/>
  <path class="fil60" d="M4496 1740l2 38c-5,0 -10,0 -14,0 4,-12 8,-25 12,-38z"/>
  <path class="fil60" d="M6794 2895c-329,-3 -707,-40 -1093,-105 -139,-23 -276,-50 -408,-80 -37,-33 -67,-65 -90,-97 164,38 335,73 510,103 383,64 757,101 1082,104 628,7 871,-105 887,-203 10,-54 -47,-138 -211,-239 -72,-44 -165,-91 -282,-140 -7,-3 -13,-6 -20,-9l29 -69c272,112 590,285 559,470 -41,240 -621,269 -963,265z"/>
  <path class="fil1" d="M7903 2725l0 0 0 0zm-3447 -991c-455,28 -751,133 -775,277 -28,166 302,400 841,594 338,122 739,224 1160,295 421,71 833,107 1192,103 573,-6 962,-118 990,-285 24,-144 -220,-339 -641,-516 -1,31 -2,62 -5,92 141,68 203,130 192,193 -11,67 -101,106 -281,122 -304,27 -819,-14 -1379,-109 -561,-95 -1061,-226 -1339,-351 -165,-74 -236,-140 -225,-208 11,-63 89,-100 245,-118 7,-30 16,-60 25,-89zm2365 1348c-351,0 -748,-36 -1152,-104 -426,-72 -832,-175 -1173,-299 -604,-217 -929,-466 -893,-681 45,-267 588,-331 908,-346l60 -3 -21 56c-20,53 -36,108 -49,163l-6 28 -29 3c-184,17 -202,55 -202,55 0,1 4,44 180,123 268,121 773,253 1319,345 545,92 1066,134 1359,108 191,-17 210,-56 210,-57 0,0 -4,-42 -173,-119l-26 -12 4 -28c6,-56 8,-114 7,-170l-1 -60 55 22c297,119 789,359 744,626 -37,215 -425,343 -1067,350 -18,0 -36,0 -54,0z"/>
  <path class="fil61" d="M7048 2399c0,-6 1,-11 2,-17 6,-59 8,-117 7,-175 0,-4 0,-8 0,-11 32,-4 62,-9 87,-15 0,45 -3,89 -7,133l-4 28 26 12c4,2 7,3 10,5 -1,8 -2,17 -4,25 -34,6 -73,11 -117,15zm3 -296c-5,-53 -13,-106 -24,-158 53,-6 97,-16 130,-29 11,60 19,121 22,183l-5 -3 -7 -18c-6,3 -14,5 -21,7l-3 -1 0 2c-26,7 -56,13 -92,17zm-47 -248c-36,-125 -90,-244 -159,-353 -1,-3 -3,-5 -4,-8 51,-1 97,-5 137,-10l-5 -36c78,124 136,261 170,405l-12 -27c-27,13 -70,22 -127,29zm-227 -452c-205,-270 -508,-465 -868,-526 -78,-13 -155,-20 -232,-20 -1,0 -2,0 -4,0 40,-22 80,-42 121,-60 3,0 5,0 7,0 76,0 154,7 232,20 382,65 702,281 906,578 -47,5 -101,7 -162,8z"/>
  <path class="fil62" d="M5142 966c196,-107 420,-167 652,-169 -41,18 -81,38 -121,60 -186,1 -366,39 -531,109z"/>
  <path class="fil63" d="M7024 2536c6,-23 10,-47 14,-70 1,-6 2,-12 3,-18 3,-16 5,-33 7,-49 44,-4 83,-9 117,-15 0,1 0,3 0,4 -1,6 -2,12 -3,18 -7,42 -16,83 -26,123 -5,0 -9,1 -14,1 -30,3 -63,5 -98,6z"/>
  <path class="fil63" d="M7027 1945c-1,-4 -2,-8 -3,-12 -6,-26 -13,-53 -20,-78 57,-7 100,-16 127,-29l12 27c2,7 3,13 5,20 3,14 6,29 9,43 -33,13 -77,23 -130,29z"/>
  <path class="fil63" d="M6841 1494c-20,-31 -42,-62 -64,-91 61,-1 115,-3 162,-8 10,15 20,31 30,47 2,2 3,4 4,6l5 36c-40,5 -86,9 -137,10z"/>
  <path class="fil63" d="M7057 2196c0,-4 0,-7 0,-10 -1,-28 -3,-55 -6,-83 36,-4 66,-10 92,-17l1 58c0,12 0,25 0,37 -25,6 -55,11 -87,15zm117 -100l-28 -11c7,-2 15,-4 21,-7l7 18z"/>
  <path class="fil64" d="M7014 2580c4,-15 7,-29 10,-44 35,-1 68,-3 98,-6 5,0 9,-1 14,-1 -4,15 -9,30 -13,44 -34,3 -70,5 -109,7zm155 -221c-3,-2 -6,-3 -10,-5l-26 -12 4 -28c4,-44 7,-88 7,-133 0,-12 0,-25 0,-37l-1 -58 0 -2 3 1 28 11 5 3c1,9 1,18 2,27 0,7 0,14 0,21 1,58 -1,116 -7,175 -2,12 -3,25 -5,37z"/>
  <path class="fil1" d="M4469 2088c273,118 765,245 1294,334 529,90 1035,131 1332,110 12,-45 23,-91 30,-137l39 7 -39 -7c5,-27 9,-54 12,-81 6,-56 8,-114 7,-170 -13,-642 -482,-1185 -1116,-1292 -633,-107 -1255,251 -1478,853 -20,53 -36,108 -49,163 -6,27 -12,54 -16,81 -8,46 -13,93 -16,139zm2451 529c-305,0 -724,-41 -1170,-117 -561,-95 -1061,-226 -1339,-351l-24 -11 1 -27c3,-58 9,-117 19,-175 5,-29 10,-58 17,-86 13,-58 31,-116 52,-172 236,-638 894,-1018 1566,-904 671,113 1168,689 1181,1368 1,60 -1,121 -8,181 -3,28 -7,57 -12,86 -9,58 -23,116 -40,172l-8 25 -26 3c-62,5 -132,8 -209,8z"/>
  <path class="fil48" d="M3465 7266c0,93 -76,168 -169,168 -93,0 -168,-75 -168,-168 0,-94 75,-169 168,-169 93,0 169,75 169,169z"/>
  <path class="fil65" d="M3406 7264c0,61 -49,110 -110,110 -60,0 -110,-49 -110,-110 0,-15 4,-30 9,-44 17,39 56,67 101,67 45,0 84,-28 101,-67 6,14 9,29 9,44z"/>
  <path class="fil1" d="M3296 7127c-76,0 -139,62 -139,139 0,76 63,139 139,139 77,0 139,-63 139,-139 0,-77 -62,-139 -139,-139zm0 337c-109,0 -198,-89 -198,-198 0,-110 89,-199 198,-199 110,0 199,89 199,199 0,109 -89,198 -199,198z"/>
  <path class="fil66" d="M3954 4918c-17,-10 -35,-22 -55,-35 -4,-3 -7,-5 -11,-7 -160,-148 -345,-330 -472,-415 -337,-224 -808,-473 -489,-473 11,0 22,0 35,1 308,14 770,222 1049,607 -7,111 -27,219 -57,322z"/>
  <path class="fil67" d="M4210 5074c-8,-9 -18,-18 -27,-26 -49,-42 -75,-53 -107,-66 -26,-11 -60,-25 -122,-64 30,-103 50,-211 57,-322 71,97 129,205 171,325 28,80 36,129 28,153z"/>
  <path class="fil68" d="M4184 5094c-51,0 -165,-97 -296,-218 4,2 7,4 11,7 20,13 38,25 55,35 62,39 96,53 122,64 32,13 58,24 107,66 9,8 19,17 27,26 -4,14 -13,20 -26,20z"/>
  <path class="fil1" d="M2241 5448c-67,-16 -134,56 -151,160 -16,104 24,201 91,217 67,16 135,-56 151,-160 17,-104 -24,-201 -91,-217z"/>
  <path class="fil33" d="M2233 5492c-22,7 -33,41 -26,77 8,36 32,59 54,52 22,-7 34,-42 26,-77 -7,-36 -31,-59 -54,-52z"/>
  <path class="fil69" d="M2146 5709c-11,7 -13,26 -6,44 8,17 22,26 33,19 11,-7 13,-27 6,-44 -8,-17 -22,-26 -33,-19z"/>
  <path class="fil1" d="M3044 5578c76,-1 132,92 125,207 -6,115 -72,210 -147,211 -75,2 -131,-91 -125,-206 6,-116 72,-210 147,-212z"/>
  <path class="fil33" d="M3043 5627c22,12 26,52 10,89 -17,36 -48,56 -70,43 -22,-12 -27,-52 -10,-89 16,-36 48,-56 70,-43z"/>
  <path class="fil69" d="M3086 5880c10,10 9,31 -3,48 -12,17 -30,23 -40,13 -10,-10 -8,-31 4,-48 12,-17 30,-23 39,-13z"/>
  <path class="fil70" d="M3533 6620c56,-36 105,-81 145,-133 126,-54 223,-117 297,-177 -87,141 -240,250 -442,310zm-1748 -380c-9,-11 -17,-22 -24,-33 4,4 8,7 13,11 3,7 7,15 11,22z"/>
  <path class="fil46" d="M2978 6678c-94,0 -189,-8 -282,-22 -133,-21 -263,-56 -388,-106l-35 -13c-47,-19 -92,-37 -138,-57 -159,-70 -276,-150 -350,-240 -4,-7 -8,-15 -11,-22 160,130 412,269 796,343 171,32 325,46 465,46 267,0 479,-51 643,-120 -40,52 -89,97 -145,133 -20,6 -40,11 -62,16 -75,18 -204,30 -407,40 -29,1 -57,2 -86,2z"/>
  <path class="fil1" d="M2869 6723l-405 -63c-129,-61 -234,-95 -345,-144 -60,-26 -128,-60 -193,-103 -106,-69 -204,-161 -251,-284 25,25 53,51 86,78 7,11 15,22 24,33 74,90 191,170 350,240 46,20 91,38 138,57l35 13c125,50 255,85 388,106 93,14 188,22 282,22 29,0 57,-1 86,-2 203,-10 332,-22 407,-40 22,-5 42,-10 62,-16 202,-60 355,-169 442,-310 31,-25 58,-50 81,-72 -46,116 -129,216 -240,293 -129,67 -266,120 -408,157 -21,3 -44,6 -69,8 -114,12 -271,20 -470,27z"/>
  <path class="fil1" d="M3408 6688c142,-37 279,-90 408,-157 -93,65 -207,114 -336,144 -20,4 -44,9 -72,13z"/>
 </g>
</svg>
